<?xml version="1.0" standalone="no"?>
<!DOCTYPE svg PUBLIC "-//W3C//DTD SVG 20010904//EN"
 "http://www.w3.org/TR/2001/REC-SVG-20010904/DTD/svg10.dtd">
<svg version="1.0" xmlns="http://www.w3.org/2000/svg"
 width="282.000000pt" height="282.000000pt" viewBox="0 0 282.000000 282.000000"
 preserveAspectRatio="xMidYMid meet">
<metadata>
Created by potrace 1.11, written by Peter Selinger 2001-2013
</metadata>
<g transform="translate(0.000000,282.000000) scale(0.100000,-0.100000)"
fill="#000000" stroke="none">
<path d="M1335 2725 c-27 -8 -68 -14 -91 -15 -47 0 -61 -9 -103 -72 -17 -25
-41 -55 -54 -65 -57 -45 -178 -241 -192 -313 -4 -19 -27 -104 -51 -189 -24
-84 -44 -161 -44 -170 1 -9 25 34 55 95 64 132 123 194 183 194 20 0 43 -6 51
-14 45 -41 226 -40 360 1 76 24 245 23 326 -1 86 -25 128 -56 186 -138 65 -93
85 -132 124 -243 37 -107 57 -117 67 -35 11 97 8 235 -7 326 -12 73 -26 111
-78 214 -60 118 -66 125 -97 130 -28 4 -35 11 -42 38 -6 23 -23 42 -56 65 -26
18 -72 55 -102 84 -60 56 -111 83 -157 83 -15 0 -52 9 -81 20 -60 23 -126 25
-197 5z"/>
<path d="M900 1721 c-61 -7 -94 -22 -104 -47 -8 -22 1 -34 26 -34 l21 0 -21
-22 c-70 -76 -54 -210 39 -320 46 -55 48 -70 13 -93 -74 -48 -79 -74 -33 -177
l31 -70 -11 -97 c-23 -201 14 -290 167 -409 107 -84 155 -135 155 -167 0 -18
-14 -41 -43 -70 -26 -26 -40 -49 -37 -58 16 -43 212 -46 362 -7 272 72 591
319 636 491 16 62 0 122 -51 180 l-38 44 -16 -39 c-23 -55 -96 -154 -151 -205
-90 -83 -372 -200 -490 -204 -75 -2 -105 15 -146 84 -29 50 -49 58 -85 35 -18
-13 -29 -14 -44 -6 -44 24 -10 64 61 73 25 4 72 16 103 27 47 18 56 25 56 46
0 19 -14 33 -62 64 -33 22 -71 40 -82 40 -16 0 -13 4 14 19 76 42 82 44 146
32 80 -14 94 -14 94 3 0 10 -29 21 -89 35 -49 12 -97 21 -108 21 -10 0 -28 6
-39 14 -18 14 -17 16 20 48 34 30 39 39 39 78 0 51 -17 67 -77 77 -38 6 -86
41 -86 62 0 5 23 40 50 76 66 87 77 109 90 189 20 114 -2 161 -87 187 -24 7
-43 15 -43 19 0 3 25 14 55 24 30 9 55 21 55 27 0 5 -1 9 -2 9 -2 0 -41 7 -88
15 -89 16 -109 16 -200 6z"/>
<path d="M1397 1673 c-16 -15 -6 -52 18 -67 24 -16 24 -18 10 -44 -8 -15 -25
-40 -38 -55 -19 -25 -22 -40 -22 -127 0 -97 0 -98 38 -153 41 -59 41 -77 1
-77 -19 0 -24 -5 -24 -25 0 -18 -9 -31 -29 -43 -30 -17 -61 -68 -61 -100 0
-24 19 -42 46 -42 18 0 23 7 29 45 6 41 9 45 28 39 12 -3 29 -13 38 -20 22
-19 49 -17 50 4 1 9 2 81 3 160 l1 144 28 24 c33 28 50 29 140 8 52 -13 71
-14 80 -5 14 14 2 36 -55 104 -73 85 -59 137 37 137 138 0 28 66 -148 90 -90
11 -161 13 -170 3z"/>
<path d="M675 1426 c-18 -42 -20 -155 -3 -191 12 -28 19 -30 35 -14 8 8 6 22
-9 50 -19 37 -19 41 -4 86 9 25 16 57 16 69 0 38 -19 38 -35 0z"/>
<path d="M1265 1100 c4 -6 11 -8 16 -5 14 9 11 15 -7 15 -8 0 -12 -5 -9 -10z"/>
</g>
</svg>
