<?xml version="1.0" encoding="utf-8"?>
<!-- Generator: Adobe Illustrator 16.0.0, SVG Export Plug-In . SVG Version: 6.00 Build 0)  -->
<!DOCTYPE svg PUBLIC "-//W3C//DTD SVG 1.1//EN" "http://www.w3.org/Graphics/SVG/1.1/DTD/svg11.dtd">
<svg version="1.1" id="Layer_1" xmlns="http://www.w3.org/2000/svg" xmlns:xlink="http://www.w3.org/1999/xlink" x="0px" y="0px"
	 width="1842.52px" height="370.258px" viewBox="0 0 1842.52 370.258" enable-background="new 0 0 1842.52 370.258"
	 xml:space="preserve">
<path fill="#F4F4F4" d="M1842.52-56.371c0,0-434.775-69.386-143.365,225.27c172.156,174.073-255.941,125.252-340.685,116.73
	c-351.376-35.333-504.608-78.636-748.71-39.5c-184,29.5-170.754,0.195-346.754-15.166C195.339,225.057,0,236.648,0,236.648v211.61
	h1842.542L1842.52-56.371z"/>
<linearGradient id="SVGID_1_" gradientUnits="userSpaceOnUse" x1="1427.3567" y1="136.1292" x2="1842.5422" y2="136.1292">
	<stop  offset="0" style="stop-color:#B65A8C"/>
	<stop  offset="1" style="stop-color:#FF3F45"/>
</linearGradient>
<path fill="url(#SVGID_1_)" d="M1480-98c0,0-154.418,305.71,65.685,251.643c115.146-28.285,189.161,63.471,131.075,114.986
	c-41.892,37.152-241,19-241,19l406.782,82.629L1842.498-98H1480z"/>
<path fill="#EAEAEA" d="M1842.52,223.629c0,0-106.826,123.887-399.826,64.887c-400.066-80.56-427.261-10.083-749.832-10.801
	C204.76,276.629,0,185.129,0,185.129v263.129h1842.542L1842.52,223.629z"/>
<g>
	
		<linearGradient id="SVGID_2_" gradientUnits="userSpaceOnUse" x1="243.2966" y1="-19.5789" x2="148.9292" y2="515.6055" gradientTransform="matrix(-4.371139e-008 -1 1 -4.371139e-008 16.6524 381.1172)">
		<stop  offset="0" style="stop-color:#7F88FF"/>
		<stop  offset="0.4341" style="stop-color:#7F87FD"/>
		<stop  offset="0.6182" style="stop-color:#8084F6"/>
		<stop  offset="0.7548" style="stop-color:#8280E9"/>
		<stop  offset="0.8681" style="stop-color:#8479D8"/>
		<stop  offset="0.9658" style="stop-color:#8870C1"/>
		<stop  offset="1" style="stop-color:#896CB7"/>
	</linearGradient>
	<path fill="url(#SVGID_2_)" d="M263.76,134.296c-147.333,92,71.839,101.506,98.667,96.667c60.899-10.984,72-108,162.903,23.834
		c39.127,56.746-526.589-41.016-526.589-41.016L0,121.219c0,0,183.76,94.41,153.76,27.744
		C123.214,81.083,318.893,99.868,263.76,134.296z"/>
	
		<linearGradient id="SVGID_3_" gradientUnits="userSpaceOnUse" x1="139.3191" y1="215.0725" x2="151.1265" y2="271.0617" gradientTransform="matrix(0.8282 -0.5605 0.6338 0.9366 -21.4508 46.2184)">
		<stop  offset="0" style="stop-color:#7F88FF"/>
		<stop  offset="0.4341" style="stop-color:#7F87FD"/>
		<stop  offset="0.6182" style="stop-color:#8084F6"/>
		<stop  offset="0.7548" style="stop-color:#8280E9"/>
		<stop  offset="0.8681" style="stop-color:#8479D8"/>
		<stop  offset="0.9658" style="stop-color:#8870C1"/>
		<stop  offset="1" style="stop-color:#896CB7"/>
	</linearGradient>
	<path fill="url(#SVGID_3_)" d="M260.268,166.341c21.604,15.015,46.825,63.958-20.508,42.081
		c-25.1-8.155-18.86-28.947-11.179-37.036C237.082,162.434,247.885,157.734,260.268,166.341z"/>
</g>
<g opacity="0.2">
	<path d="M1477.201,134.045c0,2.718,0,21.368,0,21.368s-0.102-10.328-15.053-10.328h-177.654c-6.097,0-11.04-4.942-11.04-11.04
		v-33.272c0-6.096,4.943-11.039,11.04-11.039h181.669c6.096,0,11.038,4.943,11.038,11.039V134.045L1477.201,134.045z"/>
	<path d="M1477.201,51.095c0-6.097-4.942-11.04-11.038-11.04h-181.669c-6.097,0-11.04,4.943-11.04,11.04v19.221
		c0,6.097,4.943,11.039,11.04,11.039h181.669c6.096,0,11.038-4.942,11.038-11.039V51.095L1477.201,51.095z"/>
	<path d="M1227.456,198.202c0,2.718,0,21.367,0,21.367s0.103-10.328,15.054-10.328h177.655c6.097,0,11.039-4.942,11.039-11.039
		v-33.271c0-6.097-4.942-11.04-11.039-11.04h-181.669c-6.097,0-11.04,4.942-11.04,11.04V198.202z"/>
</g>
<g>
	<path fill="#4F82F0" d="M1473.839,129.638c0,2.717,0,21.367,0,21.367s-0.104-10.328-15.054-10.328h-177.653
		c-6.098,0-11.041-4.942-11.041-11.039V96.365c0-6.097,4.943-11.04,11.041-11.04H1462.8c6.096,0,11.039,4.943,11.039,11.04V129.638
		L1473.839,129.638z"/>
	<path fill="#4F82F0" d="M1473.839,46.688c0-6.097-4.943-11.04-11.039-11.04h-181.668c-6.098,0-11.041,4.943-11.041,11.04v19.221
		c0,6.097,4.943,11.04,11.041,11.04H1462.8c6.096,0,11.039-4.943,11.039-11.04V46.688L1473.839,46.688z"/>
	<path fill="#E6E7E8" d="M1224.094,193.794c0,2.718,0,21.368,0,21.368s0.102-10.328,15.054-10.328h177.654
		c6.098,0,11.04-4.942,11.04-11.04v-33.271c0-6.097-4.942-11.04-11.04-11.04h-181.669c-6.097,0-11.039,4.942-11.039,11.04V193.794z"
		/>
	<g>
		<circle fill="#FBCA40" cx="1348.918" cy="169.444" r="9.775"/>
		<path fill="#FBBB40" d="M1355.108,177.01c0,0-0.056,0.045-0.083,0.066c-1.672,1.341-3.796,2.143-6.106,2.143
			c-5.399,0-9.777-4.376-9.777-9.775c0-2.831,1.204-5.38,3.127-7.166c0.025-0.023,0.075-0.069,0.075-0.069
			s-1.568,7.063,3.146,11.171C1350.106,177.405,1355.108,177.01,1355.108,177.01z"/>
		<path fill="#231F20" d="M1353.908,164.885c-1.328,0-1.328,2.058,0,2.058C1355.236,166.943,1355.236,164.885,1353.908,164.885z"/>
		<path fill="#231F20" d="M1349.004,164.885c-1.328,0-1.328,2.058,0,2.058C1350.33,166.943,1350.33,164.885,1349.004,164.885z"/>
		<path fill="#231F20" d="M1354.268,171.458c0,0.578,0,2.335,0,2.335h-5.878c0,0,0-1.894,0-2.335c0-1.646,1.314-2.981,2.938-2.981
			C1352.949,168.477,1354.268,169.812,1354.268,171.458z"/>
		<path fill="#FF6D6A" d="M1358.567,173.658c0,0.993-1.23,0.865-3.055,0.865c-1.825,0-7.122-0.725-7.122-0.725
			s0.564-1.941,6.873-1.941C1357.086,171.857,1358.567,172.663,1358.567,173.658z"/>
		<path fill="#FF476A" d="M1356.798,173.447c0,0-1.015-0.563-1.934-0.865c-0.902-0.293-1.597-0.344-1.597-0.344
			s0.428-0.269,1.583-0.084C1356.806,172.463,1356.798,173.447,1356.798,173.447z"/>
	</g>
	
		<line fill="none" stroke="#EAEAEA" stroke-width="5" stroke-linecap="round" stroke-linejoin="round" stroke-miterlimit="10" x1="1292.953" y1="56.298" x2="1329.447" y2="56.298"/>
	
		<line fill="none" stroke="#EAEAEA" stroke-width="5" stroke-linecap="round" stroke-linejoin="round" stroke-miterlimit="10" x1="1343.857" y1="56.298" x2="1382.19" y2="56.298"/>
	
		<line fill="none" stroke="#EAEAEA" stroke-width="5" stroke-linecap="round" stroke-linejoin="round" stroke-miterlimit="10" x1="1303.381" y1="103.429" x2="1393.536" y2="103.429"/>
	
		<line fill="none" stroke="#EAEAEA" stroke-width="5" stroke-linecap="round" stroke-linejoin="round" stroke-miterlimit="10" x1="1291.114" y1="122.289" x2="1370.58" y2="122.289"/>
	
		<line fill="none" stroke="#EAEAEA" stroke-width="5" stroke-linecap="round" stroke-linejoin="round" stroke-miterlimit="10" x1="1384.413" y1="122.289" x2="1402.658" y2="122.289"/>
	
		<line fill="none" stroke="#2D2D2D" stroke-width="5" stroke-linecap="round" stroke-linejoin="round" stroke-miterlimit="10" x1="1250.311" y1="169.919" x2="1297.861" y2="169.919"/>
	
		<line fill="none" stroke="#2D2D2D" stroke-width="5" stroke-linecap="round" stroke-linejoin="round" stroke-miterlimit="10" x1="1314.42" y1="169.919" x2="1322.393" y2="169.919"/>
	
		<line fill="none" stroke="#2D2D2D" stroke-width="5" stroke-linecap="round" stroke-linejoin="round" stroke-miterlimit="10" x1="1263.209" y1="188.317" x2="1318.1" y2="188.317"/>
</g>
<linearGradient id="SVGID_4_" gradientUnits="userSpaceOnUse" x1="1565.5168" y1="251.1233" x2="1671.1809" y2="251.1233" gradientTransform="matrix(0.9161 -0.4009 0.4009 0.9161 38.7416 624.6396)">
	<stop  offset="0" style="stop-color:#B65A8C"/>
	<stop  offset="1" style="stop-color:#FF3F45"/>
</linearGradient>
<path fill="url(#SVGID_4_)" d="M1683.946,215.959c0,0-30.19-37.299-53.438,3.908c-13.237,23.465-47.213,29.297-55.507,10.344
	c-8.294-18.949,4.304-44.801,29.673-53.872C1663.76,155.214,1683.946,215.959,1683.946,215.959z"/>
</svg>
