<?xml version="1.0" encoding="utf-8"?>
<!-- Generator: Adobe Illustrator 16.0.0, SVG Export Plug-In . SVG Version: 6.00 Build 0)  -->
<!DOCTYPE svg PUBLIC "-//W3C//DTD SVG 1.1//EN" "http://www.w3.org/Graphics/SVG/1.1/DTD/svg11.dtd">
<svg version="1.1" id="Layer_1" xmlns="http://www.w3.org/2000/svg" xmlns:xlink="http://www.w3.org/1999/xlink" x="0px" y="0px"
	 width="67px" height="67px" viewBox="0 0 67 67" enable-background="new 0 0 67 67" xml:space="preserve">
<path fill="#FFFFFF" d="M34.016,4C17.432,4,3.986,17.445,3.986,34.029c0,13.269,8.604,24.523,20.536,28.493
	c1.501,0.275,2.049-0.654,2.049-1.444c0-0.717-0.026-3.083-0.041-5.591c-8.351,1.815-10.116-3.539-10.116-3.539
	c-1.367-3.47-3.333-4.394-3.333-4.394c-2.729-1.863,0.206-1.827,0.206-1.827c3.016,0.21,4.603,3.095,4.603,3.095
	c2.681,4.592,7.031,3.264,8.739,2.493c0.273-1.935,1.051-3.262,1.906-4.01c-6.665-0.758-13.678-3.336-13.678-14.842
	c0-3.281,1.171-5.957,3.089-8.06c-0.307-0.761-1.339-3.817,0.296-7.951c0,0,2.519-0.806,8.259,3.081c2.394-0.669,4.961-1,7.515-1.01
	c2.55,0.01,5.12,0.344,7.518,1.013c5.729-3.889,8.252-3.079,8.252-3.079c1.644,4.137,0.607,7.188,0.3,7.947
	c1.925,2.103,3.087,4.779,3.087,8.06c0,11.537-7.022,14.076-13.712,14.82c1.079,0.933,2.037,2.758,2.037,5.559
	c0,4.014-0.04,7.251-0.04,8.24c0,0.8,0.545,1.733,2.066,1.44c11.925-3.978,20.521-15.23,20.521-28.493
	C64.045,17.445,50.598,4,34.016,4z"/>
</svg>
