<?xml version="1.0" encoding="utf-8"?>
<!-- Generator: Adobe Illustrator 16.0.0, SVG Export Plug-In . SVG Version: 6.00 Build 0)  -->
<!DOCTYPE svg PUBLIC "-//W3C//DTD SVG 1.1//EN" "http://www.w3.org/Graphics/SVG/1.1/DTD/svg11.dtd">
<svg version="1.1" id="Layer_1" xmlns="http://www.w3.org/2000/svg" xmlns:xlink="http://www.w3.org/1999/xlink" x="0px" y="0px"
	 width="67px" height="67px" viewBox="0 0 67 67" enable-background="new 0 0 67 67" xml:space="preserve">
<circle fill="#FFFFFF" cx="33" cy="33.999" r="26.307"/>
<path d="M33,3.563c-16.811,0-30.438,13.627-30.438,30.438c0,16.81,13.628,30.438,30.438,30.438c16.81,0,30.438-13.629,30.438-30.438
	C63.438,17.19,49.81,3.563,33,3.563z M33,59.439c-2.408,0-4.735-0.344-6.944-0.972c0.341-0.256,0.493-0.657,0.493-1.034
	c0-0.618-0.024-2.672-0.038-4.845c-7.239,1.572-8.769-3.07-8.769-3.07c-1.185-3.005-2.89-3.807-2.89-3.807
	c-2.366-1.613,0.179-1.583,0.179-1.583c2.614,0.183,3.99,2.684,3.99,2.684c2.324,3.977,6.096,2.827,7.576,2.16
	c0.237-1.678,0.91-2.829,1.652-3.478c-5.779-0.657-11.858-2.893-11.858-12.867c0-2.844,1.017-5.164,2.678-6.986
	c-0.265-0.661-1.161-3.309,0.257-6.891c0,0,2.183-0.7,7.159,2.669c2.075-0.581,4.301-0.867,6.515-0.875
	c2.212,0.008,4.438,0.299,6.517,0.878c4.968-3.371,7.153-2.669,7.153-2.669c1.421,3.586,0.528,6.231,0.261,6.889
	c1.669,1.822,2.675,4.142,2.675,6.986c0,10.002-6.088,12.203-11.889,12.848c0.939,0.808,1.77,2.392,1.77,4.817
	c0,3.481-0.035,6.285-0.035,7.143c0,0.376,0.149,0.778,0.485,1.035C37.729,59.097,35.404,59.439,33,59.439z"/>
</svg>
