<?xml version="1.0" encoding="utf-8"?>
<!-- Generator: Adobe Illustrator 16.0.0, SVG Export Plug-In . SVG Version: 6.00 Build 0)  -->
<!DOCTYPE svg PUBLIC "-//W3C//DTD SVG 1.1//EN" "http://www.w3.org/Graphics/SVG/1.1/DTD/svg11.dtd">
<svg version="1.1" id="Layer_1" xmlns="http://www.w3.org/2000/svg" xmlns:xlink="http://www.w3.org/1999/xlink" x="0px" y="0px"
	 width="841.891px" height="595.279px" viewBox="0 0 841.891 595.279" enable-background="new 0 0 841.891 595.279"
	 xml:space="preserve">
<g>
	<path fill="#F1F2F2" d="M28.161,403c-47.538-100.763,850.481-554.349,769.856-248.885
		C771.555,285.351,303.472,339.127,285.365,352.75c-20.126,15.142-38.79,31.949-56.71,49.616
		c-7.042,6.941-14.429,13.494-22.564,19.172c-10.844,7.567-22.356,13.805-34.901,18.081c-8.826,3.008-17.894,4.829-27.166,5.683
		c-9.39,0.863-18.763,1.096-28.146-0.26c-12.332-1.78-24.404-4.563-36.036-9.056c-8.83-3.41-17.49-7.202-25.808-11.77
		C43.364,418.359,28.323,403.345,28.161,403z"/>
	<path fill="#D1DEEA" d="M23.566,405.711"/>
	<g>
		<path fill="#896CB7" d="M378.111,298.927c0.037-0.002,0.074-0.004,0.111-0.006c0-0.005,0.001-0.008,0.001-0.012L378.111,298.927z"
			/>
		<path fill="#896CB7" d="M803.142,317.584c31.978-78.917-19.967-233.805-64.847-220.262
			c-3.845,1.686-122.12,121.638-366.057,204.599C59.568,408.258,244.992,543.757,354.603,531.108
			C706.176,490.536,771.555,395.536,803.142,317.584z"/>
	</g>
	<path fill="#896CB7" d="M793.511,465.875c0.229,0.058,0.575,0.046,0.659,0.188c0.149,0.254-0.106,0.435-0.352,0.538
		C793.716,466.361,793.615,466.118,793.511,465.875z"/>
	<path fill="#FDFDFD" d="M560.447,218.96c-0.109-0.148-0.221-0.298-0.329-0.445C560.566,218.413,560.444,218.733,560.447,218.96z"/>
	<polygon fill="#37251B" points="714.017,270.156 714.048,270.209 714.002,270.131 	"/>
</g>
<circle fill="#37251B" cx="771.555" cy="84.857" r="6.713"/>
<circle fill="#37251B" cx="791.555" cy="84.857" r="6.713"/>
<circle fill="#37251B" cx="811.61" cy="84.857" r="6.713"/>
<g>
	<path fill="#D1DEEA" d="M336.729,531.849c0.704-7.106,0.857-14.248,1.627-21.358c0.993-9.157,2.228-18.288,3.766-27.35
		c1.584-9.332,3.901-18.553,7.465-27.386c2.486-6.168,5.733-11.77,10.934-16.179c10.356-8.781,20.523-17.784,30.836-26.616
		c6.143-5.261,12.402-10.383,18.634-15.538c2.729-2.258,5.508-4.457,8.284-6.655c5.574-4.414,11.119-8.864,16.762-13.19
		c2.725-2.09,5.785-3.766,8.484-5.853c4.045-3.129,8.4-5.674,12.871-8.054c4.16-2.213,8.404-4.264,12.631-6.349
		c9.361-4.619,18.506-9.726,28.627-12.633c2.459-0.706,4.336-2.04,4.723-4.898c0.139-1.022,0.74-2.009,1.236-2.956
		c1.479-2.83,2.912-5.691,4.551-8.43c2.168-3.621,4.521-7.094,9.166-7.948c0.832-0.151,1.664-0.063,2.51-0.372
		c6.512-2.366,13.174-4.042,20.172-3.958c-0.277,3.434-2.123,6.312-3.422,9.363c-1.656,3.891-4.359,6.911-7.977,9.243
		c-3.971,2.562-8.51,3.123-12.898,4.236c-1.973,0.5-2.227,0.893-1.211,2.768c0.238,0.438,0.486,0.945,0.873,1.211
		c3.338,2.29,4.934,6.005,7.387,9.013c2.965,3.637,4.865,8.009,7.813,11.689c3.211,4.01,5.936,8.465,9.496,12.118
		c3.848,3.947,7.994,7.66,12.629,10.807c6.178,4.191,12.758,7.715,18.951,11.865c1.055,0.708,2.572,0.373,3.375,1.664
		c1.219,1.964,3.361,2.691,5.246,3.778c5.305,3.059,10.494,6.302,15.514,9.813c2.602,1.82,4.07,4.541,5.695,7.132
		c2.033,3.25,6.107,4.306,8.65,2.078c1.666-1.459,3.826-2.595,3.994-5.259c0.025-0.419,0.453-0.931,0.836-1.188
		c1.252-0.842,1.822-1.94,1.695-3.448c-0.076-0.907,0.438-1.661,0.879-2.384c1.969-3.23,4.129-6.356,5.928-9.679
		c0.984-1.815,2.906-3.264,2.621-5.68c1.809-0.497,3.643-0.787,5.51-0.452c1.756,0.313,3.482,0.847,5.248,1.029
		c2.309,0.241,4.777,0.946,6.914-0.34c5.697-3.428,10.645-7.665,13.994-13.571c1.795-3.167,3.926-6.145,5.736-9.304
		c4.943-8.631,11.848-16.065,15.529-25.466c0.045-0.112,0.213-0.175,0.324-0.261c3.721,0.465,7.43,1.136,11.166,1.343
		c4.613,0.257,9.154,1.021,13.725,1.555c8.867,1.036,15.98,5.671,22.566,11.328c3.545,3.047,7.24,5.925,10.715,9.048
		c3.932,3.529,7.949,7.14,9.15,12.585c0.795,3.605,2.174,7.003,3.457,10.392c3.621,9.563,7.072,19.186,10.543,28.802
		C763.691,430.359,751.445,531.849,336.729,531.849z"/>
	<path fill="#37251B" d="M679.818,344.459c-0.16,0.815-0.32,1.632-0.482,2.447c-0.109,0.086-0.277,0.147-0.322,0.261
		c-3.682,9.399-10.586,16.835-15.529,25.466c-1.813,3.159-3.941,6.137-5.736,9.304c-3.352,5.906-8.297,10.145-13.994,13.571
		c-2.137,1.286-4.605,0.581-6.914,0.341c-1.766-0.185-3.492-0.717-5.248-1.03c-1.867-0.335-3.701-0.045-5.51,0.452
		c-0.711,0.045-1.436,0.015-2.131,0.145c-9.316,1.736-17.707,0.013-25.508-5.689c-12.533-9.165-23.98-19.443-34.148-31.168
		c-5.299-6.111-10.504-12.302-14.848-19.139c-4.795-7.542-7.404-15.882-8.564-24.704c-0.279-7.747,1.16-15.373,1.619-23.067
		c0.045-0.776,0.189-1.558-0.146-2.31c-0.021-1.141-0.094-2.282-0.061-3.421c0.248-8.147,0.527-16.294,0.771-24.441
		c0.188-6.229,0.652-12.434,2.242-18.474c1.766-6.708,1.408-13.147-1.795-19.362c-0.635-1.23-0.795-2.584-0.941-3.937
		c-0.002-0.228,0.119-0.547-0.33-0.446l0.072,0.003c-0.299-1.857-0.119-3.66,0.344-5.493c2.174-8.591,2.314-17.42,3.002-26.188
		c1.063-13.545,1.73-27.143,5.088-40.402c2.891-11.416,8.238-21.586,15.604-30.709c4.596-5.694,14.395-8.032,21.631-5.258
		c4.063,1.56,8.025,3.357,12.125,5.414c0.773-4.796,1.467-9.481,2.301-14.144c0.664-3.719,1.201-7.479,2.908-10.938
		c1.563-3.169,3.785-5.772,6.777-7.58c5.475-3.305,11.279-5.937,17.635-6.96c6.77-1.09,12.377,1.129,16.582,6.619
		c1.533,2.001,2.58,4.277,3.406,6.647c1.002,2.867,1.434,3.125,4.389,2.19c2.455-0.775,4.885-1.796,7.52-1.084
		c1.578,0.428,3.088,1.093,4.643,1.607c0.736,0.244,1.588,0.599,2.16-0.22c0.604-0.859,0.082-1.64-0.447-2.343
		c-1.422-1.891-3.291-3.345-4.83-5.431c2.438,0.705,4.902,1.334,7.311,2.133c3.189,1.06,6.242,2.455,9.184,4.087
		c0.82,0.456,1.705,0.973,2.57,0.199c0.791-0.707,0.406-1.634,0.117-2.414c-1.943-5.261-0.41-4.636,3.777-4.847
		c3.283-0.165,5.789,1.359,7.43,4.21c1.994,3.467,3.898,6.987,5.936,10.43c2.209,3.735,5.281,5.982,9.895,5.271
		c2.174,0.604,4.531,0.451,6.494,1.938c4.088,3.101,6.496,7.422,8.531,11.904c2.572,5.657,4.709,11.51,7.121,17.242
		c1.221,2.895,2.438,5.816,5.162,7.754c1.68,1.193,3.469,1.951,5.535,2.087c0.73,0.048,1.75-0.234,2.016,0.767
		c0.26,0.984-0.766,1.262-1.35,1.72c-2.924,2.3-5.826,4.632-8.82,6.837c-2.691,1.982-4.568,4.494-5.572,7.671
		c-1.145,3.61-2.285,7.222-3.428,10.833c-1.229,3.879-3.729,6.299-7.814,7.07c-2.947,0.556-3.178,0.884-3.045,3.854
		c0.283,6.426,0.633,12.85,0.955,19.275c-0.039,0.139-0.063,0.281-0.119,0.414c-0.176,0.409-0.346,0.373-0.398-0.044
		c-0.166-1.351-0.297-2.704-0.461-4.056c-0.537-4.416-1.154-8.821-3.49-12.73c-1.35-2.259-2.682-2.597-5.051-1.464
		c-1.354,0.646-2.678,1.36-4.057,1.948c-4.146,1.768-8.58,2.104-12.99,2.605c-1.941,0.221-3.744,0.385-5.596-0.621
		c-8.193-4.452-16.836-7.838-25.693-10.733c-5.961-1.947-12.262-2.776-17.932-5.736c-2.074-1.083-4.535-0.866-6.572,0.552
		c-1.695,1.18-3.365,1.059-5.066,0.257c-3.494-1.646-6.928-3.405-10.102-5.644c-6.676-4.708-12.105-10.722-17.559-16.703
		c-1.156-1.27-1.969-1.298-3.109-0.021c-3.244,3.632-6.6,7.167-9.854,10.79c-3.234,3.602-6.117,7.465-6.971,12.37
		c-1.791,10.3-5.93,19.556-12.328,27.762c-5.764,7.393-7.467,15.561-5.611,24.663c1.213,5.944-0.352,10.85-5.719,14.313
		c-2.689,1.737-4.252,4.479-4.787,7.623c-1.094,6.419-0.547,12.858,0.227,19.259c1.123,9.305,2.496,18.581,3.613,27.886
		c0.711,5.915,1.787,11.649,6.064,16.167c2.408,2.547,4.855,5.088,7.516,7.362c5.926,5.063,9.215,11.355,9.721,19.141
		c0.23,3.567,0.486,7.139,2.154,10.435c1.426,2.811,2.529,3.213,5.205,1.688c3.734-2.126,6.973-0.79,8.031,3.406
		c0.559,2.216,0.844,4.5,1.389,6.72c0.895,3.638,2.801,6.464,6.727,7.278c2.041,0.425,4.145,0.4,6.188-0.076
		c4.551-1.064,8.281,0.057,11.289,3.749c2.582,3.165,5.965,5.021,10.055,5.646c3.785,0.578,7.395,0.011,10.967-1.216
		c4.395-1.509,8.777-3.188,13.502-3.199c2.311-0.006,3.93-0.956,5.367-2.604c2.602-2.983,4.771-6.257,6.779-9.651
		c1.395-2.354,2.943-4.627,5.182-6.24c2.271-1.639,3.875-3.712,5.207-6.15C677.603,346.804,678.049,345.053,679.818,344.459z
		 M618.219,89.456c1.859,0.069,3.373-0.286,4.885-0.626c4.885-1.099,9.621-2.691,14.361-4.271c0.928-0.309,2.176-0.828,2.365,0.729
		c0.387,3.165,2.855,3.354,5.133,3.864c0.861,0.194,1.707,0.177,2.201-0.803c0.492-0.974-0.238-1.387-0.766-1.957
		c-0.582-0.627-1.061-1.35-1.6-2.017c-3.088-3.813-7.408-5.778-11.939-4.961C626.845,80.502,622.011,84.191,618.219,89.456z"/>
	<path fill="#E7B49D" d="M542.572,219.702c0.145,1.353,0.307,2.705,0.939,3.937c3.203,6.215,3.561,12.654,1.795,19.362
		c-1.588,6.041-2.055,12.245-2.24,18.474c-0.244,8.146-0.525,16.294-0.771,24.441c-0.035,1.139,0.037,2.28,0.059,3.42
		c-0.871-0.439-0.523-1.271-0.514-1.906c0.043-2.108-0.578-4.083-1.133-6.061c-0.566-2.02-1.771-3.396-3.945-4.065
		c-5.098-1.569-9.004-4.652-11.254-9.624c-0.195-0.433-0.594-0.774-0.896-1.158c-0.795-3.978-1.6-7.951-2.389-11.929
		c-0.801-4.037-1.039-8.104,0.229-12.064c1.283-4.004,1.09-8.107,0.738-12.117c-0.383-4.329,1.617-7.223,4.418-9.923
		c1.23-1.188,2.529-2.313,3.838-3.418c2.951-2.49,6.816-2.114,9.277,0.847c0.443,0.534,0.789,1.218,1.59,1.343
		c0,0-0.07-0.003-0.07-0.002C542.351,219.406,542.461,219.555,542.572,219.702z"/>
	<path fill="#37251B" d="M143.261,346.668c-5.895-0.232-9.271-2.591-10.492-7.325c-1.45-5.623,2.746-11.605,8.557-11.664
		c14.322-0.145,28.648-0.134,42.973-0.009c5.709,0.051,9.909,5.774,8.729,11.411c-0.102,0.489-0.215,0.976-0.322,1.462
		c-2.23,4.447-5.811,6.204-10.787,6.145C169.034,346.53,156.147,346.656,143.261,346.668z"/>
	<path fill="#37251B" d="M239.626,268.214c-1.711,4.133-3.213,7.751-4.708,11.371c-0.446,1.082-0.891,2.201-2.338,2.114
		c-1.335-0.079-1.675-1.185-2.025-2.207c-2.226-6.488-4.43-12.983-6.669-19.468c-0.494-1.43-0.674-2.782,1.092-3.325
		c1.645-0.506,2.243,0.657,2.693,2.009c1.709,5.14,3.47,10.261,5.295,15.635c1.185-1.503,1.527-3.18,2.188-4.686
		c0.833-1.895,1.532-3.849,2.323-5.762c0.434-1.045,0.762-2.229,2.276-2.188c1.393,0.036,1.684,1.114,2.081,2.114
		c1.133,2.856,2.267,5.711,3.413,8.563c0.26,0.646,0.568,1.273,0.971,2.169c1.839-5.434,3.591-10.559,5.303-15.696
		c0.465-1.396,1.037-2.715,2.803-2.164c1.809,0.563,1.471,2.033,1.01,3.383c-2.217,6.488-4.455,12.97-6.677,19.457
		c-0.356,1.044-0.726,2.109-2.044,2.175c-1.451,0.071-1.872-1.097-2.313-2.162C242.801,275.931,241.314,272.31,239.626,268.214z"/>
	<path fill="#37251B" d="M135.027,268.972c0-3.224,0.02-6.445-0.009-9.667c-0.012-1.354,0.269-2.541,1.849-2.614
		c1.714-0.08,2.117,1.187,2.139,2.595c0.032,2.219,0.048,4.44-0.009,6.659c-0.024,0.934,0.276,1.23,1.212,1.215
		c3.149-0.049,6.302-0.057,9.451,0.002c1.085,0.021,1.314-0.423,1.292-1.396c-0.056-2.29-0.001-4.583-0.023-6.874
		c-0.013-1.385,0.61-2.236,2.01-2.218c1.342,0.018,1.833,0.979,1.835,2.187c0.016,6.874,0.02,13.749-0.001,20.623
		c-0.004,1.307-0.59,2.28-2.038,2.208c-1.294-0.064-1.819-0.929-1.808-2.197c0.023-2.361-0.041-4.727,0.027-7.088
		c0.03-1.062-0.181-1.528-1.388-1.495c-3.077,0.085-6.16,0.102-9.234-0.006c-1.29-0.045-1.353,0.545-1.333,1.521
		c0.043,2.219,0.035,4.439,0.006,6.658c-0.019,1.42-0.464,2.657-2.152,2.6c-1.605-0.056-1.842-1.277-1.833-2.614
		C135.042,275.702,135.027,272.338,135.027,268.972z"/>
	<path fill="#37251B" d="M313.344,264.281c0-2.36,0.016-4.5-0.005-6.64c-0.013-1.302,0.326-2.325,1.859-2.303
		c1.501,0.021,1.852,1.016,1.849,2.325c-0.018,7.231-0.018,14.462,0.001,21.693c0.002,1.021-0.248,1.887-1.249,2.268
		c-0.912,0.348-1.793,0.043-2.191-0.827c-0.484-1.063-0.953-0.486-1.432-0.126c-4.561,3.426-12.042,0.507-12.921-6.689
		c-0.418-3.417,0.173-6.6,2.73-9.096C304.949,261.995,308.119,261.826,313.344,264.281z M302.809,272.218
		c-0.024,3.568,2.319,6.316,5.356,6.277c2.971-0.038,5.239-2.691,5.264-6.159c0.026-3.596-2.273-6.262-5.377-6.234
		C305.018,266.127,302.833,268.675,302.809,272.218z"/>
	<path fill="#D1DEEA" d="M143.261,346.668c12.886-0.014,25.773-0.14,38.657,0.02c4.977,0.061,8.556-1.696,10.787-6.145
		c1.369,3.155,0.109,6.577-2.873,8.356c-3.067,1.829-6.474,2.279-9.865,2.348c-8.304,0.165-16.615,0.158-24.92,0.005
		c-3.695-0.067-7.415-0.518-10.515-2.961C143.961,347.841,143.351,347.474,143.261,346.668z"/>
	<path fill="#37251B" d="M168.434,273.227c-1.573,0-3.151,0.087-4.717-0.022c-1.925-0.134-1.799,0.726-1.181,2.027
		c1.497,3.152,5.646,4.263,8.575,2.259c0.353-0.24,0.646-0.563,0.993-0.813c0.853-0.615,1.75-0.732,2.497,0.1
		c0.771,0.859,0.486,1.697-0.273,2.451c-2.48,2.459-5.405,3.269-8.832,2.582c-4.937-0.989-7.891-5.521-7.219-11.221
		c0.57-4.836,4.706-8.345,9.458-8.022c4.262,0.289,7.711,3.866,7.941,8.13c0.093,1.717-0.548,2.568-2.308,2.537
		C171.724,273.203,170.079,273.227,168.434,273.227z M166.875,269.919c1.212,0,2.425-0.039,3.634,0.012
		c1.257,0.053,1.281-0.463,0.801-1.403c-1.519-2.97-6.365-3.267-8.309-0.469c-0.312,0.447-0.71,1.083-0.602,1.512
		c0.177,0.693,0.968,0.299,1.482,0.331C164.876,269.964,165.877,269.919,166.875,269.919z"/>
	<path fill="#37251B" d="M203.633,262.558c5.412,0.168,9.43,4.562,9.164,10.021c-0.271,5.543-4.402,9.679-9.526,9.53
		c-5.314-0.153-9.428-4.582-9.3-10.016C194.103,266.525,198.29,262.392,203.633,262.558z M208.985,272.262
		c-0.02-3.538-2.319-6.111-5.503-6.157c-3.271-0.048-5.706,2.596-5.696,6.186c0.009,3.549,2.513,6.252,5.728,6.185
		C206.654,278.407,209.004,275.74,208.985,272.262z"/>
	<path fill="#37251B" d="M256.594,272.009c0.159-5.629,4.275-9.66,9.667-9.467c5.385,0.194,9.271,4.528,9.068,10.115
		c-0.197,5.439-4.491,9.664-9.608,9.452C260.359,281.888,256.438,277.548,256.594,272.009z M271.531,272.283
		c-0.022-3.648-2.402-6.232-5.685-6.173c-3.159,0.057-5.55,2.708-5.548,6.15c0.002,3.521,2.533,6.264,5.735,6.214
		C269.162,278.426,271.552,275.734,271.531,272.283z"/>
	<path fill="#37251B" d="M282.335,264.922c1.676-1.705,3.584-2.693,5.982-2.31c1.153,0.185,1.789,0.886,1.674,2.08
		c-0.123,1.258-0.953,1.643-2.117,1.542c-3.4-0.292-5.508,1.476-5.664,4.917c-0.116,2.566-0.053,5.141-0.038,7.712
		c0.008,1.382-0.146,2.753-1.86,2.816c-1.763,0.063-1.949-1.313-1.946-2.697c0.005-4.428,0.004-8.856,0-13.284
		c-0.001-1.102,0.005-2.227,1.321-2.614C281.211,262.638,281.86,263.643,282.335,264.922z"/>
	<path fill="#37251B" d="M292.367,268.461c0-3.51,0.013-7.02-0.008-10.529c-0.007-1.341,0.248-2.521,1.854-2.6
		c1.667-0.082,1.99,1.143,1.993,2.457c0.017,7.163,0.017,14.326-0.002,21.489c-0.003,1.242-0.406,2.372-1.866,2.408
		c-1.609,0.04-1.977-1.116-1.974-2.48C292.371,275.624,292.367,272.043,292.367,268.461z"/>
	<path fill="#37251B" d="M178.876,268.454c0-3.509,0.013-7.02-0.006-10.529c-0.009-1.344,0.254-2.52,1.859-2.594
		c1.667-0.076,1.983,1.149,1.987,2.463c0.018,7.092,0.014,14.184,0.005,21.275c-0.002,1.305-0.291,2.574-1.879,2.61
		c-1.763,0.04-1.975-1.293-1.97-2.696C178.883,275.476,178.876,271.966,178.876,268.454z"/>
	<path fill="#37251B" d="M191.081,268.413c0,3.583-0.016,7.164,0.007,10.746c0.008,1.386-0.392,2.502-1.949,2.533
		c-1.497,0.029-1.885-1.15-1.89-2.367c-0.03-7.235-0.031-14.471,0.002-21.707c0.005-1.233,0.445-2.323,1.965-2.297
		c1.508,0.026,1.866,1.064,1.865,2.346C191.079,261.249,191.081,264.831,191.081,268.413z"/>
	<path fill="#37251B" d="M253.407,298.033c-1.052,1.637-1.268,3.409-2.643,5.119c-0.989-2.923-1.85-5.47-2.713-8.016
		c-0.116-0.342-0.282-0.757,0.131-0.937c0.569-0.246,0.713,0.265,0.853,0.663c0.604,1.739,1.196,3.48,1.868,5.439
		c1.496-1.32,1.277-3.354,2.763-4.618c0.695,1.625,1.334,3.113,2.066,4.823c1.064-1.806,1.372-3.646,2.055-5.334
		c0.162-0.401,0.123-1.199,0.839-1.005c0.721,0.196,0.326,0.833,0.187,1.256c-0.673,2.035-1.365,4.066-2.103,6.08
		c-0.152,0.416-0.136,1.109-0.816,1.089c-0.524-0.017-0.527-0.609-0.723-0.961C254.558,300.525,254.378,299.201,253.407,298.033z"/>
	<path fill="#37251B" d="M325.628,281.655c-0.216,1.549-1.083,3.116-2.829,4.09c-0.886,0.494-1.858,0.546-2.465-0.392
		c-0.646-0.997-0.183-1.744,0.851-2.191c0.463-0.201,0.982-0.448,0.921-1.038c-0.091-0.871-0.768-0.227-1.139-0.369
		c-1.351-0.52-1.404-1.504-0.701-2.554c0.814-1.215,2.039-1.468,3.387-1.079C325.212,278.572,325.696,279.753,325.628,281.655z"/>
	<path fill="#37251B" d="M283.987,302.662c-0.305-1.965-0.19-3.959-0.061-5.954c1.405,0.362,2.806-1.23,4.154-0.105
		c0.683,0.57,1.07,0.442,1.771,0.069c1.981-1.058,3.341-0.265,3.472,2.013c0.075,1.309,0.316,2.667-0.335,4.198
		c-1.014-1.191-0.495-2.408-0.6-3.495c-0.097-1.025-0.047-2.153-1.448-2.188c-1.484-0.037-1.871,0.938-1.885,2.278
		c-0.01,1.058,0.35,2.216-0.527,3.521c-0.762-1.416-0.351-2.626-0.44-3.761c-0.084-1.062-0.155-2.112-1.577-2.039
		c-1.229,0.063-1.699,0.873-1.683,2.041c0.016,1.147,0.004,2.295,0.004,3.443C284.55,302.677,284.268,302.669,283.987,302.662z"/>
	<path fill="#37251B" d="M178.508,302.579c0-1.173,0.005-2.348-0.001-3.521c-0.006-1.021-0.235-1.913-1.503-1.88
		c-1.203,0.029-1.763,0.725-1.817,1.923c-0.053,1.17,0.227,2.38-0.295,3.752c-1.161-1.082-0.534-2.256-0.662-3.269
		c-0.131-1.032,0.201-2.353-1.404-2.392c-1.675-0.041-1.861,1.175-1.874,2.509c-0.01,0.961,0.212,1.966-0.237,2.994
		c-0.662-0.866-0.938-6.034-0.581-5.961c1.421,0.29,2.813-1.266,4.112-0.105c0.709,0.634,1.124,0.376,1.795,0.031
		c1.926-0.987,3.255-0.265,3.381,1.875c0.08,1.36,0.398,2.787-0.255,4.097C178.947,302.615,178.727,302.597,178.508,302.579z"/>
	<path fill="#37251B" d="M142.272,302.869c-0.534-1.338-0.23-2.536-0.292-3.678c-0.057-1.084-0.182-2.085-1.597-2.009
		c-1.213,0.065-1.742,0.814-1.729,2c0.012,1.162,0.002,2.325-0.255,3.48c-1.153-1.017-0.596-2.254-0.707-3.373
		c-0.103-1.036-0.046-2.129-1.487-2.107c-1.374,0.021-1.766,0.942-1.788,2.171c-0.021,1.097,0.186,2.231-0.505,3.291
		c-0.637-1.937-0.488-3.913-0.374-5.887c1.381,0.271,2.755-1.208,4.052-0.192c0.788,0.617,1.217,0.475,1.986,0.067
		c1.796-0.952,3.069-0.22,3.326,1.768C143.129,300.151,142.966,301.55,142.272,302.869z"/>
	<path fill="#37251B" d="M332.633,303.134c-0.841-1.652-0.467-2.945-0.55-4.176c-0.071-1.043-0.33-1.744-1.596-1.807
		c-1.33-0.063-1.517,0.75-1.573,1.711c-0.056,0.925,0.001,1.857-0.04,2.783c-0.022,0.491-0.088,1.094-0.78,1.026
		c-0.616-0.061-0.414-0.643-0.426-1.021c-0.031-0.927-0.028-1.856-0.005-2.784c0.021-0.847-0.056-1.635-1.14-1.678
		c-1.08-0.042-1.735,0.461-1.868,1.602c-0.148,1.287,0.394,2.671-1.007,3.885c0-1.915-0.051-3.831,0.03-5.742
		c0.025-0.604,3.385-0.953,4.205-0.293c0.705,0.566,1.067,0.433,1.774,0.018c1.731-1.016,3.057-0.343,3.368,1.643
		C333.255,299.746,333.46,301.224,332.633,303.134z"/>
	<path fill="#37251B" d="M135.276,315.763c0.223-0.04,0.319-0.026,0.359-0.068c0.74-0.768,0.492-2.509,1.539-2.583
		c1.137-0.08,0.73,1.832,1.805,2.472c1.205-0.964,0.739-2.931,2.561-4.295c-0.49,2.815-1.46,4.83-2.222,7.038
		c-1.405-0.896-1.082-2.546-2.205-3.372c-0.106,0.14-0.188,0.237-0.262,0.34c-0.622,0.889-0.398,2.76-1.561,2.671
		c-0.926-0.071-0.971-1.892-1.346-2.94c-0.361-1.015-1.148-2.988-0.757-3.001c1.543-0.052,1.028,1.765,1.612,2.699
		C135.008,315.056,135.131,315.439,135.276,315.763z"/>
	<path fill="#37251B" d="M203.875,298.349c-0.001-0.286-0.001-0.572-0.001-0.857c0-3.607,0.565-4.083,4.206-3.389
		c1.588,0.303,2.275,1.438,1.589,2.819c-0.478,0.959-0.251,1.336,0.256,2.1c0.896,1.348,0.539,2.644-0.955,3.382
		c-1.404,0.694-2.95,0.308-4.433,0.293c-0.677-0.007-0.656-0.631-0.66-1.133C203.87,300.492,203.875,299.421,203.875,298.349z
		 M206.614,301.827c1.346,0.043,2.698,0.009,2.657-1.686c-0.041-1.707-1.493-1.275-2.562-1.368
		c-1.219-0.105-1.918,0.065-1.896,1.643C204.836,301.999,205.677,301.895,206.614,301.827z M206.554,295.025
		c-0.865-0.116-1.788-0.231-1.724,1.391c0.047,1.2,0.516,1.466,1.553,1.396c1.066-0.071,2.355,0.105,2.452-1.389
		C208.926,295.019,207.813,294.932,206.554,295.025z"/>
	<path fill="#37251B" d="M359.946,300.071c-0.492,0.301-0.391,0.885-0.619,1.313c-0.229,0.427-0.191,1.105-0.75,1.214
		c-0.76,0.145-0.688-0.777-1.125-1.087c0.085-0.859-0.36-1.507-0.756-2.356c-0.686,0.955-0.96,1.81-1.08,2.722
		c-0.349,0.371-0.531,1.006-1.25,0.786c-0.403-2.143-1.671-4.044-1.899-6.603c1.748,1.109,1.313,3.092,2.411,4.171
		c0.059-0.022,0.125-0.033,0.173-0.068c0.921-0.656,0.39-2.626,1.739-2.531c0.98,0.067,0.724,1.864,1.654,2.692
		c0.679-0.827,0.731-1.847,1.161-2.682c0.246-0.478,0.037-1.604,0.998-1.265c0.683,0.242,0.049,0.968-0.024,1.483
		c-0.087,0.607-0.678,1.121-0.339,1.805l0.111-0.016C359.918,299.505,359.99,299.843,359.946,300.071z"/>
	<path fill="#37251B" d="M150.066,296.321c-0.039,2.424,0.459,4.885-0.364,7.259c-0.64,1.844-2.997,2.1-4.81,0.535
		c1.572-0.15,3.637,0.996,4.089-1.734c-1.291,0.214-2.708,1.028-3.568-0.243c-1.241-1.83-0.445-3.881-0.555-6.437
		c1.387,1.586,0.81,2.842,0.929,3.978c0.104,0.989-0.121,2.13,1.376,2.185c1.544,0.056,1.916-0.965,1.938-2.241
		c0.02-1.1,0.004-2.199,0.004-3.3C149.426,296.322,149.746,296.321,150.066,296.321z"/>
	<path fill="#37251B" d="M335.033,304.077c1.525-0.14,3.5,0.986,4.011-1.46c-0.599-0.559-1.033,0.159-1.561,0.182
		c-1.688,0.072-2.652-0.614-2.579-2.331c0.061-1.375-0.403-2.804,0.32-4.128c1.481,1.06,0.406,2.567,0.63,3.848
		c0.171,0.97,0.365,1.664,1.486,1.673c1.152,0.008,1.671-0.691,1.817-1.716c0.182-1.279-0.252-2.631,0.623-3.859
		c0.344,2.585,1.006,5.229-0.227,7.714C338.76,305.605,336.552,305.59,335.033,304.077z"/>
	<path fill="#37251B" d="M150.43,309.157c0.711,0.858,0.052,2.033,0.479,2.959c3.313-0.903,5.197,0.374,4.93,3.271
		c-0.197,2.126-1.818,2.868-3.897,2.827c-2.668-0.054-2.178-1.628-2.174-3.172c0.004-1.943,0.001-3.889,0.001-5.833
		C149.99,309.193,150.21,309.175,150.43,309.157z M150.65,315.093c0.259,1.133,0.633,2.297,2.217,2.245
		c1.554-0.051,2.034-1.144,2.022-2.475c-0.012-1.28-0.591-2.223-2.019-2.25C151.314,312.584,150.844,313.648,150.65,315.093z"/>
	<path fill="#37251B" d="M217.537,299.518c0,2.848-0.001,2.804-0.962,2.844c-1.394,0.058-2.833,1.023-4.136-0.317
		c-0.693-0.714-0.962-1.568-0.98-2.52c-0.04-1.923,1.139-3.275,2.851-3.304C217.537,296.168,217.537,296.168,217.537,299.518z
		 M212.421,299.718c0.121,1.158,0.608,2.194,2.164,2.143c1.429-0.049,1.961-1.081,1.979-2.3c0.021-1.314-0.512-2.417-2.062-2.42
		C212.961,297.136,212.469,298.167,212.421,299.718z"/>
	<path fill="#37251B" d="M168.159,299.876c-0.46,0.72,0.898,2.389-0.729,2.556c-1.399,0.144-3.073,1.109-4.403-0.426
		c-0.643-0.743-0.938-1.569-0.939-2.527c-0.003-1.92,1.167-3.24,2.886-3.255C168.159,296.196,168.159,296.196,168.159,299.876z
		 M167.267,299.494c-0.179-1.309-0.634-2.39-2.188-2.354c-1.407,0.033-1.977,0.945-2.006,2.248c-0.03,1.376,0.482,2.419,2.005,2.468
		C166.618,301.906,167.09,300.81,167.267,299.494z"/>
	<path fill="#37251B" d="M300.177,301.281c-0.669,1.74-2.093,1.733-3.44,1.335c-1.451-0.429-2.13-1.677-2.074-3.152
		c0.057-1.527,0.718-2.811,2.335-3.191c1.376-0.324,2.558,0.144,3.246,1.446c0.592,1.121,0.771,2.112-1.054,2.038
		c-0.64-0.026-1.29-0.063-1.921,0.015c-0.494,0.061-1.296-0.403-1.418,0.423c-0.098,0.662,0.445,1.188,1.059,1.474
		C298.063,302.205,299.082,301.647,300.177,301.281z M295.817,298.75c1.297,0,2.466,0,3.672,0c-0.073-1.11-0.687-1.561-1.635-1.62
		C296.842,297.065,296.079,297.396,295.817,298.75z"/>
	<path fill="#37251B" d="M160.237,303.248c-0.995-1.585-0.603-2.729-0.673-3.792c-0.07-1.072,0.11-2.292-1.479-2.317
		c-1.653-0.028-1.932,1.063-1.918,2.443c0.009,1.015,0.256,2.093-0.259,3.044c-0.214,0.004-0.426,0.007-0.639,0.01
		c0-1.95-0.205-3.94,0.163-5.819c0.079-0.403,2.229-0.516,3.43-0.547c0.996-0.026,1.532,0.802,1.596,1.705
		C160.566,299.513,160.691,301.071,160.237,303.248z"/>
	<path fill="#37251B" d="M317.622,302.647c-0.626-1.149-0.23-2.436-0.304-3.65c-0.062-1.036-0.266-1.877-1.53-1.851
		c-1.214,0.024-1.776,0.676-1.83,1.893c-0.055,1.217,0.279,2.502-0.282,3.649c-0.233-0.002-0.467-0.004-0.7-0.006
		c0-1.923-0.198-3.884,0.15-5.742c0.08-0.425,2.038-0.571,3.147-0.707c1.113-0.137,1.841,0.589,1.931,1.587
		c0.143,1.599,0.038,3.22,0.038,4.831C318.036,302.65,317.83,302.648,317.622,302.647z"/>
	<path fill="#37251B" d="M367.451,297.176c0.338,1.479,0.18,2.981,0.191,4.477c0.004,0.523-0.093,1.065-0.792,0.988
		c-0.601-0.066-0.473-0.615-0.487-1.009c-0.026-0.784,0.067-1.579-0.034-2.351c-0.084-0.64,0.604-1.727-0.7-1.803
		c-1.136-0.066-2.162,0.296-2.281,1.681c-0.074,0.852-0.035,1.71-0.061,2.565c-0.012,0.366-0.093,0.813-0.483,0.854
		c-0.598,0.062-0.566-0.488-0.608-0.894c-0.073-0.704-0.128-1.41-0.189-2.117c0.091-0.268,0.188-0.533,0.271-0.803
		c0.239-0.773-0.228-2.389,0.443-2.236C364.296,296.887,366.192,295.06,367.451,297.176z"/>
	<path fill="#37251B" d="M279.279,302.777c-1.885,0.037-3.214-1.236-3.274-3.139c-0.065-2.006,1.268-3.427,3.218-3.428
		c1.825-0.001,3.203,1.393,3.221,3.258C282.461,301.322,281.103,302.741,279.279,302.777z M281.396,299.56
		c-0.043-1.34-0.548-2.377-2.067-2.438c-1.584-0.063-2.352,0.87-2.353,2.389c0,1.401,0.688,2.329,2.166,2.368
		C280.647,301.921,281.268,300.978,281.396,299.56z"/>
	<path fill="#37251B" d="M348.203,296.209c1.839-0.003,3.184,1.357,3.207,3.244c0.022,1.896-1.282,3.284-3.122,3.324
		c-1.929,0.042-3.391-1.417-3.354-3.344C344.97,297.586,346.362,296.213,348.203,296.209z M350.459,299.41
		c-0.205-1.347-0.806-2.328-2.31-2.296c-1.636,0.036-2.269,1.155-2.187,2.576c0.078,1.345,0.85,2.285,2.359,2.188
		C349.832,301.783,350.33,300.746,350.459,299.41z"/>
	<path fill="#37251B" d="M147.901,316.71c-0.639,1.762-2.063,1.8-3.39,1.371c-1.615-0.521-2.28-1.887-2.043-3.562
		c0.205-1.444,0.934-2.57,2.498-2.796c1.522-0.221,2.617,0.429,3.195,1.889c0.418,1.056,0.193,1.658-1.067,1.61
		c-0.711-0.028-1.429-0.057-2.135,0.013c-0.501,0.049-1.323-0.374-1.422,0.428c-0.077,0.62,0.459,1.199,1.076,1.475
		C145.768,317.649,146.825,317.277,147.901,316.71z M147.359,314.259c-0.276-1.141-0.859-1.69-1.95-1.671
		c-1.063,0.019-1.75,0.461-1.841,1.671C144.737,314.259,145.867,314.259,147.359,314.259z"/>
	<path fill="#37251B" d="M175.783,316.483c-0.97,1.989-2.403,2.015-3.713,1.618c-1.618-0.491-2.322-1.852-2.094-3.529
		c0.208-1.525,0.963-2.691,2.664-2.861c1.563-0.154,2.573,0.601,3.091,2.055c0.361,1.012,0.01,1.489-1.072,1.457
		c-0.783-0.023-1.569-0.04-2.35,0.01c-0.442,0.028-1.145-0.295-1.253,0.385c-0.088,0.556,0.354,1.038,0.847,1.382
		C173.147,317.868,174.273,317.026,175.783,316.483z M174.895,314.243c-0.396-1.298-1.099-1.731-2.152-1.653
		c-0.975,0.072-1.576,0.548-1.667,1.653C172.3,314.243,173.49,314.243,174.895,314.243z"/>
	<path fill="#37251B" d="M265.264,301.237c-0.645,1.757-2.056,1.774-3.397,1.373c-1.441-0.431-2.134-1.65-2.078-3.146
		c0.057-1.544,0.729-2.802,2.334-3.185c1.38-0.329,2.562,0.166,3.231,1.469c0.589,1.146,0.679,2.115-1.118,1.998
		c-0.638-0.041-1.288-0.06-1.92,0.012c-0.5,0.056-1.321-0.378-1.418,0.432c-0.074,0.621,0.461,1.198,1.08,1.472
		C263.132,302.175,264.188,301.796,265.264,301.237z M264.746,298.775c-0.406-1.317-1.118-1.743-2.169-1.659
		c-0.975,0.078-1.573,0.559-1.653,1.659C262.149,298.775,263.344,298.775,264.746,298.775z"/>
	<path fill="#37251B" d="M233.9,301.289c-0.674,1.697-2.086,1.739-3.427,1.313c-1.523-0.484-2.193-1.773-2.051-3.364
		c0.129-1.458,0.817-2.622,2.33-2.962c1.386-0.313,2.559,0.181,3.227,1.484c0.598,1.165,0.637,2.109-1.139,1.987
		c-0.638-0.044-1.288-0.063-1.92,0.012c-0.494,0.059-1.318-0.394-1.402,0.442c-0.063,0.627,0.478,1.175,1.089,1.471
		C231.781,302.239,232.798,301.644,233.9,301.289z M229.522,298.722c1.266,0,2.473,0,3.811,0c-0.295-1.087-0.856-1.593-1.848-1.61
		C230.431,297.094,229.718,297.496,229.522,298.722z"/>
	<path fill="#37251B" d="M186.382,301.267c-1.228,1.797-3.222,1.997-4.576,0.625c-1.254-1.271-1.126-3.878,0.247-5.041
		c1.226-1.037,3.237-0.809,4.193,0.5c0.436,0.595,0.763,1.295,0.438,2.005c-0.299,0.654-1.014,0.334-1.551,0.375
		c-0.57,0.042-1.157-0.062-1.715,0.031c-0.48,0.08-1.295-0.447-1.385,0.447c-0.067,0.677,0.486,1.165,1.094,1.47
		C184.278,302.258,185.283,301.61,186.382,301.267z M185.799,298.817c-0.36-1.503-1.239-1.813-2.408-1.636
		c-0.7,0.104-1.301,0.605-1.272,1.205c0.04,0.841,0.876,0.351,1.345,0.406C184.193,298.882,184.943,298.817,185.799,298.817z"/>
	<path fill="#37251B" d="M311.54,299.569c-0.033,1.937-1.314,3.217-3.206,3.208c-1.87-0.009-3.166-1.33-3.182-3.245
		c-0.017-2.001,1.357-3.373,3.328-3.322C310.324,296.258,311.573,297.63,311.54,299.569z M310.575,299.456
		c-0.116-1.361-0.691-2.339-2.207-2.335c-1.63,0.004-2.269,1.034-2.221,2.514c0.046,1.412,0.796,2.286,2.28,2.243
		C309.941,301.834,310.485,300.833,310.575,299.456z"/>
	<path fill="#37251B" d="M236.126,293.68c1.245,0.217,0.676,1.205,0.731,1.862c0.09,1.054,0.024,2.119,0.024,3.343
		c1.646-0.449,2.281-2.201,3.759-2.571c0.354,0.468,0.198,0.786-0.138,0.974c-2.335,1.308-1.813,2.629-0.081,4.026
		c0.352,0.285,0.824,0.657,0.322,1.367c-0.991-0.283-1.407-1.27-2.128-1.872c-0.359-0.3-0.595-0.898-1.2-0.688
		c-0.592,0.206-0.504,0.776-0.536,1.269c-0.036,0.539,0.126,1.199-0.712,1.305C235.765,299.691,235.841,296.686,236.126,293.68z"/>
	<path fill="#37251B" d="M157.044,316.492c0.957,0.18,1.552,1.146,2.535,0.98c0.5-0.083,1.063-0.165,1.192-0.737
		c0.131-0.57-0.254-0.915-0.774-1.1c-0.27-0.097-0.526-0.231-0.801-0.303c-1.013-0.263-1.973-0.632-2.045-1.854
		c-0.046-0.783,0.452-1.438,1.171-1.627c1.178-0.313,2.398-0.417,3.236,1.007c-0.887,0.494-1.454-0.475-2.192-0.336
		c-0.509,0.095-1.061,0.103-1.207,0.679c-0.146,0.575,0.239,0.916,0.761,1.103c0.269,0.096,0.526,0.23,0.802,0.296
		c1.118,0.265,2.135,0.685,1.965,2.075c-0.116,0.954-0.83,1.431-1.785,1.561C158.338,318.448,157.653,318.068,157.044,316.492z"/>
	<path fill="#37251B" d="M193.839,300.904c1.257,0.319,1.791,1.211,2.713,1.093c0.557-0.07,1.21-0.062,1.314-0.814
		c0.082-0.603-0.313-0.896-0.846-1.056c-0.341-0.102-0.667-0.256-1.009-0.354c-1.162-0.332-2.022-0.954-1.618-2.292
		c0.39-1.286,1.522-1.352,2.643-1.24c0.745,0.075,1.355,0.373,1.577,1.198c-0.796,0.441-1.283-0.497-2.004-0.388
		c-0.566,0.086-1.215,0.004-1.324,0.762c-0.086,0.591,0.312,0.901,0.854,1.048c0.206,0.056,0.396,0.169,0.601,0.228
		c1.058,0.295,2.146,0.566,2.054,2.015c-0.06,0.915-0.649,1.476-1.478,1.594C195.982,302.889,194.636,302.897,193.839,300.904z"/>
	<path fill="#37251B" d="M275.112,301.441c-1.482,1.628-3.377,1.76-4.604,0.545c-1.248-1.234-1.266-3.604-0.037-4.872
		c1.241-1.28,3.07-1.229,4.57,0.308c-1.453-0.022-2.896-0.868-3.97,0.473c-0.481,0.602-0.604,1.291-0.504,2.021
		C270.808,301.676,272,302.124,275.112,301.441z"/>
	<path fill="#37251B" d="M166.795,310.047c0.302,1.406,1.289,1.754,2.288,2.18c-1.917,0.922-2.354,3.89-0.908,5.05
		c0.201,0.161,0.581,0.182,0.429,0.51c-0.091,0.198-0.424,0.389-0.657,0.398c-1.098,0.05-1.335-0.659-1.55-1.604
		c-0.309-1.362,1.014-3.087-0.983-4.182C165.136,312.247,167.141,311.572,166.795,310.047z"/>
	<path fill="#37251B" d="M225.349,294.271c0.432,1.372,0.79,2.307,2.158,2.504c-2.606,0.166-1.969,1.922-2.087,3.338
		c-0.107,1.293,0.479,1.842,1.75,2.001c-1.171,0.841-2.048,0.801-2.276-0.755c-0.154-1.05,0.393-2.505-0.14-3.138
		C223.425,296.636,224.81,295.869,225.349,294.271z"/>
	<path fill="#37251B" d="M219.856,302.615c-0.751-1.827-0.423-3.717-0.479-5.578c-0.013-0.393,0.236-0.769,0.651-0.531
		c0.334,0.189,0.818,0.769,0.739,0.93C219.955,299.08,220.648,300.94,219.856,302.615z"/>
	<path fill="#37251B" d="M163.705,311.817c0.616,2.095,0.645,4.195,0.023,6.299C162.951,316.033,163.081,313.93,163.705,311.817z"/>
	<path fill="#37251B" d="M192.142,296.349c0.628,2.068,0.58,4.154,0.088,6.25C191.434,300.542,191.684,298.449,192.142,296.349z"/>
	<path fill="#37251B" d="M267.903,293.731c0,2.957,0,5.915,0,8.872c-0.184-0.001-0.366-0.002-0.551-0.003
		c-0.397-2.946-0.286-5.896-0.076-8.848C267.485,293.744,267.694,293.739,267.903,293.731z"/>
	<path fill="#E7B49D" d="M236.126,293.68c-0.285,3.006-0.361,6.011,0.042,9.013c-0.879-0.411-0.6-1.233-0.536-1.856
		C235.874,298.454,234.948,295.991,236.126,293.68z"/>
	<path fill="#E7B49D" d="M540.881,314.714c1.16,8.822,3.771,17.162,8.564,24.704c4.344,6.837,9.549,13.026,14.848,19.139
		c10.168,11.725,21.615,22.003,34.148,31.168c7.801,5.702,16.189,7.427,25.508,5.689c0.695-0.13,1.42-0.1,2.131-0.145
		c0.285,2.416-1.637,3.863-2.621,5.68c-1.799,3.321-3.959,6.447-5.928,9.679c-0.441,0.723-0.955,1.477-0.879,2.384
		c0.127,1.508-0.443,2.606-1.695,3.448c-0.383,0.258-0.811,0.77-0.836,1.188c-0.168,2.664-2.328,3.8-3.994,5.259
		c-2.543,2.228-6.617,1.172-8.65-2.078c-1.625-2.591-3.096-5.312-5.695-7.132c-5.02-3.513-10.209-6.756-15.514-9.813
		c-1.885-1.087-4.027-1.814-5.246-3.778c-0.803-1.291-2.32-0.956-3.375-1.664c-6.193-4.15-12.773-7.674-18.951-11.865
		c-4.633-3.146-8.781-6.858-12.629-10.807c-3.563-3.653-6.285-8.108-9.496-12.118c-2.947-3.682-4.848-8.053-7.813-11.689
		c-2.453-3.008-4.049-6.723-7.387-9.013c-0.387-0.266-0.635-0.773-0.873-1.211c-1.016-1.875-0.762-2.267,1.211-2.767
		c4.391-1.114,8.928-1.677,12.898-4.237c3.615-2.332,6.32-5.353,7.977-9.243c1.299-3.053,3.145-5.93,3.422-9.363
		C540.297,315.656,540.588,315.185,540.881,314.714z"/>
	<path fill="#896CB7" d="M775.636,466.617c0.229,0.058,0.574,0.046,0.658,0.188c0.15,0.254-0.105,0.435-0.352,0.538
		C775.84,467.103,775.74,466.861,775.636,466.617z"/>
	<path fill="#D1DEEA" d="M355.616,301.876c0.12-0.913,0.395-1.768,1.08-2.722c0.396,0.851,0.841,1.497,0.756,2.356
		C356.84,301.633,356.229,301.755,355.616,301.876z"/>
	<path fill="#FDFDFD" d="M359.946,300.071c0.043-0.228-0.027-0.564,0.403-0.419C360.364,299.933,360.183,300.029,359.946,300.071z"
		/>
	<path fill="#E7B49D" d="M679.818,344.459c-1.77,0.594-2.215,2.345-2.953,3.697c-1.332,2.438-2.936,4.513-5.207,6.151
		c-2.236,1.612-3.787,3.887-5.182,6.239c-2.01,3.396-4.18,6.668-6.779,9.651c-1.438,1.648-3.057,2.599-5.367,2.604
		c-4.723,0.013-9.107,1.69-13.502,3.199c-3.572,1.227-7.18,1.794-10.967,1.216c-4.09-0.626-7.473-2.481-10.055-5.646
		c-3.008-3.692-6.738-4.813-11.289-3.749c-2.041,0.478-4.146,0.501-6.188,0.076c-3.926-0.814-5.832-3.642-6.727-7.278
		c-0.545-2.22-0.83-4.504-1.389-6.72c-1.061-4.196-4.297-5.532-8.029-3.406c-2.678,1.523-3.781,1.121-5.205-1.688
		c-1.67-3.297-1.926-6.867-2.156-10.436c-0.506-7.785-3.795-14.078-9.719-19.141c-2.66-2.273-5.107-4.815-7.518-7.362
		c-4.275-4.518-5.354-10.251-6.063-16.167c-1.119-9.306-2.492-18.581-3.615-27.886c-0.771-6.399-1.318-12.839-0.227-19.259
		c0.535-3.145,2.098-5.885,4.787-7.623c5.367-3.464,6.932-8.369,5.721-14.313c-1.857-9.103-0.152-17.271,5.609-24.663
		c6.398-8.206,10.537-17.462,12.328-27.762c0.854-4.905,3.736-8.77,6.971-12.37c3.256-3.623,6.607-7.157,9.854-10.79
		c1.141-1.276,1.953-1.249,3.111,0.021c5.453,5.98,10.881,11.995,17.557,16.703c3.174,2.238,6.607,3.997,10.104,5.644
		c1.699,0.801,3.369,0.923,5.064-0.257c2.037-1.418,4.498-1.635,6.572-0.552c5.67,2.959,11.971,3.789,17.932,5.736
		c8.857,2.896,17.5,6.281,25.693,10.733c1.852,1.005,3.654,0.842,5.596,0.621c4.41-0.502,8.844-0.838,12.99-2.605
		c1.379-0.587,2.703-1.302,4.057-1.948c2.369-1.133,3.701-0.794,5.051,1.464c2.338,3.911,2.953,8.315,3.49,12.73
		c0.164,1.352,0.295,2.705,0.461,4.056c0.055,0.417,0.225,0.454,0.398,0.044c0.057-0.132,0.08-0.275,0.119-0.414
		c0.074,0.121,0.209,0.243,0.209,0.364c0.043,9.011,1.371,18.229-2.42,26.777c-2.494,5.622-2.375,10.973-0.584,16.577
		c0.408,1.285,0.639,2.631,0.521,4.003c-2.535-0.423-4.932,0.023-7.344,0.894c-3.068,1.108-6.309,1.213-9.543,1.086
		c-4.008-0.157-8.014-0.38-12.021-0.52c-2.223-0.077-2.826,0.83-2.08,2.949c0.961,2.728,2.988,3.863,6.891,3.982
		c8.348,0.259,16.371-1.267,24.127-4.302c0.773,2.801-0.188,5.306-1.861,7.348c-3.586,4.375-4.961,9.354-5.057,14.885
		c-0.094,5.341,0.469,10.694-0.643,16.021c-1.375,6.604-4.352,12.367-8.656,17.468c-5.65,6.691-9.818,14.188-12.605,22.479
		C682.787,336.881,681.502,340.745,679.818,344.459z M696.127,270.873l0.047,0.078l-0.031-0.054
		c-3.75-6.09-9.045-9.062-16.238-7.607c-3.918,0.791-7.121,2.913-9.559,6.647c1.732-0.099,2.744-0.993,3.934-1.383
		c0.537-0.176,1.104-0.563,1.598-0.104c0.426,0.397,0.068,0.944-0.068,1.393c-0.553,1.82,0.021,3.125,1.809,3.747
		c1.502,0.522,3.09,0.619,4.633,0.159c1.42-0.424,2.096-1.192,0.895-2.598c-1.234-1.446-2.432-2.925-3.793-4.568
		c4.494-0.847,8.379,0.302,12.111,2.227C692.978,269.592,694.406,270.559,696.127,270.873z M595.828,346.437
		c1.924,0.549,3.389-0.279,4.857-0.971c7.775-3.649,15.938-5.481,24.535-5.229c4.52,0.132,8.979,0.416,12.975,3.036
		c1.939,1.271,4.355,1.296,6.426,0.367c3.313-1.488,6.254-0.968,9.137,0.899c1.775,1.149,3.699,1.494,5.752,1.124
		c4.031-0.727,8.047-1.126,12.406,0.706c-2.809-4.756-5.504-8.849-11.078-9.518c-3.064-0.368-4.615-2.062-5.25-5.043
		c-0.629-2.957-1.646-3.558-4.605-2.916c-2.57,0.557-5.084,0.688-7.621-0.036c-3.979-1.136-7.986-2.183-11.924-3.45
		c-2.057-0.661-3.785-0.175-5.127,1.19c-3.346,3.401-7.564,4.48-12.055,4.897c-3.049,0.284-5.938,1.025-8.496,2.707
		C601.185,337.207,597.529,340.985,595.828,346.437z M612.47,232.194c-5.408,0.095-10.586,0.78-15.75,1.566
		c-1.48,0.226-2.957,0.517-4.408,0.888c-0.869,0.224-1.57,0.828-1.572,1.811c-0.002,1.148,1.051,1.054,1.752,1.159
		c1.834,0.275,3.668,0.49,5.553,0.352c3.137-0.232,6.287-0.537,9.434-0.172c4.973,0.576,9.77,1.625,14.293,4.007
		c3.826,2.014,7.113,4.851,10.943,6.771c2.521,1.262,5.127,2.55,8.074,2.631c2.262,0.063,3.346-1.426,4.055-3.231
		c0.688-1.746-0.986-2.24-1.941-2.863c-4.137-2.691-8.479-5.076-12.521-7.896C624.892,233.382,618.779,232.242,612.47,232.194z
		 M634.281,372.28c5.979,0.678,10.518-2.645,14.188-5.497c1.111-0.863,0.625-1.575-0.375-2.114
		c-1.629-0.879-3.398-1.137-5.197-0.901c-4.43,0.576-8.854,0.323-13.279,0.086c-3.141-0.168-6.275-0.396-9.414-0.564
		c-0.627-0.034-1.355-0.062-1.639,0.7c-0.244,0.653,0.258,1.038,0.656,1.452C623.4,369.776,628.177,372.772,634.281,372.28z
		 M623.328,263.823c-0.41-6.612-7.363-12.267-13.832-11.193c-3.064,0.508-6.098,0.556-9.174,0.447
		c-2.506-0.088-4.529,1.106-6.244,2.84c-0.396,0.401-0.736,0.929-0.465,1.55c0.318,0.723,1.006,0.428,1.512,0.396
		c0.906-0.053,1.801-0.269,2.703-0.409c1.68-0.261,2.486,0.071,2.139,2.135c-0.449,2.686,0.449,3.846,3.309,5.284
		c1.768,0.89,4.523,0.539,5.99-0.764c1.83-1.623,1.594-2.974-0.682-3.908c-0.461-0.188-0.971-0.317-1.361-0.604
		c-0.527-0.39-0.787-0.796,0.117-1.202c4.377-1.969,10.707-0.457,13.637,3.339C621.59,262.529,622.15,263.35,623.328,263.823z"/>
	<path fill="#37251B" d="M712.906,254.825c-7.756,3.035-15.779,4.561-24.127,4.302c-3.9-0.12-5.932-1.256-6.891-3.982
		c-0.746-2.119-0.143-3.026,2.08-2.949c4.008,0.14,8.016,0.362,12.021,0.52c3.234,0.126,6.475,0.021,9.543-1.086
		c2.412-0.87,4.809-1.315,7.344-0.894C714.25,252.089,714.705,253.449,712.906,254.825z"/>
	<path fill="#F1F2F2" d="M618.219,89.456c3.793-5.267,8.627-8.955,14.641-10.039c4.533-0.817,8.854,1.147,11.941,4.961
		c0.539,0.667,1.018,1.39,1.598,2.017c0.527,0.57,1.258,0.983,0.768,1.957c-0.496,0.979-1.34,0.997-2.203,0.803
		c-2.275-0.51-4.746-0.699-5.131-3.864c-0.189-1.559-1.439-1.039-2.365-0.729c-4.742,1.579-9.479,3.172-14.363,4.271
		C621.592,89.17,620.08,89.526,618.219,89.456z"/>
	<path fill="#FDFDFD" d="M542.572,219.702c-0.109-0.148-0.221-0.298-0.33-0.445C542.691,219.156,542.568,219.475,542.572,219.702z"
		/>
	<path fill="#E7B49D" d="M302.809,272.218c0.024-3.542,2.209-6.091,5.243-6.116c3.104-0.027,5.403,2.639,5.377,6.234
		c-0.023,3.468-2.293,6.121-5.264,6.159C305.127,278.534,302.784,275.786,302.809,272.218z"/>
	<path fill="#D1DEEA" d="M166.875,269.919c-0.998,0-1.999,0.045-2.992-0.018c-0.515-0.032-1.307,0.362-1.482-0.331
		c-0.108-0.43,0.291-1.064,0.602-1.512c1.942-2.798,6.79-2.501,8.309,0.469c0.48,0.94,0.456,1.456-0.801,1.403
		C169.299,269.88,168.086,269.919,166.875,269.919z"/>
	<path fill="#E7B49D" d="M208.985,272.262c0.02,3.478-2.331,6.146-5.473,6.212c-3.215,0.067-5.719-2.635-5.728-6.185
		c-0.01-3.59,2.425-6.233,5.696-6.186C206.666,266.151,208.965,268.724,208.985,272.262z"/>
	<path fill="#E7B49D" d="M271.531,272.283c0.021,3.451-2.368,6.144-5.496,6.191c-3.202,0.049-5.733-2.693-5.735-6.214
		c-0.002-3.443,2.389-6.094,5.548-6.15C269.127,266.051,271.507,268.635,271.531,272.283z"/>
	<path fill="#D1DEEA" d="M206.614,301.827c-0.937,0.066-1.777,0.172-1.8-1.411c-0.021-1.576,0.678-1.748,1.896-1.643
		c1.068,0.093,2.521-0.339,2.562,1.368C209.312,301.836,207.959,301.871,206.614,301.827z"/>
	<path fill="#D1DEEA" d="M206.554,295.025c1.258-0.093,2.372-0.005,2.282,1.398c-0.096,1.495-1.386,1.317-2.452,1.389
		c-1.037,0.069-1.506-0.196-1.553-1.396C204.767,294.793,205.689,294.908,206.554,295.025z"/>
	<path fill="#FDFDFD" d="M150.65,315.093c0.194-1.444,0.664-2.508,2.222-2.479c1.427,0.026,2.007,0.969,2.019,2.25
		c0.012,1.331-0.47,2.424-2.022,2.475C151.282,317.389,150.908,316.226,150.65,315.093z"/>
	<path fill="#FDFDFD" d="M212.421,299.718c0.047-1.55,0.54-2.582,2.082-2.578c1.55,0.003,2.081,1.105,2.062,2.42
		c-0.019,1.219-0.55,2.251-1.979,2.3C213.03,301.912,212.543,300.876,212.421,299.718z"/>
	<path fill="#FDFDFD" d="M167.267,299.494c-0.177,1.315-0.648,2.411-2.19,2.361c-1.522-0.049-2.035-1.092-2.005-2.468
		c0.03-1.303,0.599-2.215,2.006-2.248C166.633,297.105,167.088,298.186,167.267,299.494z"/>
	<path fill="#D1DEEA" d="M295.817,298.75c0.263-1.354,1.025-1.686,2.037-1.62c0.949,0.061,1.563,0.51,1.635,1.62
		C298.282,298.75,297.114,298.75,295.817,298.75z"/>
	<path fill="#D1DEEA" d="M281.396,299.56c-0.128,1.418-0.749,2.36-2.255,2.32c-1.478-0.04-2.166-0.968-2.166-2.369
		c0.001-1.52,0.769-2.451,2.353-2.389C280.848,297.183,281.353,298.22,281.396,299.56z"/>
	<path fill="#D1DEEA" d="M350.459,299.41c-0.129,1.335-0.628,2.372-2.135,2.468c-1.512,0.098-2.283-0.843-2.36-2.188
		c-0.082-1.421,0.551-2.54,2.187-2.576C349.654,297.082,350.255,298.064,350.459,299.41z"/>
	<path fill="#D1DEEA" d="M147.359,314.259c-1.491,0-2.623,0-3.791,0c0.092-1.21,0.778-1.652,1.841-1.671
		C146.499,312.569,147.082,313.118,147.359,314.259z"/>
	<path fill="#D1DEEA" d="M174.895,314.243c-1.405,0-2.595,0-3.819,0c0.091-1.105,0.692-1.581,1.667-1.653
		C173.796,312.512,174.5,312.946,174.895,314.243z"/>
	<path fill="#D1DEEA" d="M264.746,298.775c-1.402,0-2.597,0-3.823,0c0.08-1.101,0.68-1.582,1.653-1.659
		C263.628,297.031,264.34,297.457,264.746,298.775z"/>
	<path fill="#D1DEEA" d="M229.522,298.722c0.197-1.226,0.909-1.628,1.963-1.61c0.991,0.018,1.552,0.523,1.848,1.61
		C231.994,298.722,230.787,298.722,229.522,298.722z"/>
	<path fill="#FDFDFD" d="M185.799,298.817c-0.856,0-1.605,0.065-2.336-0.024c-0.469-0.057-1.305,0.435-1.345-0.406
		c-0.028-0.6,0.572-1.101,1.272-1.205C184.56,297.003,185.439,297.314,185.799,298.817z"/>
	<path fill="#D1DEEA" d="M310.575,299.456c-0.091,1.377-0.635,2.377-2.146,2.421c-1.484,0.042-2.234-0.832-2.28-2.243
		c-0.048-1.479,0.592-2.51,2.221-2.514C309.884,297.117,310.459,298.095,310.575,299.456z"/>
	<path fill="#37251B" d="M595.828,346.437c1.701-5.452,5.357-9.229,9.932-12.233c2.561-1.682,5.447-2.423,8.496-2.707
		c4.49-0.417,8.709-1.496,12.055-4.897c1.342-1.365,3.07-1.852,5.125-1.19c3.939,1.268,7.945,2.314,11.926,3.45
		c2.535,0.724,5.051,0.592,7.621,0.036c2.957-0.641,3.979-0.041,4.605,2.916c0.635,2.982,2.184,4.675,5.25,5.043
		c5.574,0.669,8.27,4.762,11.078,9.518c-4.359-1.832-8.375-1.433-12.406-0.706c-2.053,0.37-3.977,0.025-5.752-1.124
		c-2.883-1.867-5.822-2.389-9.137-0.899c-2.07,0.929-4.484,0.903-6.426-0.367c-3.996-2.62-8.455-2.904-12.975-3.036
		c-8.598-0.252-16.76,1.58-24.535,5.229C599.215,346.157,597.752,346.986,595.828,346.437z"/>
	<path fill="#37251B" d="M612.47,232.194c6.309,0.049,12.422,1.188,17.91,5.021c4.041,2.82,8.385,5.204,12.521,7.896
		c0.955,0.623,2.627,1.117,1.941,2.863c-0.709,1.806-1.795,3.294-4.055,3.231c-2.949-0.081-5.555-1.369-8.074-2.631
		c-3.832-1.919-7.117-4.756-10.943-6.771c-4.523-2.383-9.32-3.431-14.293-4.008c-3.146-0.364-6.299-0.06-9.436,0.173
		c-1.885,0.14-3.719-0.075-5.553-0.352c-0.699-0.104-1.752-0.011-1.75-1.159c0.002-0.982,0.703-1.587,1.572-1.811
		c1.449-0.372,2.928-0.663,4.408-0.888C601.885,232.973,607.062,232.288,612.47,232.194z"/>
	<path fill="#37251B" d="M634.281,372.28c-6.104,0.492-10.881-2.504-15.061-6.84c-0.398-0.414-0.9-0.799-0.658-1.452
		c0.283-0.762,1.012-0.734,1.641-0.7c3.139,0.169,6.273,0.396,9.414,0.564c4.426,0.237,8.85,0.49,13.277-0.086
		c1.799-0.234,3.568,0.022,5.199,0.901c1,0.539,1.484,1.251,0.375,2.114C644.799,369.635,640.26,372.956,634.281,372.28z"/>
	<path fill="#37251B" d="M623.328,263.823c-1.178-0.474-1.738-1.294-2.352-2.089c-2.932-3.796-9.26-5.308-13.639-3.339
		c-0.902,0.406-0.645,0.813-0.115,1.202c0.391,0.287,0.9,0.416,1.361,0.604c2.273,0.935,2.512,2.285,0.682,3.908
		c-1.467,1.302-4.225,1.653-5.992,0.764c-2.857-1.438-3.758-2.599-3.307-5.284c0.346-2.063-0.461-2.396-2.141-2.135
		c-0.9,0.141-1.797,0.355-2.703,0.409c-0.504,0.03-1.191,0.326-1.51-0.396c-0.271-0.621,0.066-1.148,0.465-1.55
		c1.715-1.733,3.738-2.928,6.244-2.84c3.076,0.108,6.109,0.062,9.172-0.447C615.965,251.556,622.918,257.211,623.328,263.823z
		 M602.894,260.757c-0.322-0.391,0.414-1.523-0.912-1.362c-0.746,0.091-1.281,0.445-1.338,1.36c-0.063,1.077,0.609,1.38,1.412,1.463
		C603.158,262.331,602.709,261.403,602.894,260.757z"/>
	<path fill="#37251B" d="M696.127,270.873c-1.721-0.314-3.146-1.281-4.664-2.063c-3.732-1.925-7.619-3.073-12.111-2.227
		c1.359,1.644,2.559,3.122,3.793,4.568c1.199,1.405,0.523,2.174-0.896,2.598c-1.543,0.46-3.129,0.363-4.633-0.159
		c-1.785-0.622-2.359-1.927-1.807-3.747c0.137-0.448,0.492-0.995,0.066-1.393c-0.494-0.46-1.061-0.072-1.598,0.104
		c-1.188,0.391-2.199,1.285-3.932,1.383c2.438-3.734,5.641-5.856,9.557-6.647c7.195-1.452,12.49,1.519,16.24,7.607L696.127,270.873z
		"/>
	<polygon fill="#37251B" points="696.142,270.898 696.172,270.951 696.127,270.873 	"/>
	<path fill="#E7B49D" d="M602.894,260.757c-0.186,0.646,0.264,1.574-0.838,1.461c-0.803-0.083-1.477-0.386-1.412-1.463
		c0.057-0.915,0.592-1.27,1.338-1.36C603.308,259.234,602.572,260.367,602.894,260.757z"/>
</g>
</svg>
