<?xml version="1.0" encoding="utf-8"?>
<!-- Generator: Adobe Illustrator 16.0.0, SVG Export Plug-In . SVG Version: 6.00 Build 0)  -->
<!DOCTYPE svg PUBLIC "-//W3C//DTD SVG 1.1//EN" "http://www.w3.org/Graphics/SVG/1.1/DTD/svg11.dtd">
<svg version="1.1" id="Layer_1" xmlns="http://www.w3.org/2000/svg" xmlns:xlink="http://www.w3.org/1999/xlink" x="0px" y="0px"
	 width="841.891px" height="595.279px" viewBox="0 0 841.891 595.279" enable-background="new 0 0 841.891 595.279"
	 xml:space="preserve">
<g>
	<path fill="#F1F2F2" d="M28.161,403c-47.538-100.763,850.479-554.349,769.854-248.885
		C771.555,285.351,303.472,339.129,285.365,352.75c-20.126,15.144-38.788,31.949-56.71,49.616
		c-7.042,6.941-14.429,13.494-22.563,19.172c-10.844,7.567-22.356,13.807-34.901,18.081c-8.826,3.01-17.894,4.829-27.166,5.685
		c-9.39,0.861-18.763,1.096-28.146-0.261c-12.332-1.779-24.404-4.563-36.036-9.057c-8.83-3.41-17.49-7.202-25.808-11.77
		C43.364,418.359,28.323,403.345,28.161,403z M152.902,268.23c0,3.365,0.017,6.729-0.007,10.097
		c-0.009,1.337,0.229,2.561,1.833,2.614c1.688,0.059,2.134-1.178,2.152-2.602c0.029-2.219,0.038-4.438-0.006-6.656
		c-0.021-0.979,0.043-1.565,1.333-1.521c3.076,0.107,6.156,0.092,9.232,0.006c1.207-0.032,1.417,0.436,1.39,1.495
		c-0.068,2.361-0.004,4.729-0.027,7.088c-0.013,1.271,0.514,2.135,1.808,2.197c1.448,0.071,2.034-0.902,2.038-2.208
		c0.021-6.874,0.019-13.749,0.001-20.623c-0.002-1.207-0.493-2.169-1.835-2.187c-1.397-0.021-2.021,0.833-2.01,2.218
		c0.021,2.291-0.032,4.583,0.023,6.874c0.021,0.975-0.207,1.417-1.292,1.396c-3.149-0.059-6.304-0.051-9.451-0.002
		c-0.938,0.018-1.237-0.28-1.212-1.215c0.057-2.218,0.042-4.438,0.009-6.659c-0.021-1.406-0.425-2.675-2.141-2.595
		c-1.578,0.073-1.857,1.261-1.849,2.614C152.922,261.784,152.902,265.006,152.902,268.23z M186.309,272.485
		c1.646,0,3.29-0.023,4.937,0.006c1.76,0.031,2.398-0.82,2.308-2.537c-0.229-4.264-3.68-7.841-7.941-8.13
		c-4.751-0.322-8.887,3.188-9.458,8.021c-0.672,5.698,2.282,10.23,7.221,11.222c3.427,0.687,6.352-0.123,8.832-2.582
		c0.761-0.754,1.046-1.591,0.271-2.451c-0.747-0.832-1.645-0.714-2.497-0.1c-0.346,0.25-0.641,0.571-0.993,0.813
		c-2.93,2.003-7.076,0.896-8.573-2.259c-0.619-1.302-0.745-2.161,1.181-2.027C183.158,272.573,184.736,272.486,186.309,272.485z
		 M221.509,261.816c-5.343-0.166-9.531,3.967-9.663,9.537c-0.128,5.434,3.984,9.86,9.3,10.016c5.124,0.147,9.257-3.987,9.526-9.53
		C230.938,266.377,226.921,261.984,221.509,261.816z M196.752,267.712c0,3.513,0.007,7.021-0.004,10.53
		c-0.005,1.403,0.208,2.736,1.97,2.696c1.589-0.037,1.877-1.308,1.879-2.61c0.009-7.092,0.013-14.184-0.005-21.273
		c-0.003-1.313-0.32-2.54-1.987-2.465c-1.604,0.074-1.868,1.25-1.857,2.596C196.764,260.694,196.752,264.203,196.752,267.712z
		 M208.957,267.671c0-3.582-0.001-7.164,0.001-10.746c0-1.278-0.357-2.317-1.865-2.346c-1.521-0.024-1.959,1.063-1.965,2.297
		c-0.033,7.235-0.032,14.474-0.002,21.707c0.005,1.217,0.393,2.396,1.89,2.367c1.56-0.03,1.958-1.146,1.949-2.533
		C208.941,274.835,208.957,271.253,208.957,267.671z"/>
	<path fill="#D1DEEA" d="M23.566,405.713"/>
	<g>
		<path fill="#896CB7" d="M378.111,298.927c0.037-0.002,0.074-0.004,0.111-0.006c0-0.007,0.001-0.01,0.001-0.014L378.111,298.927z"
			/>
		<path fill="#C4C4C4" d="M803.142,317.586c31.978-78.919-19.967-233.807-64.847-220.264
			c-3.847,1.686-122.12,121.638-366.059,204.601C59.567,408.26,244.992,543.759,354.602,531.109
			C706.176,490.536,771.555,395.536,803.142,317.586z"/>
	</g>
	<path fill="#37251B" d="M161.136,315.927c-5.895-0.232-9.271-2.591-10.492-7.325c-1.45-5.623,2.746-11.605,8.559-11.664
		c14.32-0.146,28.646-0.134,42.973-0.009c5.709,0.051,9.909,5.772,8.729,11.411c-0.102,0.487-0.215,0.976-0.32,1.462
		c-2.23,4.445-5.813,6.204-10.787,6.145C186.91,315.787,174.022,315.913,161.136,315.927z"/>
	<path fill="#37251B" d="M152.902,268.23c0-3.226,0.021-6.445-0.009-9.667c-0.012-1.354,0.271-2.541,1.851-2.614
		c1.714-0.08,2.115,1.188,2.139,2.595c0.032,2.221,0.048,4.44-0.009,6.659c-0.024,0.936,0.274,1.23,1.212,1.215
		c3.147-0.049,6.302-0.057,9.451,0.002c1.085,0.021,1.313-0.423,1.292-1.396c-0.058-2.29-0.001-4.583-0.023-6.874
		c-0.013-1.385,0.61-2.236,2.01-2.218c1.343,0.018,1.833,0.979,1.835,2.187c0.018,6.874,0.021,13.749-0.001,20.623
		c-0.004,1.307-0.59,2.28-2.038,2.208c-1.294-0.063-1.817-0.929-1.808-2.197c0.023-2.359-0.041-4.727,0.027-7.088
		c0.028-1.062-0.183-1.526-1.39-1.495c-3.077,0.085-6.16,0.104-9.232-0.006c-1.29-0.045-1.354,0.545-1.333,1.521
		c0.043,2.219,0.035,4.438,0.006,6.656c-0.021,1.422-0.464,2.657-2.152,2.602c-1.604-0.056-1.842-1.277-1.833-2.614
		C152.918,274.96,152.902,271.596,152.902,268.23z"/>
	<path fill="#D1DEEA" d="M161.136,315.927c12.886-0.016,25.773-0.142,38.657,0.02c4.977,0.063,8.556-1.695,10.787-6.145
		c1.369,3.153,0.107,6.577-2.873,8.354c-3.366,3.712-26.48,2.506-34.785,2.354c-3.695-0.067-7.415-0.52-10.515-2.961
		C161.837,317.099,161.226,316.732,161.136,315.927z"/>
	<path fill="#37251B" d="M186.309,272.485c-1.573,0-3.149,0.087-4.717-0.022c-1.925-0.134-1.799,0.728-1.181,2.027
		c1.497,3.152,5.646,4.263,8.573,2.259c0.354-0.24,0.646-0.563,0.993-0.813c0.854-0.615,1.75-0.732,2.497,0.1
		c0.771,0.859,0.486,1.697-0.271,2.451c-2.48,2.459-5.405,3.269-8.832,2.582c-4.938-0.989-7.893-5.521-7.221-11.221
		c0.57-4.836,4.706-8.347,9.458-8.022c4.264,0.289,7.711,3.866,7.941,8.13c0.093,1.717-0.548,2.568-2.308,2.537
		C189.599,272.461,187.955,272.485,186.309,272.485z M184.751,269.177c1.212,0,2.425-0.039,3.634,0.012
		c1.257,0.053,1.281-0.463,0.801-1.403c-1.519-2.97-6.365-3.267-8.309-0.469c-0.313,0.447-0.71,1.083-0.604,1.512
		c0.179,0.693,0.97,0.299,1.482,0.331C182.752,269.222,183.753,269.177,184.751,269.177z"/>
	<path fill="#37251B" d="M221.509,261.816c5.412,0.168,9.43,4.562,9.164,10.021c-0.271,5.543-4.402,9.681-9.526,9.53
		c-5.313-0.153-9.428-4.582-9.3-10.016C211.978,265.782,216.166,261.65,221.509,261.816z M226.86,271.52
		c-0.02-3.538-2.317-6.111-5.503-6.157c-3.271-0.048-5.706,2.596-5.694,6.186c0.009,3.551,2.513,6.252,5.728,6.187
		C224.529,277.665,226.88,274.997,226.86,271.52z"/>
	<path fill="#37251B" d="M196.752,267.712c0-3.509,0.013-7.02-0.006-10.527c-0.011-1.346,0.254-2.521,1.857-2.596
		c1.667-0.074,1.983,1.149,1.987,2.465c0.018,7.092,0.014,14.184,0.005,21.273c-0.002,1.305-0.291,2.574-1.879,2.61
		c-1.763,0.04-1.975-1.293-1.97-2.696C196.759,274.734,196.752,271.224,196.752,267.712z"/>
	<path fill="#37251B" d="M208.957,267.671c0,3.583-0.018,7.164,0.007,10.746c0.008,1.388-0.394,2.502-1.949,2.533
		c-1.497,0.029-1.885-1.15-1.89-2.367c-0.03-7.233-0.031-14.471,0.002-21.707c0.005-1.231,0.443-2.321,1.965-2.297
		c1.508,0.026,1.866,1.064,1.865,2.346C208.955,260.507,208.957,264.089,208.957,267.671z"/>
	<path fill="#896CB7" d="M793.511,465.875c0.229,0.06,0.575,0.048,0.659,0.188c0.147,0.254-0.106,0.435-0.354,0.538
		C793.716,466.361,793.615,466.118,793.511,465.875z"/>
	<path fill="#FDFDFD" d="M560.447,218.96c-0.107-0.146-0.221-0.298-0.329-0.443C560.566,218.413,560.444,218.733,560.447,218.96z"/>
	<path fill="#896CB7" d="M184.751,269.177c-0.998,0-1.999,0.045-2.992-0.02c-0.515-0.032-1.307,0.362-1.482-0.331
		c-0.106-0.43,0.291-1.063,0.604-1.512c1.94-2.798,6.79-2.501,8.309,0.469c0.48,0.94,0.456,1.456-0.801,1.403
		C187.175,269.138,185.962,269.177,184.751,269.177z"/>
	<path fill="#E7B49D" d="M226.86,271.52c0.021,3.478-2.331,6.146-5.473,6.212c-3.215,0.065-5.719-2.635-5.728-6.187
		c-0.012-3.59,2.425-6.231,5.694-6.186C224.542,265.408,226.841,267.982,226.86,271.52z"/>
	<polygon fill="#37251B" points="714.017,270.156 714.048,270.209 714.002,270.131 	"/>
</g>
<circle fill="#37251B" cx="771.555" cy="84.857" r="6.713"/>
<circle fill="#37251B" cx="791.555" cy="84.857" r="6.713"/>
<circle fill="#37251B" cx="811.61" cy="84.857" r="6.713"/>
<path fill="#212121" d="M407.446,538.139c0,0,181.08,6.669,248.579-18.633C841.891,449.836,846.838,252.68,811.61,168.808
	c-62.164-148-222.105-109.861-317.67-90.664c-70.838,14.229-124.097,36.863-90.494,96.995
	C560.178,455.608,407.446,538.139,407.446,538.139z"/>
<g>
	<path fill="#4F82F0" d="M680.698,463.01c0,3.12,0,24.535,0,24.535s-0.117-11.858-17.286-11.858H459.409
		c-7.001,0-12.677-5.676-12.677-12.677v-38.207c0-7.001,5.676-12.679,12.677-12.679h208.611c7.001,0,12.677,5.678,12.677,12.679
		V463.01L680.698,463.01z"/>
	<path fill="#4F82F0" d="M680.698,367.759c0-7.001-5.676-12.679-12.677-12.679H459.409c-7.001,0-12.677,5.678-12.677,12.679v22.07
		c0,7,5.676,12.678,12.677,12.678h208.611c7.001,0,12.677-5.678,12.677-12.678V367.759L680.698,367.759z"/>
	<path fill="#E6E7E8" d="M393.915,536.681c0,3.121,0,24.535,0,24.535s0.118-11.857,17.286-11.857H615.2
		c7.001,0,12.679-5.677,12.679-12.678v-38.207c0-7-5.678-12.676-12.679-12.676H406.592c-7.001,0-12.677,5.676-12.677,12.676V536.681
		z"/>
	
		<line fill="none" stroke="#EAEAEA" stroke-width="5" stroke-linecap="round" stroke-linejoin="round" stroke-miterlimit="10" x1="472.989" y1="378.794" x2="514.891" y2="378.794"/>
	
		<line fill="none" stroke="#EAEAEA" stroke-width="5" stroke-linecap="round" stroke-linejoin="round" stroke-miterlimit="10" x1="531.44" y1="378.794" x2="575.458" y2="378.794"/>
	
		<line fill="none" stroke="#EAEAEA" stroke-width="5" stroke-linecap="round" stroke-linejoin="round" stroke-miterlimit="10" x1="484.961" y1="432.913" x2="588.487" y2="432.913"/>
	
		<line fill="none" stroke="#EAEAEA" stroke-width="5" stroke-linecap="round" stroke-linejoin="round" stroke-miterlimit="10" x1="470.876" y1="454.57" x2="562.126" y2="454.57"/>
	
		<line fill="none" stroke="#EAEAEA" stroke-width="5" stroke-linecap="round" stroke-linejoin="round" stroke-miterlimit="10" x1="578.011" y1="454.57" x2="598.963" y2="454.57"/>
</g>
<g>
	<path fill="#37251B" d="M262.913,269.632c0.809,1.039,1.213,2.381,1.213,4.021c0,2.873-0.821,4.877-2.462,6.012
		c-1.644,1.135-3.6,1.702-5.867,1.702h-9.019c-0.628,0-1.151-0.211-1.573-0.634c-0.422-0.422-0.636-0.947-0.636-1.575v-20.931
		c0-0.628,0.213-1.153,0.636-1.576c0.422-0.422,0.945-0.633,1.573-0.633h9.126c4.588,0,6.882,2.146,6.882,6.443
		c0,1.086-0.262,2.046-0.778,2.879c-0.521,0.833-1.262,1.491-2.229,1.976C261.06,267.822,262.104,268.595,262.913,269.632z
		 M257.336,261.031c-0.495-0.494-1.189-0.742-2.082-0.742h-5.977v5.649h6.083c0.727,0,1.358-0.241,1.901-0.727
		c0.543-0.48,0.815-1.135,0.815-1.955C258.079,262.269,257.831,261.527,257.336,261.031z M258.459,276.296
		c0.639-0.604,0.959-1.483,0.959-2.645c0-1.424-0.375-2.354-1.123-2.788c-0.749-0.435-1.666-0.651-2.752-0.651h-6.267v6.988h6.52
		C256.932,277.2,257.819,276.9,258.459,276.296z"/>
	<path fill="#37251B" d="M271.894,280.732c-0.422,0.423-0.948,0.634-1.575,0.634c-0.604,0-1.109-0.211-1.521-0.634
		c-0.411-0.422-0.616-0.947-0.616-1.575v-22.38c0-0.627,0.211-1.152,0.634-1.575s0.947-0.634,1.575-0.634
		c0.604,0,1.11,0.211,1.521,0.634c0.408,0.423,0.614,0.948,0.614,1.575v22.38C272.528,279.784,272.317,280.31,271.894,280.732z"/>
	<path fill="#37251B" d="M294.546,276.894c-0.869,1.533-2.061,2.722-3.567,3.564c-1.509,0.848-3.168,1.27-4.979,1.27
		c-1.835,0-3.501-0.422-4.998-1.27c-1.497-0.845-2.682-2.031-3.549-3.564c-0.869-1.533-1.306-3.268-1.306-5.197
		s0.437-3.663,1.306-5.197c0.867-1.53,2.052-2.727,3.549-3.584c1.497-0.855,3.163-1.286,4.998-1.286c1.811,0,3.47,0.431,4.979,1.286
		c1.509,0.857,2.698,2.054,3.567,3.584c0.869,1.534,1.303,3.268,1.303,5.197S295.415,275.361,294.546,276.894z M290.761,268.529
		c-0.495-0.93-1.159-1.648-1.992-2.155s-1.756-0.761-2.77-0.761c-1.016,0-1.938,0.254-2.771,0.761s-1.497,1.228-1.992,2.155
		c-0.493,0.93-0.74,1.985-0.74,3.168c0,1.184,0.247,2.233,0.74,3.15c0.495,0.918,1.159,1.63,1.992,2.137s1.756,0.761,2.771,0.761
		c1.014,0,1.937-0.254,2.77-0.761s1.497-1.219,1.992-2.137c0.495-0.917,0.743-1.969,0.743-3.15S291.256,269.458,290.761,268.529z"/>
	<path fill="#37251B" d="M317.071,262.245c0.41,0.41,0.616,0.941,0.616,1.593v16.115c0,2.944-0.912,5.124-2.732,6.536
		c-1.823,1.412-4.136,2.119-6.937,2.119c-0.725,0-1.72-0.121-2.988-0.363c-1.268-0.241-2.167-0.48-2.696-0.724
		c-1.185-0.507-1.774-1.208-1.774-2.103c0-0.169,0.036-0.359,0.108-0.579c0.145-0.529,0.392-0.937,0.743-1.214
		c0.35-0.275,0.729-0.416,1.141-0.416c0.241,0,0.471,0.037,0.688,0.109c0.098,0.021,0.694,0.246,1.792,0.67
		c1.1,0.422,2.096,0.633,2.988,0.633c1.786,0,3.12-0.354,4.001-1.066s1.322-1.722,1.322-3.023v-1.738
		c-0.531,0.748-1.334,1.426-2.408,2.028c-1.075,0.603-2.227,0.905-3.458,0.905c-1.688,0-3.229-0.431-4.617-1.285
		c-1.389-0.857-2.479-2.047-3.275-3.567c-0.796-1.521-1.195-3.247-1.195-5.179s0.392-3.663,1.177-5.197
		c0.784-1.531,1.859-2.727,3.225-3.584c1.362-0.855,2.879-1.286,4.544-1.286c1.229,0,2.378,0.253,3.438,0.763
		c1.063,0.507,1.919,1.123,2.571,1.847v-0.398c0-0.628,0.205-1.15,0.616-1.573c0.41-0.424,0.929-0.636,1.557-0.636
		C316.141,261.629,316.66,261.835,317.071,262.245z M311.983,276.025c1.026-1.146,1.539-2.59,1.539-4.328s-0.513-3.188-1.539-4.346
		c-1.024-1.158-2.348-1.738-3.965-1.738c-1.618,0-2.934,0.58-3.947,1.738c-1.014,1.156-1.521,2.605-1.521,4.346
		s0.507,3.182,1.521,4.328c1.016,1.146,2.33,1.72,3.947,1.72C309.635,277.744,310.956,277.171,311.983,276.025z"/>
</g>
<g>
	<path fill="#4F82F0" d="M681.885,247.077c0,3.12,0,24.535,0,24.535s-0.117-11.858-17.286-11.858H460.596
		c-7.001,0-12.677-5.676-12.677-12.677V208.87c0-7.001,5.676-12.677,12.677-12.677h208.609c7.003,0,12.679,5.676,12.679,12.677
		L681.885,247.077L681.885,247.077z"/>
	<path fill="#E6E7E8" d="M395.101,320.749c0,3.121,0,24.535,0,24.535s0.118-11.855,17.286-11.855h204.002
		c7.001,0,12.677-5.679,12.677-12.679v-38.208c0-7-5.676-12.676-12.677-12.676H407.778c-7.001,0-12.677,5.676-12.677,12.676V320.749
		z"/>
	<g>
		<circle fill="#FBCA40" cx="538.437" cy="292.785" r="11.225"/>
		<path fill="#FBBB40" d="M545.545,301.475c0,0-0.063,0.053-0.097,0.077c-1.92,1.538-4.357,2.46-7.013,2.46
			c-6.199,0-11.226-5.026-11.226-11.229c0-3.251,1.384-6.179,3.589-8.229c0.027-0.025,0.088-0.077,0.088-0.077
			s-1.802,8.11,3.61,12.829C539.801,301.928,545.545,301.475,545.545,301.475z"/>
		<path fill="#231F20" d="M544.167,287.55c-1.524,0-1.524,2.364,0,2.364C545.691,289.914,545.692,287.55,544.167,287.55z"/>
		<path fill="#231F20" d="M538.534,287.55c-1.522,0-1.522,2.364,0,2.364C540.058,289.914,540.058,287.55,538.534,287.55z"/>
		<path fill="#231F20" d="M544.578,295.099c0,0.663,0,2.684,0,2.684h-6.75c0,0,0-2.178,0-2.684c0-1.892,1.513-3.426,3.374-3.426
			C543.067,291.675,544.578,293.209,544.578,295.099z"/>
		<path fill="#FF6D6A" d="M549.517,297.624c0,1.145-1.414,0.993-3.508,0.993c-2.099,0-8.182-0.833-8.182-0.833
			s0.65-2.227,7.895-2.227C547.816,295.558,549.517,296.482,549.517,297.624z"/>
		<path fill="#FF476A" d="M547.486,297.383c0,0-1.166-0.647-2.223-0.991c-1.035-0.334-1.832-0.396-1.832-0.396
			s0.492-0.308,1.818-0.096C547.493,296.253,547.486,297.383,547.486,297.383z"/>
	</g>
	
		<line fill="none" stroke="#EAEAEA" stroke-width="5" stroke-linecap="round" stroke-linejoin="round" stroke-miterlimit="10" x1="486.146" y1="216.982" x2="589.673" y2="216.982"/>
	
		<line fill="none" stroke="#EAEAEA" stroke-width="5" stroke-linecap="round" stroke-linejoin="round" stroke-miterlimit="10" x1="472.061" y1="238.638" x2="563.311" y2="238.638"/>
	
		<line fill="none" stroke="#EAEAEA" stroke-width="5" stroke-linecap="round" stroke-linejoin="round" stroke-miterlimit="10" x1="579.197" y1="238.638" x2="600.148" y2="238.638"/>
	
		<line fill="none" stroke="#2D2D2D" stroke-width="5" stroke-linecap="round" stroke-linejoin="round" stroke-miterlimit="10" x1="425.205" y1="293.331" x2="479.807" y2="293.331"/>
	
		<line fill="none" stroke="#2D2D2D" stroke-width="5" stroke-linecap="round" stroke-linejoin="round" stroke-miterlimit="10" x1="498.823" y1="293.331" x2="507.977" y2="293.331"/>
	
		<line fill="none" stroke="#2D2D2D" stroke-width="5" stroke-linecap="round" stroke-linejoin="round" stroke-miterlimit="10" x1="440.017" y1="314.46" x2="503.05" y2="314.46"/>
</g>
<circle fill="#D3D3D3" cx="482.19" cy="519.64" r="9.679"/>
<circle fill="#D3D3D3" cx="512.19" cy="519.507" r="9.679"/>
<circle fill="#D3D3D3" cx="542.19" cy="519.64" r="9.679"/>
<circle fill="#383838" cx="652.982" cy="148.378" r="28.903"/>
<circle fill="#9FE517" cx="675.028" cy="126.557" r="6.582"/>
<g>
	<path fill="#4F4F4F" d="M645.215,155.026c-0.527-0.831-0.815-1.75-0.943-2.721c-0.032,0.051-0.063,0.104-0.096,0.156
		c-0.771-0.009-1.505,0.175-2.223,0.436c-0.092,0.034-0.185,0.024-0.275,0.04c-0.512,0.094-0.772,0.477-1.01,0.876
		c-0.182,0.301-0.339,0.617-0.502,0.929c-0.054,0.104-0.12,0.213-0.137,0.325c-0.042,0.315-0.25,0.461-0.52,0.54
		c-1.114,0.32-2.123,0.883-3.153,1.392c-0.466,0.229-10.233,18.999,32.126,7.12c1.083-0.304-0.763-2.119-1.162-3.172
		c-0.142-0.373-0.293-0.748-0.381-1.145c-0.133-0.6-0.575-0.998-1.007-1.386c-0.384-0.345-0.791-0.662-1.181-0.998
		c-0.726-0.623-1.509-1.134-2.486-1.248c-0.503-0.059-1.004-0.144-1.511-0.171c-0.413-0.022-0.82-0.097-1.23-0.147
		c0.018-0.09,0.035-0.18,0.053-0.269c-0.195,0.065-0.244,0.258-0.324,0.407c-0.147,0.268,0.129-0.342,0.324-0.407
		c0.186-0.409,0.326-0.835,0.469-1.26c0.308-0.914,0.766-1.74,1.39-2.477c0.473-0.562,0.802-1.196,0.953-1.924
		c0.122-0.587,0.061-1.177,0.071-1.765c0.01-0.609,0.161-1.158,0.557-1.64c0.184-0.225,0.289-0.5,0.204-0.809
		c0.002,0,0.002,0,0.002,0c0.196-0.151,0.146-0.301-0.005-0.45c-0.279-0.047-0.268-1.649,0.008-2.268
		c0.417-0.942,0.271-1.957,0.266-2.95c0-0.013-0.013-0.026-0.022-0.039c0,0,0,0,0-0.001c-0.035-0.708-0.073-1.415-0.104-2.123
		c-0.015-0.327,0.01-0.363,0.335-0.425c0.449-0.084,0.726-0.351,0.861-0.779c0.125-0.397,0.251-0.795,0.378-1.193
		c0.109-0.35,0.317-0.626,0.612-0.844c0.331-0.243,0.649-0.5,0.972-0.753c0.064-0.051,0.178-0.081,0.15-0.189
		c-0.03-0.11-0.143-0.08-0.224-0.084c-0.227-0.015-0.424-0.099-0.608-0.23c-0.302-0.213-0.436-0.535-0.569-0.854
		c-0.266-0.632-0.501-1.276-0.784-1.9c-0.226-0.494-0.49-0.969-0.939-1.311c-0.218-0.164-0.477-0.147-0.716-0.214
		c-0.509,0.079-0.847-0.169-1.091-0.581c-0.225-0.379-0.434-0.767-0.654-1.148c-0.181-0.314-0.455-0.482-0.818-0.464
		c-0.46,0.023-0.629-0.045-0.416,0.534c0.032,0.086,0.075,0.188-0.012,0.266c-0.096,0.085-0.194,0.028-0.283-0.022
		c-0.325-0.18-0.66-0.334-1.012-0.45c-0.266-0.088-0.538-0.157-0.806-0.235c0.169,0.229,0.375,0.39,0.532,0.598
		c0.058,0.077,0.115,0.163,0.049,0.258c-0.063,0.09-0.157,0.052-0.238,0.024c-0.17-0.057-0.338-0.129-0.512-0.177
		c-0.289-0.079-0.557,0.035-0.827,0.12c-0.326,0.103-0.373,0.074-0.483-0.241c-0.091-0.262-0.207-0.512-0.376-0.733
		c-0.464-0.604-1.081-0.849-1.826-0.729c-0.701,0.113-1.34,0.403-1.942,0.767c-0.329,0.199-0.575,0.486-0.747,0.835
		c-0.188,0.381-0.247,0.796-0.32,1.205c-0.093,0.514-0.167,1.03-0.253,1.558c-0.452-0.227-0.889-0.425-1.336-0.596
		c-0.798-0.306-1.877-0.048-2.383,0.579c-0.813,1.004-1.4,2.125-1.719,3.383c-0.371,1.461-0.444,2.958-0.561,4.45
		c-0.076,0.966-0.091,1.939-0.33,2.885c-0.052,0.201-0.071,0.4-0.039,0.604c-0.001,0-0.001,0-0.003,0
		c-0.086-0.014-0.123-0.089-0.172-0.147c-0.271-0.326-0.698-0.367-1.022-0.093c-0.145,0.122-0.287,0.246-0.422,0.377
		c-0.309,0.297-0.529,0.616-0.488,1.093c0.04,0.442,0.061,0.894-0.081,1.334c-0.14,0.437-0.112,0.884-0.024,1.33
		c0.087,0.438,0.175,0.876,0.263,1.314c0.034,0.042,0.078,0.079,0.099,0.128c0.248,0.547,0.679,0.887,1.24,1.06
		c0.24,0.073,0.372,0.226,0.434,0.447c0.063,0.218,0.131,0.436,0.125,0.668 M661.375,147.478l0.004,0.006L661.375,147.478
		l-0.002-0.002C661.375,147.476,661.375,147.477,661.375,147.478z M654.405,126.384c0.499-0.09,0.976,0.126,1.314,0.546
		c0.06,0.074,0.112,0.153,0.177,0.222c0.058,0.063,0.139,0.109,0.084,0.216c-0.055,0.107-0.147,0.109-0.242,0.088
		c-0.25-0.056-0.522-0.077-0.564-0.425c-0.022-0.171-0.159-0.115-0.262-0.08c-0.522,0.173-1.044,0.349-1.582,0.47
		c-0.166,0.037-0.333,0.076-0.538,0.069C653.209,126.91,653.741,126.504,654.405,126.384z"/>
</g>
</svg>
