<?xml version="1.0" encoding="utf-8"?>
<!-- Generator: Adobe Illustrator 16.0.0, SVG Export Plug-In . SVG Version: 6.00 Build 0)  -->
<!DOCTYPE svg PUBLIC "-//W3C//DTD SVG 1.1//EN" "http://www.w3.org/Graphics/SVG/1.1/DTD/svg11.dtd">
<svg version="1.1" id="logo" xmlns="http://www.w3.org/2000/svg" xmlns:xlink="http://www.w3.org/1999/xlink" x="0px" y="0px"
	 width="234.627px" height="140px" viewBox="0 0 234.627 140" enable-background="new 0 0 234.627 140" xml:space="preserve">
<g id="sygnet">
	<path d="M127.184,62.549c0.592-0.145,3.159,0.375,3.767,0.229c0.842-0.204,1.146-0.636,0.57-1.283
		c-1.145-1.291-5.382-3.217-16.396-3.692c-0.106-0.008-0.25-0.022-0.414-0.035c-1.576,0.16-0.633-0.325-1.479,1.033
		c-0.053,0.082,0.016,0.191,0.016,0.287c0.299,0.625-0.381,1.74,0.224,1.879c2.67,0.606,2.604,2.219-0.224,5.047
		c-1.666,1.662-2.361,9.973-0.096,13.161l-0.008,0.004c0.405,0.912,2.775,3.543,2.523,3.875c-1.572,2.086-3.545-0.391-3.082,2.834
		c0.057,0.447-0.553,1.363-0.987,1.453c-2.326,0.502-2.406,2.672-3.204,4.229c-0.27,0.525-0.011,1.762,0.439,2.102
		c0.66,0.506,1.713,0.648,2.582,0.598c0.223-0.016,0.367-1.34,0.535-2.066c0.189-0.82,0.377-1.645,0.559-2.463
		c0.808,0.344,1.636,0.656,2.433,1.039c0.265,0.123,0.453,0.422,0.683,0.629c1.199,1.082,1.912,0.594,2.096-0.781
		c0.148-1.125,0.136-2.285,0.046-3.422c-0.206-2.6-1.567-11.586,2.134-13.248c2.54-1.137,4.924,0.221,4.924,0.221
		c9.937,3.021,2.996-3.708,1.611-5.208C124.896,67.311,123.37,63.456,127.184,62.549z"/>
	<path d="M143.124,97.952c-0.104-0.523-0.939,6.271-10.696,14.396c-4.462,2.256-8.997,4.395-13.64,6.232
		c-2.379,0.945-5.026,1.359-7.596,1.627c-2.549,0.266-5.033-0.828-6.021-3.143c-1.286-3.018-2.363-4.91-5.709-2.236
		c-0.25,0.205-2.002-0.715-2.108-1.291c-0.136-0.697,0.556-1.834,1.228-2.316c0.569-0.416,1.641-0.043,2.437-0.25
		c2.187-0.555,4.446-1.01,6.499-1.916c2.031-0.895,2.1-2.172,0.396-3.514c-1.383-1.094-2.877-2.076-4.424-2.916
		c-0.857-0.467-1.918-0.553-2.887-0.809c0.926-0.262,2.145-0.232,2.714-0.83c2.515-2.64,5.371-1.527,8.193-1.037
		c0.62,0.109,1.229,0.341,1.845,0.341c0.428-0.01,0.855-0.312,1.279-0.48c-0.311-0.373-0.557-0.977-0.934-1.08
		c-2.896-0.758-5.816-1.43-8.733-2.098c-0.5-0.113-1.095,0.043-1.535-0.156c-0.619-0.285-1.14-0.795-1.701-1.201
		c0.466-0.344,0.894-0.77,1.407-1.014c2.361-1.145,2.861-3.135,2.576-5.5c-0.047-0.408-0.047-0.934-0.293-1.195
		c-2.11-2.287-6.23-0.736-7.385-4.012c-0.787-2.227,5.176-6.709,5.985-10.479c2.263-10.505,0.155-11.345-5.64-12.917
		c-3.198-0.867,10.736-2.395,3.289-3.605c-0.504-0.086-6.023-1.01-6.821-1.065c-2.083-0.146-4.743,0.59-6.821,0.595
		c-2.941,0-5.488,3.916-1.414,3.758c0.805-0.027-1.576,1.678-1.863,2.397c-2.486,6.226-0.039,11.191,4.043,15.628
		c1.423,1.545,1.229,2.424-0.371,3.426c-3.711,2.328-4.025,3.777-1.998,7.613c0.761,1.445,1.617,3.061,1.658,4.615
		c0.113,4.98-1.303,6.438-0.23,13.652c0.489,3.26,2.887,7.316,7.494,10.762c13.109,9.799,7.005,9.586,3.979,14.242
		c-1.621,2.484,16.338,6.623,35.951-8.518C157.314,106.662,143.501,99.836,143.124,97.952z"/>
	<path d="M148.189,32.369c-1.305-3.998-3.724-7.134-5.435-10.758c-0.157-0.342-0.658-0.871-0.805-0.813
		c-2.541,1.002-2.695-0.644-3.072-2.453c-0.154-0.78-1.061-1.49-1.77-2.049c-1.966-1.547-4.461-2.646-5.906-4.558
		c-2.19-2.905-4.836-4.089-8.266-4.162c-0.607-0.013-1.271-0.167-1.803-0.45c-3.979-2.121-7.917-1.607-12.008-0.242
		c-1.69,0.564-4.004-0.223-5.377,0.646c-1.514,0.95-2.166,3.188-3.396,4.706c-1.018,1.256-2.589,2.108-3.477,3.44
		c-2.963,4.459-6.432,8.611-7.575,14.133c-0.966,4.662-2.513,9.203-3.747,13.811c-0.367,1.379-0.54,2.811-0.805,4.215l0.006-0.012
		c0.584-1.057,1.361-2.048,1.729-3.174c1.351-4.141,3.248-7.883,6.704-10.707c1.696-1.383,3.457-2.031,5.412-0.729
		c0.376,0.25,0.584,0.67,0.941,0.795c4.644,1.61,9.918,1.107,14.707-0.037c0.646-0.151,1.268-0.51,1.902-0.668
		c2.188-0.537,4.461-0.914,6.701-0.984c2.17-0.068,4.385,0.156,6.518,0.574c3.599,0.709,7.051,1.701,9.5,4.893
		c3.324,4.344,6.281,8.823,7.676,14.206c0.39,1.507,1.031,2.954,1.627,4.399c0.138,0.326,0.57,0.531,0.871,0.795
		c0.176-0.322,0.478-0.631,0.511-0.967C150.462,48.204,150.796,40.336,148.189,32.369z"/>
	<path d="M79.206,76.145c0.035-1.428,1.006-3.629,1.387-4.719c0.052-0.16,0.102-0.295,0.121-0.398
		c0.018-0.057,0.029-0.107,0.029-0.15c0.055-0.743-0.531-1.536-0.836-2.306c-0.408,0.603-0.885,1.16-1.197,1.812
		c-0.072,0.147-0.127,0.311-0.182,0.477c-0.009,0.047-0.021,0.092-0.037,0.141c-0.035,0.135-0.07,0.277-0.103,0.43l0,0l0,0
		c-0.06,0.092-0.103,0.313-0.14,0.609l0,0c-0.035,0.143-0.064,0.279-0.104,0.443c0.014,0.039,0.03,0.092,0.049,0.15l0,0
		c-0.133,2.006-0.031,5.756,0.045,6.168c0.174,0.869,0.92,1.629,1.43,2.438c0.388-0.486,0.772-0.969,1.285-1.615
		c-0.615-0.623-1.047-1.402-1.36-2.232C79.438,76.981,79.307,76.563,79.206,76.145z"/>
	<path d="M107.462,85.684c-0.223-0.07-0.523,0.115-0.795,0.188c0.281,0.332,0.529,0.707,0.869,0.967
		c0.094,0.07,0.443-0.188,0.928-0.408C108.018,86.086,107.772,85.788,107.462,85.684z"/>
</g>
</svg>
