<?xml version="1.0" encoding="utf-8"?>
<!-- Generator: Adobe Illustrator 16.0.0, SVG Export Plug-In . SVG Version: 6.00 Build 0)  -->
<!DOCTYPE svg PUBLIC "-//W3C//DTD SVG 1.1//EN" "http://www.w3.org/Graphics/SVG/1.1/DTD/svg11.dtd">
<svg version="1.1" id="logo" xmlns="http://www.w3.org/2000/svg" xmlns:xlink="http://www.w3.org/1999/xlink" x="0px" y="0px"
	 width="234.627px" height="45px" viewBox="0 148 234.627 45" enable-background="new 0 148 234.627 45" xml:space="preserve">
<g id="logotype">
	<g id="firan" enable-background="new    ">
		<path d="M20.911,160.203c-0.432,0.601-0.646,1.256-0.646,1.963v2.17h4.202c0.739,0,1.354,0.24,1.847,0.717
			c0.492,0.479,0.739,1.085,0.739,1.824c0,0.738-0.247,1.347-0.739,1.824c-0.493,0.478-1.108,0.715-1.847,0.715h-4.202v16.349
			c0,0.802-0.262,1.471-0.785,2.009c-0.524,0.539-1.186,0.809-1.986,0.809c-0.801,0-1.463-0.27-1.986-0.809
			c-0.524-0.538-0.785-1.207-0.785-2.009v-16.349h-2.494c-0.739,0-1.355-0.238-1.847-0.717c-0.493-0.479-0.739-1.084-0.739-1.824
			c0-0.738,0.246-1.348,0.739-1.824c0.492-0.477,1.108-0.717,1.847-0.717h2.494v-2.123c0-2.311,0.792-4.188,2.378-5.635
			c1.585-1.447,3.871-2.17,6.858-2.17c1.139,0,2.131,0.229,2.979,0.691c0.847,0.462,1.27,1.171,1.27,2.124
			c0,0.739-0.216,1.34-0.646,1.802c-0.432,0.462-0.955,0.691-1.57,0.691c-0.154,0-0.316-0.014-0.485-0.045
			c-0.169-0.03-0.346-0.063-0.531-0.094c-0.739-0.185-1.355-0.277-1.848-0.277C22.08,159.301,21.342,159.603,20.911,160.203z
			 M30.701,160.365c-0.431-0.339-0.646-0.939-0.646-1.802v-0.878c0-0.861,0.231-1.462,0.693-1.801
			c0.462-0.34,1.201-0.508,2.217-0.508c1.077,0,1.831,0.168,2.263,0.508c0.431,0.339,0.646,0.939,0.646,1.801v0.878
			c0,0.894-0.224,1.501-0.669,1.824c-0.447,0.323-1.208,0.483-2.286,0.483C31.871,160.873,31.132,160.703,30.701,160.365z
			 M34.95,187.772c-0.524,0.539-1.186,0.81-1.986,0.81c-0.801,0-1.463-0.271-1.986-0.81c-0.524-0.538-0.785-1.207-0.785-2.009
			v-19.072c0-0.801,0.261-1.47,0.785-2.009c0.523-0.539,1.185-0.81,1.986-0.81c0.8,0,1.462,0.271,1.986,0.81
			c0.523,0.539,0.785,1.208,0.785,2.009v19.072C35.735,186.565,35.473,187.234,34.95,187.772z"/>
		<path d="M56.586,164.197c0.63,0.524,0.947,1.141,0.947,1.848c0,0.955-0.247,1.67-0.739,2.147
			c-0.493,0.478-1.078,0.716-1.755,0.716c-0.461,0-0.985-0.107-1.57-0.322c-0.092-0.029-0.3-0.094-0.624-0.187
			c-0.323-0.092-0.669-0.138-1.039-0.138c-0.801,0-1.57,0.246-2.309,0.738c-0.739,0.492-1.347,1.24-1.824,2.24
			c-0.478,1-0.716,2.191-0.716,3.577v10.944c0,0.802-0.262,1.471-0.785,2.009c-0.524,0.539-1.186,0.81-1.986,0.81
			c-0.801,0-1.462-0.271-1.986-0.81c-0.523-0.538-0.785-1.207-0.785-2.009v-19.07c0-0.801,0.261-1.47,0.785-2.009
			s1.185-0.81,1.986-0.81c0.8,0,1.462,0.271,1.986,0.81c0.523,0.539,0.785,1.208,0.785,2.009v0.602
			c0.708-1.262,1.724-2.226,3.048-2.887c1.324-0.662,2.74-0.992,4.249-0.992C55.177,163.412,55.954,163.674,56.586,164.197z"/>
		<path d="M82.886,164.197c0.522,0.524,0.785,1.201,0.785,2.032v19.534c0,0.802-0.263,1.471-0.785,2.009
			c-0.524,0.539-1.187,0.81-1.985,0.81c-0.802,0-1.455-0.262-1.963-0.785c-0.508-0.522-0.777-1.186-0.808-1.984
			c-0.771,0.895-1.81,1.654-3.117,2.285c-1.31,0.631-2.687,0.945-4.133,0.945c-2.125,0-4.049-0.545-5.773-1.639
			c-1.725-1.094-3.087-2.609-4.087-4.55c-1.001-1.938-1.501-4.142-1.501-6.604c0-2.461,0.492-4.672,1.478-6.627
			c0.985-1.955,2.332-3.479,4.041-4.572c1.709-1.092,3.594-1.639,5.658-1.639c1.478,0,2.862,0.271,4.156,0.809
			c1.293,0.539,2.385,1.224,3.279,2.055v-0.046c0-0.801,0.261-1.47,0.785-2.009c0.523-0.538,1.185-0.809,1.986-0.809
			C81.699,163.412,82.361,163.674,82.886,164.197z M76.467,181.77c1.262-1.462,1.895-3.303,1.895-5.52s-0.633-4.063-1.895-5.541
			c-1.264-1.479-2.895-2.217-4.896-2.217c-1.97,0-3.586,0.737-4.849,2.217c-1.263,1.478-1.894,3.324-1.894,5.541
			s0.624,4.058,1.87,5.52c1.248,1.463,2.871,2.193,4.873,2.193S75.203,183.232,76.467,181.77z"/>
		<path d="M109.394,166.207c1.2,1.862,1.802,4.44,1.802,7.734v11.822c0,0.802-0.263,1.471-0.785,2.009
			c-0.522,0.539-1.187,0.81-1.985,0.81c-0.8,0-1.463-0.271-1.985-0.81c-0.523-0.538-0.785-1.207-0.785-2.009v-11.822
			c0-1.691-0.354-3.023-1.062-3.994c-0.709-0.97-1.927-1.455-3.647-1.455c-1.787,0-3.188,0.516-4.203,1.547
			c-1.017,1.033-1.522,2.332-1.522,3.902v11.822c0,0.802-0.263,1.471-0.786,2.009c-0.523,0.539-1.188,0.81-1.984,0.81
			c-0.803,0-1.463-0.271-1.986-0.81c-0.523-0.538-0.785-1.207-0.785-2.009v-19.072c0-0.801,0.262-1.47,0.785-2.009
			s1.186-0.81,1.986-0.81c0.799,0,1.461,0.271,1.984,0.81s0.786,1.208,0.786,2.009v0.785c0.831-1.107,1.916-2.063,3.256-2.863
			c1.341-0.801,2.81-1.201,4.41-1.201C106.023,163.412,108.193,164.344,109.394,166.207z"/>
	</g>
	<g id="room" enable-background="new    ">
		<path d="M131.099,164.797c0.492,0.248,0.738,0.617,0.738,1.109c0,0.432-0.123,0.776-0.369,1.038
			c-0.247,0.263-0.539,0.394-0.877,0.394c-0.155,0-0.455-0.076-0.899-0.23c-0.447-0.152-0.871-0.229-1.271-0.229
			c-1.139,0-2.27,0.438-3.395,1.314c-1.123,0.877-2.049,2.01-2.771,3.395c-0.727,1.387-1.086,2.787-1.086,4.203v11.406
			c0,0.399-0.133,0.731-0.395,0.992c-0.262,0.264-0.593,0.395-0.992,0.395c-0.398,0-0.73-0.131-0.992-0.395
			c-0.264-0.261-0.393-0.593-0.393-0.992v-20.691c0-0.399,0.129-0.73,0.393-0.992c0.262-0.262,0.594-0.393,0.992-0.393
			c0.399,0,0.73,0.131,0.992,0.393s0.395,0.593,0.395,0.992v4.063c0.708-1.755,1.777-3.21,3.21-4.364
			c1.432-1.154,3.116-1.746,5.057-1.776C130.052,164.429,130.607,164.551,131.099,164.797z"/>
		<path d="M155.437,183.039c-1.017,1.879-2.418,3.351-4.202,4.41c-1.785,1.063-3.771,1.594-5.957,1.594
			c-2.187,0-4.172-0.529-5.957-1.594c-1.787-1.062-3.188-2.531-4.203-4.41c-1.017-1.877-1.522-3.972-1.522-6.278
			c0-2.312,0.508-4.402,1.522-6.281c1.017-1.877,2.416-3.354,4.203-4.433c1.785-1.077,3.771-1.616,5.957-1.616
			s4.172,0.539,5.957,1.616c1.784,1.078,3.188,2.556,4.202,4.433c1.017,1.879,1.523,3.974,1.523,6.28
			C156.96,179.067,156.451,181.162,155.437,183.039z M153.033,171.771c-0.771-1.479-1.84-2.641-3.209-3.486
			c-1.371-0.847-2.887-1.271-4.549-1.271s-3.173,0.424-4.524,1.271c-1.354,0.848-2.427,2.008-3.212,3.486
			c-0.783,1.479-1.178,3.141-1.178,4.986c0,1.816,0.395,3.465,1.178,4.941c0.785,1.479,1.854,2.641,3.212,3.485
			c1.354,0.849,2.862,1.271,4.524,1.271c1.661,0,3.178-0.416,4.549-1.248c1.369-0.83,2.438-1.984,3.209-3.463
			s1.154-3.142,1.154-4.988C154.189,174.912,153.804,173.248,153.033,171.771z"/>
		<path d="M182.912,183.039c-1.016,1.879-2.418,3.351-4.202,4.41c-1.785,1.063-3.771,1.594-5.957,1.594s-4.173-0.529-5.957-1.594
			c-1.786-1.062-3.188-2.531-4.203-4.41c-1.017-1.877-1.522-3.972-1.522-6.278c0-2.312,0.508-4.402,1.522-6.281
			c1.019-1.877,2.417-3.354,4.203-4.433c1.784-1.077,3.771-1.616,5.957-1.616s4.172,0.539,5.957,1.616
			c1.784,1.078,3.188,2.556,4.202,4.433c1.017,1.879,1.522,3.974,1.522,6.28C184.437,179.067,183.929,181.162,182.912,183.039z
			 M180.512,171.771c-0.771-1.479-1.841-2.641-3.21-3.486c-1.37-0.847-2.888-1.271-4.549-1.271c-1.662,0-3.173,0.424-4.525,1.271
			c-1.354,0.848-2.425,2.008-3.209,3.486s-1.178,3.141-1.178,4.986c0,1.816,0.394,3.465,1.178,4.941
			c0.784,1.479,1.854,2.641,3.209,3.485c1.354,0.849,2.863,1.271,4.525,1.271c1.661,0,3.179-0.416,4.549-1.248
			c1.369-0.83,2.438-1.984,3.21-3.463c0.77-1.479,1.152-3.142,1.152-4.988C181.664,174.912,181.281,173.248,180.512,171.771z"/>
		<path d="M223.021,167.36c1.309,1.709,1.963,3.966,1.963,6.767v13.068c0,0.4-0.132,0.732-0.394,0.993
			c-0.263,0.263-0.595,0.394-0.992,0.394c-0.399,0-0.731-0.131-0.993-0.394c-0.263-0.261-0.394-0.593-0.394-0.993v-12.931
			c0-2.031-0.484-3.687-1.454-4.964c-0.971-1.277-2.473-1.918-4.503-1.918c-1.293,0-2.519,0.31-3.673,0.925
			c-1.153,0.616-2.086,1.455-2.793,2.517c-0.709,1.063-1.063,2.211-1.063,3.44v12.931c0,0.4-0.131,0.732-0.393,0.993
			c-0.264,0.263-0.596,0.394-0.992,0.394c-0.398,0-0.73-0.131-0.994-0.394c-0.262-0.261-0.395-0.593-0.395-0.993v-13.07
			c0-2-0.461-3.625-1.385-4.871s-2.371-1.871-4.34-1.871c-1.264,0-2.457,0.311-3.58,0.926c-1.125,0.615-2.031,1.438-2.725,2.471
			s-1.039,2.146-1.039,3.35v13.068c0,0.399-0.131,0.731-0.393,0.992c-0.262,0.264-0.594,0.395-0.994,0.395
			c-0.399,0-0.73-0.131-0.992-0.395c-0.262-0.261-0.393-0.593-0.393-0.992v-20.691c0-0.399,0.131-0.73,0.393-0.992
			s0.593-0.393,0.992-0.393c0.4,0,0.732,0.131,0.994,0.393s0.393,0.593,0.393,0.992v2.679c0.831-1.263,1.955-2.31,3.371-3.14
			c1.416-0.832,2.908-1.248,4.479-1.248c1.785,0,3.325,0.433,4.619,1.293c1.293,0.863,2.217,2.125,2.77,3.787
			c0.646-1.354,1.83-2.539,3.557-3.555c1.727-1.017,3.465-1.523,5.221-1.523C219.673,164.797,221.712,165.652,223.021,167.36z"/>
	</g>
</g>
</svg>
