<?xml version="1.0" encoding="utf-8"?>
<!-- Generator: Adobe Illustrator 16.0.0, SVG Export Plug-In . SVG Version: 6.00 Build 0)  -->
<!DOCTYPE svg PUBLIC "-//W3C//DTD SVG 1.1//EN" "http://www.w3.org/Graphics/SVG/1.1/DTD/svg11.dtd">
<svg version="1.1" id="Layer_2" xmlns="http://www.w3.org/2000/svg" xmlns:xlink="http://www.w3.org/1999/xlink" x="0px" y="0px"
	 width="150px" height="150px" viewBox="0 0 150 150" enable-background="new 0 0 150 150" xml:space="preserve">
<circle fill="#FFFFFF" cx="74.875" cy="74.9" r="12.55"/>
<g>
	<path fill="#FFFFFF" d="M74.875,103.65c-17.625,0-33.025-2.075-44.55-6.025c-7.475-2.55-13.825-5.95-18.35-9.825
		c-4.8-4.1-7.35-8.575-7.35-12.9c0-8.3,9.1-16.425,24.375-21.725c12.5-4.35,28.8-6.775,45.85-6.775c16.75,0,32.825,2.35,45.25,6.65
		c7.275,2.5,13.4,5.75,17.75,9.35c4.726,3.95,7.226,8.275,7.226,12.5c0,8.625-10.175,17.35-26.575,22.775
		C106.9,101.525,91.4,103.65,74.875,103.65z M74.875,52.4C58.7,52.4,42.7,54.75,31,58.825c-14.05,4.9-20.35,11.6-20.35,16.075
		c0,4.65,6.775,11.975,21.625,17.05c10.9,3.725,25.65,5.7,42.6,5.7c15.9,0,30.725-2,41.75-5.676
		C132.05,86.85,139.1,79.525,139.1,74.9c0-2.375-1.8-5.175-5.074-7.9c-3.775-3.15-9.275-6.025-15.851-8.3
		C106.35,54.65,90.975,52.4,74.875,52.4z"/>
</g>
<g>
	<path fill="#FFFFFF" d="M46.4,137.45c-2.55,0-4.8-0.55-6.7-1.65c-7.175-4.149-9.675-16.1-6.65-31.975
		C35.525,90.8,41.575,75.5,50.1,60.725c8.375-14.5,18.425-27.25,28.35-35.875c5.8-5.05,11.675-8.75,16.975-10.7
		c5.775-2.125,10.775-2.125,14.425-0.025c7.476,4.3,9.95,17.5,6.45,34.4c-2.475,12-8.375,26.475-16.625,40.8
		c-8.8,15.25-18.3,27.55-27.475,35.575c-5.95,5.199-12.075,9-17.675,10.975C51.6,136.925,48.85,137.45,46.4,137.45z M52.675,62.225
		l2.6,1.5c-8.075,14-14.05,29.025-16.35,41.225c-2.775,14.625-0.1,23.425,3.75,25.649c0.95,0.551,2.2,0.851,3.725,0.851
		c4.975,0,12.8-3.15,21.85-11.05c8.675-7.575,17.75-19.375,26.225-34.051c7.95-13.774,13.601-27.625,15.95-39
		c3.275-15.925,0.45-25.675-3.575-28c-2.05-1.175-5.375-1.025-9.375,0.45c-4.625,1.7-9.85,5.025-15.1,9.6
		c-9.425,8.2-19.05,20.4-27.1,34.35L52.675,62.225z"/>
</g>
<g>
	<path fill="#FFFFFF" d="M103.35,137.525c-6.8,0-15.425-4.101-24.425-11.851c-10.05-8.649-20.275-21.524-28.825-36.3l0,0
		c-8.4-14.5-14.4-29.575-16.925-42.5c-1.475-7.55-1.75-14.475-0.8-20.05c1.05-6.075,3.525-10.4,7.2-12.525
		C47.025,9.975,59.7,14.425,72.6,25.9c9.15,8.125,18.75,20.475,27.025,34.775c8.825,15.25,14.75,29.625,17.1,41.575
		c1.525,7.75,1.775,14.95,0.7,20.8c-1.149,6.226-3.75,10.65-7.5,12.825C108.05,136.975,105.825,137.525,103.35,137.525z
		 M55.3,86.375c8.1,14,18.15,26.675,27.55,34.75c11.275,9.7,20.226,11.8,24.101,9.55c4.024-2.325,6.975-11.85,3.925-27.25
		c-2.25-11.3-7.925-25.05-16.425-39.725C86.475,49.925,77.3,38.1,68.625,30.4c-12.15-10.8-22-13.225-26.025-10.9
		c-2.05,1.175-3.575,4.15-4.3,8.35c-0.825,4.85-0.575,11.05,0.775,17.875C41.475,58,47.225,72.425,55.3,86.375L55.3,86.375z"/>
</g>
</svg>
