<?xml version="1.0" encoding="utf-8"?>
<!-- Generator: Adobe Illustrator 16.0.0, SVG Export Plug-In . SVG Version: 6.00 Build 0)  -->
<!DOCTYPE svg PUBLIC "-//W3C//DTD SVG 1.1//EN" "http://www.w3.org/Graphics/SVG/1.1/DTD/svg11.dtd">
<svg version="1.1" xmlns="http://www.w3.org/2000/svg" xmlns:xlink="http://www.w3.org/1999/xlink" x="0px" y="0px"
	 width="557.445px" height="525.14px" viewBox="284.446 70.139 557.445 525.14"
	 enable-background="new 284.446 70.139 557.445 525.14" xml:space="preserve">
<g id="background">
	<path opacity="0.05" d="M833.126,595.24h8.765c-0.474-0.811-28.755-93.11-29.069-93.979c-2.122-5.832-4.146-11.699-6.272-17.532
		c-5.716-15.679-11.415-31.366-17.24-47.006c-1.403-3.773-1.892-8.142-4.697-11.118c-7.643-8.11-16.291-15.115-25.163-21.845
		c-8.763-6.643-19.255-6.903-29.475-8.192c-4.84-0.612-9.758-0.548-14.55-1.602c0.001-0.001,0.001-0.002,0.002-0.003
		c0.239-0.854,0.478-1.701,0.718-2.555c0.002-0.002,0.004-0.005,0.005-0.007c1.104-2.849,2.403-5.636,3.279-8.551
		c3.058-10.2,7.646-19.525,14.714-27.602c5.044-5.765,8.18-12.598,9.605-20.073c0.992-5.19,0.077-10.524,0.339-15.786
		c0.259-5.22,0.909-10.547,4.445-14.564c2.592-2.945,3.612-5.938,3.278-9.637c1.902-1.636,1.223-2.923-0.551-4.06
		c-0.003,0-0.006-0.001-0.008-0.001c0.003-0.001,0.007-0.002,0.01-0.003c0.626-1.936-0.208-3.719-0.629-5.526
		c-1.059-4.568-2.223-9.229-0.085-13.681c3.957-8.235,4.278-16.908,3.752-25.747c-0.131-2.2,0.707-4.444-0.299-6.601
		c0-0.002,0.001-0.004,0.001-0.006c-0.115-2.642,0.094-5.299-0.499-7.907c0-0.003-0.001-0.007-0.001-0.01
		c-0.182-4.326-0.24-8.66-0.601-12.972c-0.183-2.196,0.433-3.225,2.655-3.554c4.849-0.717,7.886-3.545,9.271-8.262
		c1.046-3.566,2.338-7.062,3.356-10.634c1.036-3.642,2.948-6.517,6.089-8.726c3.537-2.483,6.882-5.236,10.302-7.888
		c0.465-0.36,1.031-0.79,0.792-1.477c-0.218-0.628-0.88-0.399-1.359-0.423c-5.559-0.255-9.188-3.291-11.327-8.167
		c-2.227-5.062-4.374-10.171-6.261-15.368c-1.852-5.087-4.256-9.808-7.419-14.205c-2.75-3.819-5.987-6.376-10.999-6.062
		c-5.611,0.354-9.25-2.456-11.655-7.38c-1.592-3.255-3.506-6.357-5.321-9.502c-1.936-3.354-4.67-5.078-8.745-4.772
		c-4.971,0.374-4.985,0.221-3.529,4.913c0.312,0.998,0.81,2.109-0.007,2.939c-0.907,0.923-1.951,0.124-2.861-0.294
		c-0.939-0.435-1.814-1.007-2.735-1.483c-5.13-2.652-10.655-4.114-16.204-5.578c2.354,1.985,4.729,3.824,6.498,6.294
		c0.484,0.674,1.149,1.423,0.56,2.335c-0.59,0.909-1.514,0.672-2.355,0.444c-0.831-0.227-1.709-0.417-2.45-0.831
		c-2.957-1.655-5.92-1.574-8.97-0.316c-0.955,0.393-1.978,0.63-2.987,0.858c-1.655,0.372-2.744,0.066-3.156-1.95
		c-0.338-1.655-1.285-3.181-1.962-4.767c0,0,0.001,0,0.001-0.001c-2.549-5.001-6.288-8.558-11.912-9.847l0,0c0,0,0,0,0-0.001
		c-2.128-0.628-4.222-1.06-6.518-0.723c-6.529,0.96-12.415,3.548-18.19,6.572c-6.259,3.279-9.831,8.299-11.323,15.214
		c-1.499,6.926-2.539,13.911-3.499,21.117c-4.636-2.207-9.021-4.438-13.669-6.08c-7.675-2.709-18.015-0.087-23.065,6.294
		c-7.594,9.596-13.212,20.339-16.279,32.173c-3.351,12.937-4.083,26.293-5.222,39.564c-0.932,10.84-0.841,21.792-3.512,32.448
		c-0.471,1.882-1.135,3.776-0.032,5.674c0,0.005,0.001,0.01,0.001,0.016c-0.002-0.004-0.003-0.009-0.004-0.012
		c-0.215,0.133-0.109,1.105-0.708,0.218c-0.617-0.913-1.249-1.856-2.058-2.588c-2.922-2.657-7.829-2.255-9.828,0.727
		c0-0.001,0-0.002,0-0.003c-1.308,1.123-2.735,2.14-3.894,3.396c-2.263,2.448-4.926,4.761-4.292,8.667
		c0.002-0.002,0.005-0.003,0.006-0.005c0,0.002-0.002,0.004-0.003,0.007c-0.373,4.256,1.073,8.537-0.403,12.81
		c-2.627,7.597-0.679,15.097,0.791,22.582c0,0,0,0,0,0.001c1.743,9.139,7.328,14.676,16.121,17.21l0.001,0.001
		c1.293,0.873,1.697,2.238,2.181,3.637c1.634,4.72,1.492,9.61,1.593,14.484c0.108-1.717,0.221-3.432,0.335-5.148
		c0.019,1.716-0.045,3.44-0.33,5.143c-0.053,0.696-0.104,1.391-0.158,2.087c0.166,1.752,0.039,3.484-0.371,5.193
		c-1.255,2.648-0.3,5.459-0.604,8.178c-0.048,1.602-0.154,3.203-0.217,4.805c-0.112,0.662-0.324,1.574-0.59,2.577
		c-4.47-0.371-10.466,0.113-28.279,5.669c-4.278,2.144-12.78,18.249-12.898,21.439c-0.11,2.942-8.91,4.715-11.761,5.598
		c-0.715,1.11-1.974,0.904-2.999,1.263c-6.893,3.399-13.778,6.831-20.687,10.206c-4.186,2.046-8.218,4.416-12.521,6.23
		c-7.425,3.494-14,8.316-20.566,13.149c-1.475,1.206-3.169,2.108-4.648,3.312c-7.849,6.39-15.956,12.449-23.723,18.943
		c-8.03,6.715-16.176,13.296-24.166,20.055c-11.367,9.607-32.071,28.077-33.41,29.028c-17.751,15.503-22.702,86.836-22.687,95.66
		c0.002,1.201-0.112,2.446,0.79,3.449c2.601,0,5.197,0,7.796,0c0.001,0,0.003,0,0.004,0c9.703,0,19.407,0,29.11,0
		c0.001-0.001,0.001-0.004,0.002-0.005c80.063,0,160.129,0,240.193,0c0.002-0.002,0.002-0.004,0.002-0.005
		c0.001,0.003,0.002,0.005,0.003,0.008c8.318,0,16.638,0,24.955,0c1.733,0,3.465,0,5.197,0h0.001c2.253,0,4.505,0,6.76,0v-0.001
		c1.04,0,2.078,0,3.119,0c0-0.001,0-0.002,0-0.003c3.984,0,7.968,0,11.951,0c0-0.001,0-0.001,0-0.002
		c0.002,0.002,0.002,0.004,0.004,0.006c29.983,0,59.963,0,89.945,0c0,0.001,0,0.001,0,0.002c1.736,0,3.466,0,5.203,0
		c0.002-0.001,0.002-0.001,0.003-0.002c3.637,0,7.273,0,10.911,0c0,0.001,0,0.001,0.001,0.002c9.097,0,18.191-0.022,27.289,0.03
		c0.003,0.001,0.004,0.002,0.006,0.003h0.977c0.108,0.001,0.217,0,0.325,0.001c0.012,0,0.021-0.001,0.033-0.001L833.126,595.24
		L833.126,595.24z M653.06,478.748c-0.001,0.039-0.008,0.076-0.009,0.115c-0.04-0.025-0.077-0.043-0.116-0.064
		c0.042-0.017,0.08-0.036,0.123-0.05C653.059,478.748,653.059,478.748,653.06,478.748C653.06,478.748,653.06,478.748,653.06,478.748
		z M643.697,480.31c0.024,0.021,0.048,0.043,0.072,0.064c-0.012,0.007-0.023,0.013-0.035,0.02
		C643.721,480.366,643.709,480.339,643.697,480.31z M665.914,106.958c0.051-0.021,0.104-0.027,0.155-0.045
		c0.42,0.207,0.896,0.246,1.37,0.246c5.325-0.013,9.177,2.62,12.237,6.724c0.445,0.598,0.802,1.342,1.604,1.527
		c0.14,1.989-0.857,2.587-2.688,2.244c-1.283-0.242-2.515-0.62-3.699-1.161c-0.75-0.344-1.189-0.896-1.33-1.766
		c-0.43-2.667-0.637-2.82-3.216-1.978c-5.009,1.641-9.993,3.364-15.132,4.561c-1.625,0.378-3.266,0.787-5.322,0.671
		C654.229,112.316,659.466,108.757,665.914,106.958z M565.598,364.217c-0.078,0.251-0.157,0.496-0.234,0.735
		c0.01-0.147,0.029-0.29,0.027-0.443C565.394,364.412,565.472,364.314,565.598,364.217z M563.486,369.344
		c-0.17,0.371-0.362,0.785-0.577,1.243c0.031-0.15,0.072-0.291,0.101-0.445C563.161,369.874,563.322,369.609,563.486,369.344z
		 M776.782,592.123c0.001-0.012,0.005-0.02,0.007-0.03c0.006,0.002,0.013,0.004,0.018,0.006
		C776.8,592.106,776.79,592.113,776.782,592.123z"/>
</g>
<g id="person">
	<g id="Layer_1_1_">
		<g>
			<path fill="#D2DFEB" d="M491.63,356.993c30.214-9.424,27.854-4.868,39.017-5.215c1.799-0.058-10.592,1.404-10.633,2.746
				c0.033,2.323-1.434,4.015-2.485,5.878c-3.396,18.333-26.674,15.781-25.105,17.465c0.631,0.632,1.145,1.342,1.541,2.139
				c2.17,2.528,4.351,5.049,6.302,7.757c3.715,5.183,7.102,10.59,10.581,15.931c1.677,2.574,3.428,4.996,5.559,7.228
				c2.606,2.725,4.861,5.77,7.516,8.481c5.014,5.124,10.758,9.22,16.764,13.073c4.388,2.813,8.953,5.333,13.275,8.239
				c1.547,1.375,3.455,2.153,5.222,3.164c0.207,0.118,0.397,0.26,0.585,0.405c0.977,0.841,2.186,1.331,3.206,2.106
				c0.768,0.6,1.776,0.616,2.604,1.067c4.238,3.19,8.791,5.855,13.521,8.238c1.449,0.479,2.218,1.83,3.403,2.651
				c0.675,0.708,1.301,1.45,1.438,2.473c0.404,4.417,2.363,8.314,4.263,12.195c0.903,1.854,2.159,3.546,3.223,5.333
				c0.964,1.621,2.262,2.762,4.083,3.354c3.224,1.058,4.849,3.32,4.771,6.729c-0.026,1.197,0.276,2.323,0.533,3.473
				c0.339,3.418,0.234,6.846,0.142,10.266c-0.124,4.594,0.768,9.139,0.47,13.728c0.621,9.006,0.884,18.034,1.991,27.003
				c0.799,6.589,0.096,13.44,2.514,19.728c1.477,3.847,0.92,7.918,2.282,11.682c0.122,0.333,0.102,0.719,0.046,1.075
				c-0.804,5.018,0.21,9.852,1.404,14.681c0.427,1.729,0.95,3.53-0.34,5.177c-8.679,0-17.359,0-26.039,0
				c-0.681-2.216-2.683-3.325-4.131-4.889c-6.008-6.487-12.151-12.861-18.42-19.075c-6.286-6.23-11.947-13.007-18.129-19.315
				c-6.055-6.183-12.04-12.442-18.248-18.456c-6.798-6.584-13.455-13.309-20.281-19.861c-3.458-3.321-7.422-6.087-10.782-9.438
				c-3.775-3.768-7.789-7.216-11.79-10.709c-0.146-0.128-0.29-0.21-0.643-0.196c0.458,1.588,1.281,2.99,1.807,4.499
				c0.363,1.046,0.662,2.189,0.326,3.193c-0.932,2.795,0.854,3.835,2.785,5.046c7.569,4.742,14.929,9.8,21.761,15.577
				c2.533,2.144,3.104,5.755,1.638,8.913c-1.159,2.491-5.127,4.729-7.803,4.304c-7.963-1.263-15.637-3.575-23.168-6.41
				c-3.126-1.176-6.376-1.996-9.439-3.362c-1.643-0.73-2.691,0.47-3.691,1.561c-2.474,2.69-3.808,6.109-5.788,9.124
				c-2.575,3.924-4.948,7.969-8.12,11.467c-0.605,0.668-1.205,1.344-1.709,2.1c-1.375,2.073-1.136,3.101,1.343,4.121
				c2.752,1.133,5.438,2.479,8.282,3.336c3.363,1.012,6.572,2.467,10.031,3.221c4.111,0.893,6.396,4.747,5.782,9.359
				c-0.444,3.354-3.755,5.954-7.6,5.983c-2.775,0.021-5.283-1.072-7.857-1.886c-8.191-2.577-16.097-5.881-23.838-9.554
				c-3.801-1.804-7.738-3.372-11.233-5.778c-3.358-2.312-7.23-3.677-10.704-5.75c-3.479-2.075-6.804-4.418-10.316-6.442
				c-6.655-3.84-12.657-8.606-18.794-13.179c-5.206-3.88-10.344-7.859-15.506-11.798c-4.217-3.22-8.152-6.697-11.987-10.364
				c-2.101-2.009-4.484-3.806-6.587-5.88c-3.411-3.221-6.625-6.612-9.452-10.363c-1.065-1.414-1.908-1.396-3.142,0.099
				c-5.176,6.267-9.688,13.019-14.485,19.557c-4.79,6.529-8.629,13.584-11.154,21.243c-2.679,8.125-4.607,16.479-6.385,24.852
				c-1.124,5.28-2.699,10.47-3.13,15.905c-0.145,1.813-0.289,3.572-0.015,5.37c0.604,3.952,0.229,7.931,0.277,11.894
				c0.01,0.739-0.171,1.435-0.713,1.985c-2.714,0-5.425,0-8.14,0c-0.941-1.046-0.822-2.345-0.824-3.599
				c-0.016-9.207,5.15-83.639,23.673-99.815c1.397-0.992,23.001-20.265,34.861-30.289c8.337-7.053,16.836-13.92,25.215-20.926
				c8.104-6.776,16.564-13.1,24.754-19.767c1.543-1.255,3.312-2.197,4.85-3.455c6.853-5.043,13.713-10.075,21.46-13.721
				c4.49-1.894,8.697-4.366,13.064-6.501c7.208-3.522,14.394-7.103,21.585-10.649c1.07-0.374,2.384-0.159,3.13-1.317
				c2.975-0.922,12.156-2.771,12.271-5.841C478.294,376.035,487.165,359.229,491.63,356.993z"/>
			<path fill="#CCD7E9" d="M351.09,504.104c3.847,4.075,8.115,7.7,12.375,11.327c9.781,8.329,20.354,15.627,30.54,23.435
				c4.795,3.675,10.279,6.232,15.139,9.757c6.188,4.489,13.245,7.463,19.782,11.331c4.9,2.902,10.634,4.794,15.875,7.303
				c4.985,2.389,10.366,3.425,15.36,5.659c2.391,1.069,5.01,1.932,7.807,1.735c3.021-0.208,6.115-2.852,6.27-5.563
				c0.251-4.495-2.063-7.895-5.52-8.589c-5.071-1.018-9.889-2.913-14.606-4.985c-1.865-0.82-4.014-1.024-5.593-2.532
				c-1.014-0.97-1.624-1.623-0.389-3.069c4.513-5.284,8.547-10.94,12.103-16.923c1.543-2.597,2.722-5.414,4.905-7.611
				c1.354-1.361,2.519-1.705,4.502-0.87c7.491,3.155,15.229,5.659,23.076,7.785c2.852,0.773,5.721,1.404,8.667,1.793
				c3.489,0.456,7.16-2.544,7.649-5.998c0.474-3.344-1.007-5.129-3.403-7.146c-5.877-4.945-12.518-8.792-18.566-13.464
				c-0.408-0.316-1.008-0.382-1.429-0.686c-1.851-1.335-4.769-1.854-3.352-5.446c0.796-2.014-0.413-4.086-1.387-5.899
				c-0.703-1.313-0.845-2.639-1.513-4.871c3.452,3.02,6.132,5.415,8.867,7.744c4.389,3.737,8.391,7.891,12.896,11.528
				c4.029,3.256,7.444,7.271,11.156,10.927c3.726,3.664,7.498,7.288,11.221,10.953c4.01,3.952,7.964,7.964,11.985,11.901
				c4.281,4.188,8.332,8.601,12.537,12.856c3.457,3.498,6.287,7.682,9.949,11.002c4.716,4.273,8.492,9.425,13.354,13.565
				c3.254,2.772,5.539,6.587,8.896,9.335c0.688,0.563,1.208,1.44,1.981,1.778c1.605,0.698,1.489,1.78,1.048,3.071
				c-83.545,0-167.089,0-250.633,0c-0.559-0.71-0.218-1.388,0.151-2.001C317.188,544.735,350.863,506.194,351.09,504.104z"/>
			<path fill="#CCD7E9" d="M731.38,595.242c-31.286,0-62.567,0-93.854,0c-0.53-0.592-0.595-1.281-0.422-2.028
				c1.603-6.794,0.125-13.38-1.08-20.053c-1.946-10.757-5.259-21.164-7.724-31.789c-1.531-6.601-3.121-13.178-3.701-19.896
				c-0.633-7.356-0.596-14.778,1.91-21.915c0.576-1.637,0.544-3.374,0.973-5.041c2.61-10.153,7.438-19.321,12.447-28.419
				c1.015-1.842,2.497-2.073,4.092-1.061c5.947,3.783,12.398,6.687,18.311,10.524c0.608,0.394,1.203,0.808,1.862,1.104
				c2.902,1.3,5.171,0.48,6.968-2.116c1.552-2.243,1.51-4.976,2.616-7.323c3.771-2.229,7.131-5.024,9.606-8.6
				c3.218-4.655,7.065-8.906,9.231-14.277c1.188-2.94,3.833-4.748,6.64-5.624c2.507-0.78,4.491-2.209,6.65-3.471
				c4.573-2.67,7.646-1.096,8.268,4.198c0.134,1.157-0.537,2.983,1.095,3.223c1.372,0.198,1.831-1.564,2.354-2.651
				c1.217-2.511,2.114-5.174,3.958-7.357c1.084-1.285,2.197-2.59,4.052-2.119c2.002,0.512,2.479,2.162,2.419,4.032
				c-0.007,0.18,0,0.365,0.05,0.536c0.324,1.114-0.246,2.735,1.59,3.009c1.192,0.178,3.039-1.642,3.265-3.146
				c0.095-0.63-0.065-1.259-0.075-1.891c-0.043-3.146,1.657-4.291,4.498-2.889c1.79,0.886,3.421,2.023,4.07,4.117
				c0.432,1.394,1.317,2.561,2.047,3.804c0.419,0.709,0.944,1.063,1.779,0.729c2.218,1.236,1.691,3.326,1.232,5.047
				c-2.582,9.692-5.96,19.136-9.13,28.646c-3.166,9.506-6.723,18.894-9.086,28.652c-0.702,2.906-1.814,5.68-2.803,8.488
				c-0.675,1.922-2.127,2.506-3.531,1.099c-3.146-3.154-7.052-4.964-10.883-6.979c-1.938-1.02-1.662-2.832-1.187-4.542
				c0.546-1.957,0.859-3.855-0.016-5.821c-1.425-3.192-4.563-4.31-7.629-2.561c-1.494,0.851-2.903,1.849-4.079,3.12
				c-2.712,2.938-6.007,3.722-9.873,3.015c-2.303-0.422-4.64-0.77-6.994-0.81c-2.877-0.055-4.968,1.646-5.85,4.647
				c-0.638,2.18,0.312,4.723,2.521,6.072c3.34,2.041,6.831,3.604,10.926,3.49c4.492-0.126,8.771,0.918,12.83,2.892
				c2.021,0.983,4.176,1.676,6.244,2.575c5.958,2.585,9.907,7.018,12.729,12.689c1.376,2.765,1.237,5.759,1.575,8.689
				c-0.578,0.722-1.419,1.101-2.154,1.615c-1.737,1.217-2.154,2.715-1.916,4.892c0.596,5.377,2.274,10.336,4.721,15.103
				c0.959,1.869,1.34,3.886,1.44,5.993c0.13,2.634,1.14,4.746,3.445,6.371c3.19,2.25,4.861,5.495,4.861,9.478
				c0,2.079,0.171,4.133,0.405,6.195C733.413,589.843,732.352,592.549,731.38,595.242z"/>
			<path fill="#D2DFEB" d="M722.156,537.196c-1.75-3.23-0.786-7.227-3.141-10.359c-3.052-4.057-5.969-7.919-11.036-9.972
				c-4.942-2.003-9.66-4.479-14.992-5.436c-1.632-0.293-3.236-0.31-4.846-0.249c-4.572,0.179-8.355-1.956-11.831-4.408
				c-1.899-1.339-2.738-4.139-1.672-6.298c1.128-2.283,2.095-5.431,5.783-5.051c2.767,0.287,5.552,0.466,8.288,0.911
				c3.222,0.522,5.928-0.028,8.426-2.352c2.038-1.894,3.703-4.461,7.049-4.564c4.745-0.145,7.428,2.575,7.146,7.326
				c-0.122,2.051-2.395,4.21-0.451,6.042c1.489,1.405,3.664,2.184,5.65,2.932c2.023,0.761,3.421,2.165,4.779,3.689
				c0.738,0.828,1.55,1.749,2.699,1.48c1.104-0.257,0.616-1.547,0.95-2.318c2.811-6.521,4.182-13.504,6.312-20.236
				c4.473-14.174,10.155-27.953,13.745-42.419c0.592-2.385,2.155-4.622-0.072-6.918c-1.48-3.646-1.542-7.555-1.764-11.372
				c-0.149-2.558-1.086-4.173-3.127-5.552c-11.373-7.676-22.87-15.157-34.938-21.719c-1.669-0.909-3.46-1.558-5.151-2.415
				c-1.441-0.73-2.886-0.855-4.449-0.35c-1.802,0.584-3.645,1.092-5.521,1.354c-1.956,0.271-2.703,1.301-2.908,3.227
				c-0.726,6.729-1.431,13.466-2.5,20.149c-1.768,11.049-4.065,21.998-6.544,32.906c-0.642,2.811-1.354,5.604-1.894,8.438
				c-0.251,1.342-0.545,2.663-1.733,3.549c-0.794,2.808-1.092,5.724-2.91,8.245c-1.813,2.517-5.067,3.795-7.604,2.032
				c-6.493-4.506-13.945-7.357-20.35-12.004c-0.879-0.638-2.021-0.959-2.72,0.417c-2.549,5.016-5.318,9.935-7.563,15.084
				c-2.486,5.706-4.271,11.637-5.866,17.719c-1.634,6.229-2.192,12.386-2.218,18.575c-0.03,7.683,1.479,15.257,3.681,22.688
				c1.396,4.701,1.894,9.671,3.328,14.354c1.287,4.205,2.348,8.458,3.378,12.712c1.788,7.378,3.235,14.813,3.13,22.494
				c-0.025,2.077-1.435,3.689-1.18,5.71c-4.158,0-8.317,0-12.477,0c-0.923-0.726-1.279-1.719-1.312-2.847
				c-0.144-5.314-1.279-10.522-1.638-15.815c-0.271-3.971-1.527-7.77-2.409-11.632c-2.85-12.45-7.189-24.554-8.771-37.287
				c-0.555-4.462-0.574-8.988-0.748-13.483c-0.22-6.162,0.398-12.398,2.093-18.169c2.678-9.128,5.814-18.188,10.082-26.783
				c1.886-3.799,3.81-7.563,5.994-11.189c0.913-1.519,1.437-3.095,1.396-4.861c0.784-4.769,4.41-8.13,8.464-7.849
				c0.311,0.188,0.511,0.57,0.844,0.66c7.464,1.967,13.538,6.74,20.324,10.066c1.428,0.7,2.187,0.985,2.623-0.947
				c2.511-11.064,5.063-22.124,6.957-33.315c1.187-7.009,1.932-14.084,2.561-21.161c-0.279-2.386,1.337-4.556,0.801-6.975
				c0.663-2.76,2.104-5.205,3.204-7.786c0.172-0.409,0.528-0.697,1.047-0.604c5.003,1.101,10.137,1.033,15.188,1.672
				c10.664,1.346,21.612,1.617,30.756,8.549c9.257,7.021,18.281,14.331,26.256,22.793c2.928,3.106,3.438,7.664,4.901,11.602
				c6.078,16.319,12.025,32.688,17.989,49.048c2.218,6.086,4.33,12.208,6.545,18.294c0.328,0.905,29.838,97.215,30.332,98.061
				H796.57c-5.062-8.745-29.188-94.171-33.732-103.214c-3.646-7.255-6.268-14.93-10.137-22.575
				c-2.087,5.855-4.225,11.26-5.807,16.869c-1.247,4.428-3.128,8.668-4.224,13.135c-1.37,5.589-3.501,10.973-4.202,16.749
				c-0.424,3.479-1.295,6.91-2.122,10.325c-0.35,1.434-0.408,2.851-0.424,4.297c-0.016,1.264,0.001,2.523-0.433,3.745
				c-1.688,4.77-4.368,6.208-9.921,5.299C724.074,539.463,722.424,539.199,722.156,537.196z"/>
			<path fill="#CBD6E9" d="M725.411,539.366c4.48,1.114,7.665-0.321,9.312-4.755c0.184-0.495,0.46-1.029,0.424-1.524
				c-0.417-5.469,1.674-10.548,2.382-15.832c1.046-7.833,3.427-15.327,5.869-22.754c2.624-7.991,4.803-16.15,8.143-23.901
				c0.198-0.458,0.097-1.032,0.209-1.535c0.118-0.526,0.294-1.104,0.941-1.173c0.729-0.078,0.716,0.538,0.941,1.036
				c3.152,7.012,5.792,14.222,9.205,21.162c3.938,8.009,8.11,15.865,12.558,23.574c1.133,1.971,16.738,71.466,23.985,81.615h-22.703
				c-3.359-1.249-0.097-8.077-1.086-8.181c-3.234-0.344-6.424-0.775-9.418-2.235c-1.737-0.846-3.303-1.761-4.503-3.322
				c-1.434-1.866-3.288-2.854-5.78-2.969c-4.403-0.207-10.248-5.255-11.474-9.521c-0.876-3.046-1.438-6.103-1.366-9.311
				c0.096-4.11-1.121-4.953-5.126-4.003c-4.453,1.058-6.857-0.07-7.975-4.467c-0.825-3.235-3.104-5.946-3.146-9.417
				C726.789,540.807,725.296,540.523,725.411,539.366z"/>
			<path fill="#C7D3E3" d="M351.09,504.104c1.087,1.938,0.486,3.385-1.009,4.931c-2.096,2.174-2.102,7.229-1.059,10.074
				c1.142,3.116,3.897,5.51,3.743,9.223c-0.174,4.163-1.875,6.42-6.032,7.227c-4.634,0.896-8.638,32.628-8.639,37.194
				c0,2.437-4.503,20.126-5.449,22.491c-10.126,0-20.253,0-30.379,0c-0.172-5.128-3.686-62.425,23.255-85.57
				c4.17-5.438,8.287-10.952,12.25-16.558c1.239-1.754,1.857-1.65,3.131-0.093C344.073,496.915,347.172,500.89,351.09,504.104z"/>
			<path fill="#C6D0E5" d="M725.411,539.366c0.662,0.793,2.256,0.37,2.238,2.19c-0.037,4.006,2.717,7.188,3.607,10.978
				c0.657,2.78,2.89,3.38,5.509,2.659c1.127-0.313,2.257-0.878,3.383-0.877c2.305,0.004,3.553,1.304,3.724,3.68
				c0.203,2.844,0.083,5.647,0.622,8.55c1.071,5.726,4.992,8.47,9.42,10.986c0.712,0.403,1.78,0.464,2.618,0.313
				c2.546-0.466,4.449,1.173,5.465,2.706c2.626,3.956,6.646,4.604,10.631,5.417c2.32,0.473,4.775,0.854,7.034-0.489
				c0,2.714-0.089,5.431,0.037,8.137c0.062,1.366-0.308,1.672-1.664,1.664c-9.948-0.066-19.892-0.036-29.839-0.036
				c-0.171-0.195-0.281-0.426-0.336-0.679c-0.228-1.5-0.771-2.942-0.678-4.506c0.043-0.717-0.223-1.587-0.796-1.953
				c-2.415-1.552-2.219-3.919-2.175-6.274c0.01-0.539,0.01-1.081-0.06-1.619c-0.1-0.804-0.46-1.396-1.348-1.399
				c-0.982-0.001-1.554,0.567-1.5,1.527c0.1,1.893-0.679,3.786-0.107,5.651c0.632,2.063-0.662,3.875-0.57,5.856
				c-0.218,2.324-2.494,2.323-3.819,3.396c-1.813,0-3.618,0-5.43,0c1.016-4.999,0.699-10.049,0.559-15.097
				c-0.086-3.182-1.364-6.042-3.791-7.703c-3.26-2.229-4.798-4.719-4.575-8.718c0.135-2.47-1.077-4.989-2.426-6.995
				c-3-4.457-3.078-9.669-4.028-14.563c-0.5-2.574,2.205-4.438,5.042-4.971C723.24,537.919,724.327,538.641,725.411,539.366z"/>
			<path fill="#CCD7E8" d="M610.944,513.868c0.199,8.483,0.803,16.956,2.854,25.188c1.432,5.755,3.422,11.463,4.727,17.183
				c1.994,8.744,5.047,17.356,4.995,26.564c-0.022,4.143,0.988,8.294,1.531,12.438c-1.086,0-2.17,0-3.255,0
				c-0.666-3.14-2.275-5.916-3.427-8.869c-0.188-3.408-0.402-6.812-1.057-10.168c-0.558-1.034-1.19-2.083-1.117-3.29
				c0.49-7.96-2.871-14.932-5.715-22.006c-2.896-7.206-5.756-14.382-5.813-22.313c-0.007-1.008-0.462-1.922-0.758-2.866
				c-0.385-1.86-0.293-3.752-0.213-5.618C603.859,516.466,607.149,513.699,610.944,513.868z"/>
			<path fill="#C2CCDF" d="M619.081,586.563c1.249,2.785,3.55,5.244,2.716,8.679c-2.354,0-4.704,0-7.055,0
				c-0.888-0.957-0.884-2.176-0.766-3.32c0.436-4.225-0.326-8.451,0.012-12.655c0.403-4.998-1.605-9.315-3.413-13.709
				c-0.305-0.744-0.9-1.41-0.859-2.236c0.158-3.228-1.229-6.042-2.749-8.636c-1.574-2.688-1.953-5.796-3.582-8.403
				c-0.604-0.965,0.058-2.159-0.579-3.114c-1.079-1.669-0.793-3.67-0.948-5.44c-0.627-7.208-0.848-14.453-1.219-21.687
				c0.403-0.323,0.815-0.302,1.236-0.028c0.732,3.295,2.639,6.285,2.563,9.794c2.182,2.334,1.052,5.365,1.439,8.009
				c0.822,5.642,2.896,10.805,5.018,15.948c2.49,6.037,4.717,12.144,6.246,18.484c0.276,1.152-0.104,2.472-0.234,3.708
				c-0.147,1.412,0.161,2.673,1.094,3.759C618.615,579.304,617.935,583.025,619.081,586.563z"/>
			<path fill="#C5CFE5" d="M602.804,543.166c2.019,4.578,3.95,9.199,6.094,13.717c0.946,2.001,1.409,3.966,1.624,6.173
				c0.19,1.949,1.261,3.855,2.135,5.691c1.277,2.684,2.179,5.372,2.119,8.421c-0.11,6.022-0.032,12.05-0.032,18.074
				c-1.808,0-3.615,0-5.424,0c0.476-4.045-1.409-7.72-1.854-11.634c-0.307-2.699-0.49-5.338,0.005-8.011
				c0.018-0.087,0.105-0.21,0.076-0.247c-2.14-2.66-0.108-5.908-1.32-8.78c-1.771-4.188-2.663-8.641-2.878-13.209
				C603.191,549.964,602.988,546.563,602.804,543.166z"/>
			<path fill="#D4DFEC" d="M748.195,594.706c0,0.181,0.001,0.358,0.001,0.536c-3.797,0-7.594,0-11.389,0
				c0.802-1.628,2.694-1.976,3.807-3.242C744.012,590.383,746.506,591.27,748.195,594.706z"/>
			<path fill="#E8B59E" d="M716.815,224.156c1.052,2.251,0.177,4.594,0.313,6.89c0.549,9.223,0.214,18.272-3.915,26.865
				c-2.231,4.646-1.017,9.509,0.089,14.275c0.438,1.886,1.309,3.747,0.656,5.767c-9.635,2.463-19.354,3.866-29.324,2.521
				c-1.41-0.191-3.46-0.845-4.058,0.979c-0.674,2.076,1.074,3.282,2.807,4.017c3.819,1.629,7.845,1.045,11.752,0.629
				c5.729-0.611,11.469-1.396,16.834-3.765c0.795-0.349,1.671-0.775,2.562-0.141c0.349,3.86-0.717,6.982-3.421,10.056
				c-3.689,4.192-4.368,9.75-4.639,15.197c-0.272,5.49,0.682,11.056-0.354,16.472c-1.487,7.8-4.76,14.93-10.022,20.945
				c-7.376,8.427-12.162,18.157-15.354,28.801c-0.914,3.041-2.27,5.949-3.421,8.922c-0.856,0.836-1.228,1.971-1.794,2.979
				c-2.035,3.625-4.021,7.221-7.732,9.553c-2.182,1.368-3.352,3.752-4.681,5.903c-2.045,3.307-4.158,6.567-6.514,9.665
				c-2.385,3.137-5.367,5.033-9.499,4.675c-4.177-0.361-7.908,0.639-11.588,2.854c-5.031,3.022-10.642,2.145-16.119,1.158
				c-3.88-0.697-7.15-2.429-9.62-5.573c-3.038-3.874-6.977-5.23-11.771-4.138c-0.793,0.184-1.639,0.134-2.414,0.339
				c-7.305,1.976-11.521-2.951-13.329-9.039c-0.646-2.168-0.754-4.454-1.322-6.646c-1.273-4.889-4.185-6.201-8.62-3.896
				c-2.775,1.439-4.458,0.961-6.065-1.815c-1.624-2.804-2.063-5.961-2.507-9.092c-0.279-1.964-0.639-3.936-0.719-5.915
				c-0.251-6.214-2.896-11.243-7.24-15.571c-3.392-3.379-6.815-6.731-10.235-10.078c-4.063-3.979-6.249-8.751-7.384-14.182
				c-1.096-5.231-1.727-10.531-2.156-15.834c-0.521-6.406-1.678-12.713-2.55-19.062c-0.967-7.013-1.031-14.054-0.753-21.094
				c0.175-4.416,1.637-8.498,5.521-10.975c6.537-4.17,7.861-10.043,6.537-17.161c-0.459-2.466-0.427-5.03-0.731-7.541
				c-0.649-5.354,1.567-9.884,4.138-14.309c2.499-4.304,5.309-8.412,8.146-12.488c4.019-5.769,6.277-12.263,7.526-19.027
				c1.67-9.04,6.287-16.234,12.658-22.531c2.571-2.542,4.679-5.511,7.385-7.932c2.114-1.893,2.782-2.02,4.742,0.034
				c3.496,3.655,6.855,7.434,10.473,10.978c5.215,5.108,11.101,9.225,17.606,12.508c3.271,1.649,6.474,2.123,9.815,0.215
				c1.656-0.946,3.521-1.173,5.207-0.228c5.053,2.827,10.652,3.92,16.142,5.402c9.801,2.65,19.427,5.963,28.259,10.923
				c5.836,3.278,11.534,3.497,17.707,2.32c3.748-0.712,7.327-1.669,10.692-3.643c4.153-2.438,6.635-1.563,8.782,2.745
				c1.961,3.936,2.498,8.249,2.882,12.564c-0.146,1.419,0.363,2.801,0.271,4.223c-0.017,0.263-0.001,0.528,0.001,0.795
				C716.563,224.476,716.592,224.247,716.815,224.156z"/>
			<path fill="#E8B59E" d="M523.67,242.584c1.394,3.603,2.737,7.225,4.196,10.8c1.852,4.54,1.113,9.172,0.021,13.588
				c-2.965,12.043-2.696,24.319-3.271,36.552c-0.373,7.913-0.966,15.817-1.461,23.729c-0.105-5.086,0.042-10.188-1.662-15.113
				c-0.505-1.46-0.927-2.884-2.275-3.795c-1.463-1.733-3.652-2.221-5.595-2.99c-3.106-1.229-5.135-3.527-6.816-6.146
				c-1.778-2.765-3.005-5.848-4.411-8.823c-1.534-7.81-3.567-15.636-0.826-23.563c1.541-4.458,0.032-8.925,0.421-13.366
				c1.013-1.873,2.297-3.578,2.701-5.781c0.269-1.437,1.59-2.329,2.669-3.26c1.21-1.049,2.526-1.992,3.168-3.545
				c2.086-3.111,7.206-3.531,10.256-0.759c0.843,0.764,1.503,1.748,2.146,2.701C523.557,243.737,523.447,242.722,523.67,242.584z"/>
			<path fill="#37241C" d="M714.528,282.196c-9.021,3.794-18.453,5.402-28.197,4.958c-3.197-0.144-6.011-1.369-6.919-4.942
				c-0.479-1.893,0.063-2.902,2.279-2.771c5.031,0.299,10.072,0.543,15.111,0.646c4.169,0.09,8.289-0.466,12.136-2.167
				c1.757-0.779,3.351-0.137,5.018,0.037C715.807,279.143,716.517,280.488,714.528,282.196z"/>
			<path fill="#DEBDAE" d="M502.397,290.383c1.76,1.581,2.918,3.651,3.637,5.776c1.685,4.962,5.127,7.747,9.882,9.461
				c1.241,0.445,3.427,0.375,3.306,2.724C510.043,305.699,504.214,299.921,502.397,290.383z"/>
			<path fill="#2F2724" d="M641.814,93.987c-0.18,0.221-0.363,0.443-0.547,0.664c-1.08-0.041-1.48-0.938-2.003-1.64
				c-3.193-4.282-7.212-7.03-12.769-7.017c-0.719,0.001-1.453-0.059-1.987-0.668c1.316-1.467,3.769,0.485,4.876-1.614
				C635.252,85.057,639.154,88.768,641.814,93.987z"/>
			<path fill="#DDBAAB" d="M510.53,240.866c0.049,0.633,0.082,1.246-0.477,1.738c-2.687,2.37-5.043,4.974-5.867,8.607
				c-0.275,1.215-1.396,1.563-2.197,2.241c-0.661-4.076,2.117-6.489,4.479-9.044C507.676,243.098,509.165,242.038,510.53,240.866z"
				/>
			<path fill="#37251B" d="M749.545,160.054c-0.228-0.655-0.919-0.417-1.419-0.441c-5.8-0.267-9.588-3.434-11.819-8.521
				c-2.323-5.282-4.563-10.613-6.532-16.036c-1.933-5.308-4.441-10.233-7.741-14.821c-2.87-3.985-6.248-6.653-11.477-6.325
				c-5.855,0.369-9.652-2.563-12.162-7.7c-1.661-3.396-3.658-6.634-5.553-9.915c-2.02-3.5-4.873-5.299-9.125-4.979
				c-5.187,0.39-5.202,0.23-3.683,5.126c0.325,1.041,0.845,2.201-0.007,3.066c-0.946,0.964-2.036,0.13-2.985-0.307
				c-0.98-0.453-1.894-1.051-2.854-1.548c-5.353-2.768-11.118-4.293-16.908-5.82c2.457,2.071,4.935,3.99,6.78,6.567
				c0.506,0.703,1.199,1.485,0.584,2.437c-0.615,0.948-1.579,0.701-2.458,0.463c-0.866-0.236-1.783-0.435-2.556-0.867
				c-3.086-1.727-6.178-1.643-9.36-0.33c-0.996,0.41-2.063,0.657-3.117,0.896c-1.727,0.388-2.862,0.068-3.293-2.035
				c-0.353-1.729-1.343-3.322-2.049-4.979c-0.496-0.092-0.714,0.215-0.873,0.608c0.151,2.086-0.891,2.714-2.805,2.354
				c-1.339-0.252-2.624-0.646-3.86-1.211c-0.782-0.359-1.241-0.936-1.388-1.843c-0.448-2.782-0.664-2.942-3.355-2.063
				c-5.226,1.712-10.427,3.51-15.789,4.759c-1.695,0.395-3.407,0.821-5.553,0.7c4.522-5.912,9.987-9.625,16.716-11.502
				c0.833-0.351,1.739-0.214,2.601-0.373c0.953-0.174,1.99-0.324,1.88-1.701c-2.221-0.655-4.405-1.106-6.801-0.754
				c-6.813,1.002-12.954,3.702-18.98,6.857c-6.53,3.422-10.258,8.66-11.815,15.875c-1.563,7.227-2.649,14.515-3.65,22.034
				c-4.837-2.303-9.413-4.631-14.263-6.344c-8.009-2.827-18.798-0.091-24.067,6.567c-7.924,10.013-13.786,21.223-16.986,33.571
				c-3.496,13.498-4.261,27.436-5.449,41.282c-0.972,11.312-0.877,22.739-3.664,33.857c-0.491,1.964-1.184,3.94-0.033,5.921
				c0.089,1.692,0.142,3.384,0.976,4.94c3.599,6.704,4.078,13.752,2.164,21.008c-3.054,11.58-2.57,23.446-2.934,35.239
				c-0.148,4.859-0.762,9.685-0.496,14.586c0.16,2.921,0.271,5.941-0.223,8.893c-0.056,0.727-0.109,1.451-0.165,2.178
				c0.173,1.827,0.041,3.636-0.388,5.419c-1.31,2.763-0.313,5.695-0.63,8.532c-0.102,3.389-0.456,6.77-0.154,10.164
				c0.773,3.15,0.634,6.47,1.871,9.535c4.466,11.082,10.917,20.959,18.505,30.094c7.85,9.453,16.622,18.062,25.474,26.557
				c6.366,6.11,12.792,12.204,20.757,16.37c5.981,3.13,11.963,5.998,18.99,5.24c3.227-0.35,6.427-0.938,9.668-1.134
				c0.854-0.055,1.658-0.473,2.535-0.38c2.063-0.07,4.085,0.201,6.102,0.625c3.146,0.661,6.31,1.2,9.552,0.877
				c2.918-0.702,5.093-2.609,7.294-4.47c1.387-1.479,3.17-2.502,4.523-4.014c0.95-1.016,2.003-1.939,2.854-3.051
				c7.308-10.384,12.876-21.909,20.834-31.871c0.928-1.163,1.827-2.455,1.938-4.062c1.281-2.866,2.563-5.731,3.845-8.598
				c0.251-0.895,0.501-1.783,0.752-2.677c-1.238,0.112-1.343,1.314-1.938,2.038c-2.07,2.497-2.826,6.037-5.586,7.897
				c-3.506,2.361-5.808,5.588-7.939,9.08c-2.169,3.541-4.356,7.084-7.24,10.123c-1.201,1.266-2.521,2.693-4.265,2.672
				c-6.324-0.082-11.899,2.183-17.837,4.034c-8.044,2.511-16.832,1.736-22.974-5.865c-3.128-3.872-6.96-4.827-11.581-3.707
				c-0.697,0.167-1.424,0.243-2.141,0.338c-7.453,0.96-11.671-2.125-13.155-9.633c-0.438-2.214-0.659-4.487-1.289-6.643
				c-1.281-4.401-5.149-5.781-8.997-3.365c-2.849,1.788-3.927,1.53-5.552-1.479c-1.761-3.26-2.389-6.881-2.468-10.471
				c-0.21-9.657-3.924-17.415-11.485-23.455c-2.314-1.849-4.239-4.185-6.393-6.247c-4.188-4.021-6.831-8.865-7.629-14.613
				c-1.533-11.089-2.967-22.193-4.431-33.298c-0.896-6.811-1.452-13.633-1.166-20.533c0.237-5.615,2.089-10.22,6.854-13.386
				c4.621-3.072,6.524-7.287,5.695-12.77c-0.16-1.068-0.063-2.183-0.28-3.235c-2.084-9.889-0.098-18.8,6.273-26.699
				c0.622-0.77,1.053-1.694,1.649-2.484c5.874-7.768,9.729-16.396,11.616-25.979c0.835-4.23,2.025-8.443,4.711-12.019
				c4.621-6.162,10.067-11.584,15.303-17.2c1.104-1.185,1.673-0.763,2.527,0.177c2.372,2.606,4.817,5.145,7.227,7.719
				c6.663,7.127,14.132,13.172,23.122,17.162c1.842,0.816,4.093,1.875,5.722,0.749c4.531-3.13,8.457-1.619,12.521,0.734
				c0.842,0.485,1.851,0.725,2.813,0.953c14.844,3.502,29.058,8.685,42.519,15.882c0.877,0.468,1.739,0.842,2.82,0.716
				c7.245-0.842,14.571-1.039,21.147-5.008c3.443-2.078,5.244-1.266,7.074,2.454c1.942,3.94,2.58,8.25,3.146,12.556
				c0.208,1.968,0.419,3.938,0.704,6.626c0.225-1.247,0.312-1.75,0.399-2.251c-0.12-2.757,0.099-5.529-0.521-8.251l0,0
				c0-0.003-0.001-0.007-0.001-0.011c-0.189-4.514-0.251-9.036-0.627-13.535c-0.19-2.291,0.452-3.365,2.771-3.708
				c5.059-0.748,8.228-3.699,9.674-8.621c1.091-3.721,2.439-7.368,3.502-11.096c1.081-3.8,3.076-6.8,6.354-9.104
				c3.69-2.591,7.181-5.464,10.749-8.23C749.203,161.219,749.794,160.771,749.545,160.054z"/>
			<path fill="#E8B59E" d="M522.589,354.219c2.511,16.884,12.7,29.601,23.263,41.949c6.835,7.988,17.117,19.159,32.662,32.339
				c5.635,4.776,12.042,8.217,18.875,10.927c5.197,2.061,10.498,1.008,15.78,0.5c1.253-0.12,2.505-0.231,3.759-0.347
				c0.682,0.792,0.331,1.509-0.212,2.152c-0.646,0.762-1.163,1.583-1.524,2.507c-0.114,0.233-0.263,0.446-0.428,0.645
				c-2.183,3.057-4.047,6.31-5.859,9.589c-0.929,1.681-2.581,3.085-2.114,5.327c-0.003,0.676-0.088,1.333-0.44,1.926
				c-2.368,0.942-2.94,2.967-3.133,5.219c-0.12,0.25-0.297,0.453-0.521,0.618c-0.892,0.389-1.774,0.825-2.391,1.587
				c-1.426,1.761-3.284,2.243-5.429,2.018c-3.391-0.438-4.565-3.311-6.229-5.651c-0.16-0.203-0.289-0.426-0.402-0.66
				c-1.28-2.816-3.542-4.692-6.075-6.309c-1.631,0.06-1.787-2.002-3.215-2.238c-4.296-3.252-9.021-5.824-13.622-8.599
				c-0.938-0.264-4.837-2.578-5.934-3.278v0.001c-1.572-1.487-3.385-2.568-5.438-3.254c-5.353-2.477-10.091-5.985-15.119-9.009
				c-6.83-4.099-12.771-9.288-18.173-15.104c-6.424-6.912-11.791-14.589-16.712-22.631c-1.32-2.163-2.62-4.417-4.24-6.42
				c-1.088-3.438-3.583-5.682-6.437-7.632c-0.388-0.705-0.771-1.413-1.16-2.118c-1.344-3.559,0.85-0.114,4.341-1.104
				c20.639-5.854,21.965-18.683,22.683-19.746c0.709-1.053,0.973-2.938,3.03-1.813c0.067,0.039-0.03-0.318-0.033-0.49
				C522.135,354.736,522.294,354.447,522.589,354.219z"/>
			<path fill="#C6D0E5" d="M537.706,440.095c3.604,2.642,7.074,5.445,10.813,7.927c4.688,3.114,9.742,5.515,14.673,8.139
				c1.697,0.902,1.589,1.473,0.653,2.77c-3.67,5.088-7.292,10.206-10.892,15.341c-1.313,1.872-1.836,4.729-5.171,3.863
				c-0.19,1.602-4.402,1.672-1.678,4.409c0.329,0.333,0.364,0.963-0.094,1.169c-0.27,0.121-0.849-0.157-1.139-0.421
				c-2.533-2.303-5.028-4.646-7.542-6.969c-7.06-6.525-14.328-12.789-22.396-18.068c-5.564-3.643-10.98-7.513-16.604-11.057
				c-3.247-2.048-6.766-3.68-10.192-5.434c-0.583-0.296-1.14-0.513-1.433-1.13c0.048-0.438,0.264-0.782,0.583-1.072
				c2.463-0.86,4.119-2.538,4.877-5.023c0.439-1.438,0.662-2.896-1.252-3.567c-1.207-0.424-2.178-1.123-1.772-2.577
				c0.367-1.312,1.323-2.352,2.715-2.245c1.735,0.133,2.097-0.735,2.434-2.126c0.57-2.343,2.857-3.899,3.08-6.48
				c0.052-0.593,0.934-0.821,1.576-0.849c2.983-0.111,5.678,0.291,7.642,3.039c1.725,2.42,3.602,4.728,5.25,7.207
				c1.256,1.888,2.774,3.536,4.693,4.817c3.173,2.118,4.843,5.44,6.805,8.563c1.925,3.061,6.93,3.799,9.617,1.438
				C534.383,440.5,536.11,440.596,537.706,440.095z"/>
			<path fill="#C7D3E3" d="M401.159,472.644c-2.353-1.617-5.184-2.344-7.643-3.767c-6.458-3.741-13.136-6.994-20.024-9.83
				c-0.641-0.265-1.622-0.344-1.507-1.241c0.061-0.485,0.732-0.98,1.234-1.316c5.177-3.468,10.06-7.35,15.432-10.551
				c7.377-4.392,14.576-9.081,21.894-13.569c1.906-1.168,3.842-2.375,5.625-3.646c2.256-1.612,3.256-0.963,4.799,0.762
				c3.526,3.942,6.743,8.19,10.815,11.628c0.94,0.792,0.601,1.229-0.173,1.877c-3.797,3.188-6.502,7.441-10.495,10.497
				c-1.947,1.488-3.636,2.979-6.157,3.509c-2.294,0.482-3.488,2.564-4.13,4.628c-1.506,4.808-5.619,7.32-8.875,10.596
				C401.776,472.397,401.495,472.47,401.159,472.644z"/>
			<path fill="#C0CDDD" d="M537.706,440.095c-0.096,0.975-0.78,1.044-1.558,1.095c-0.617,0.04-1.552,0.021-1.783,0.388
				c-2.495,3.958-6.158,1.98-9.27,1.642c-2.366-0.258-3.449-3.147-3.909-4.856c-0.813-3.032-3.188-4.319-5.073-5.884
				c-2.273-1.888-4.065-4.019-5.754-6.34c-1.677-2.301-3.262-4.678-5.065-6.873c-1.733-2.108-4.291-1.928-6.716-1.9
				c-0.233,0.004-0.687,0.274-0.673,0.331c0.757,3.155-3.103,4.312-3.083,7.184c0.01,1.526-0.134,2.979-2.519,1.879
				c-1.409-0.648-2.396,0.809-2.704,1.978c-0.353,1.328,0.845,1.627,1.911,1.576c1.559-0.075,1.696,0.839,1.734,2.071
				c0.113,3.669-1.858,6.264-5.983,7.71c-0.521,0.446-1.076,0.229-1.493-0.07c-3.176-2.264-6.327-4.575-7.137-8.754
				c-0.377-1.934-1.327-3.47-2.71-4.872c-2.119-2.15-2.009-3.178-0.78-6.047c1.386-3.237,3.174-6.259,4.661-9.438
				c0.99-2.122,1.388-4.154,0.781-6.521c-0.353-1.374-0.8-3.004,0.167-4.44c2.094-0.683,0.604-2.907,1.845-4.129
				c2.034-2.009,3.76-4.326,5.662-6.566c1.058,0.912,0.555,1.824,0.256,2.733c-1.684,5.143-2.612,10.393-2.989,15.819
				c-0.241,3.49,3.063,6.34,6.609,6.761c3.029,0.358,6.146-1.964,7.125-5.021c0.626-1.938,0.263-3.935,0.783-6.61
				C511.85,416.547,523.994,429.13,537.706,440.095z"/>
			<path fill="#C7D3E3" d="M367.366,499.764c-3.805-3.235-7.51-6.568-10.65-10.482c-1.901-2.368-3.845-4.704-5.857-6.977
				c-1.236-1.396-1.276-2.828-0.116-4.095c2.612-2.851,5.336-5.604,8.084-8.324c0.964-0.954,2.188-0.585,3.29-0.121
				c8.562,3.609,16.946,7.597,25.226,11.811c0.627,0.319,1.291,0.57,1.935,0.853c1.586,0.688,2.694,1.429,2.161,3.627
				c-0.798,3.288,2.479,7.75,5.713,7.654c2.82-0.08,2.709,0.911,1.68,2.8c-0.553,0.952-1.47,1.261-2.484,1.375
				c-0.98,0.112-1.964,0.421-2.933,0.382c-7.676-0.308-15.161,1.223-22.7,2.237C369.508,500.664,368.39,500.428,367.366,499.764z"/>
			<path fill="#CCD7E9" d="M367.366,499.764c4.599-0.294,9.126-0.733,13.649-1.936c3.021-0.802,6.416-0.172,9.641-0.245
				c2.759-0.064,5.494-0.364,8.171-1.076c-1.355,2.705-2.194,5.419-1.143,8.518c1.128,3.322,5.626,5.222,8.896,3.885
				c2.627-1.075,5.292-2.224,8.288-2.129c1.72,0.058,2.54,0.673,2.406,2.418c-0.333,4.289-0.828,8.575-0.946,12.869
				c-0.095,3.58,0.305,7.171,0.381,10.762c0.037,1.65,0.703,4.064-2.529,1.752c-5.188-3.716-10.667-7.019-16.004-10.526
				c-7.027-4.618-13.489-9.974-20.091-15.162C374.378,505.976,370.945,502.797,367.366,499.764z"/>
			<path fill="#CBD6E9" d="M580.02,488.913c1.432,1.958,3.172,3.766,4.229,5.909c2.287,4.617,2.959,9.563,1.267,14.541
				c-0.771,2.268-1.056,4.724-2.529,6.755c-0.661,0.912-1.102,1.121-1.752,0.066c-1.268-2.048-2.44-3.786-1.314-6.653
				c2.064-5.265-3.128-9.755-7.744-8.593c-2.433,0.614-4.846,0.447-7.266,0.42c-2.939-0.031-4.786-2.446-7.176-3.685
				c-0.729-0.378-0.49-1.343-0.067-2.182c2.125-4.187,3.786-8.642,6.815-12.304c1.042-1.259,0.087-3.712,2.519-4.041
				c0.065,1.434,0.805,2.287,1.955,3.212C572.343,485.094,576.583,486.315,580.02,488.913z"/>
			<path fill="#C6D2E0" d="M480.745,399.947c1.53,5.797,0.95,11.16-2.813,16.105c-1.376,1.806-1.691,4.256-2.955,6.262
				c-0.876,1.392,0.431,2.713,1.537,3.673c1.471,1.283,2.327,2.753,2.734,4.748c0.922,4.507,4.143,7.256,8.008,9.357
				c-0.184,0.181-0.364,0.361-0.551,0.544c-3.835-0.519-5.895-3.563-8.309-6.003c-3.97-4.006-6.842-8.874-10.082-13.451
				c-2.218-3.13-1.313-8.745,1.821-11.966c2.874-2.953,6.114-5.563,8.533-8.938C479.326,399.366,479.971,399.51,480.745,399.947z"/>
			<path fill="#BDC6D7" d="M601.723,516.034c-0.362,0.001-0.724,0.005-1.086,0.005c-0.4-8.312-0.705-16.626-0.546-24.95
				c-0.486-2.833-0.249-5.714-0.539-8.562c-0.074-0.731,0.229-1.437,0.662-2.021c1.08-1.457,1.369-3.091,1.23-4.844
				c1.42-1.166,2.012,0.356,2.801,0.941c2.369,1.771,2.572,1.672,4.302-0.751c0.722-1.011,1.09-3.555,3.396-1.677
				c0.313,2.989-0.614,5.707-2.014,8.249c-1.582,2.867-2.894,5.773-3.327,9.079c-0.239,1.806-0.021,3.266,1.672,4.141
				c2.814,1.453,3.278,3.833,2.79,6.643c-0.03,0.175-0.069,0.354-0.087,0.53c-0.375,4.177-1.116,4.73-5.412,4.05
				c-2.906-0.46-2.884-0.399-3.066,2.609C602.367,511.673,603.191,514,601.723,516.034z"/>
			<path fill="#C4CEE0" d="M601.72,475.355c0.627,1.352,1.08,2.584,0.04,4.076c-2.491,3.564-1.311,7.734-1.667,11.655
				c-0.95-0.995-0.442-2.229-0.52-3.354c-0.188-2.722-1.467-4.645-4.146-5.271c-2.21-0.517-3.472-1.854-4.663-3.688
				c-2.886-4.438-5.196-9.116-6.928-14.114c-0.466-1.335-0.561-2.611-0.545-3.96c1.488-0.719,2.035,0.615,2.787,1.352
				c0.946,0.928,1.532,2.181,2.614,3.002l-0.014,0.025c0.68,1.643,1.396,3.223,2.745,4.5c1.126,1.063,2.278,1.67,3.822,1.436
				c0.668,0.021,1.341-0.051,1.993,0.16C599.038,472.24,601.388,472.72,601.72,475.355z"/>
			<path fill="#CCD7E7" d="M564.799,546.941c-0.289,0.653-0.438,1.811-1.056,2.19c-0.867,0.533-1.583-0.498-2.145-1.145
				c-4.492-5.166-9.592-9.734-14.353-14.634c-3.665-3.765-6.763-8.075-10.764-11.543c-0.307-0.265-0.853-0.619-0.32-1.05
				c0.283-0.231,0.969-0.364,1.212-0.188c2.759,1.994,5.75,3.612,8.112,6.22c2.032,2.242,4.766,3.839,6.976,5.943
				c3.564,3.395,7.01,6.92,10.379,10.507C563.726,544.185,564.609,545.312,564.799,546.941z"/>
			<path fill="#C6D2E3" d="M580.02,488.913c-3.703-1.214-7.11-3.027-10.324-5.204c-0.658-0.446-1.14-1.094-1.973-1.354
				c-2.002-0.626-1.894-1.82-0.718-3.21c0.379-2.352,2.318-3.768,3.469-5.657c0.784-1.28,1.533,0.258,1.688,0.662
				C574.163,479.406,577.243,484.077,580.02,488.913z"/>
			<path fill="#C6D2E0" d="M436.121,415.014c1.474,1.43,2.815,3.14,2.646,4.767c-0.174,1.688-0.286,4.033-2.487,4.905
				c-0.572,0.229-5.532-4.716-5.318-5.368C431.745,416.897,434.577,416.962,436.121,415.014z"/>
			<path fill="#C8D3E1" d="M436.591,457.435c2.349-1.164,3.338-3.077,4.894-4.402c0.613-0.521,1.191-1.3,2.075-0.795
				c0.809,0.466,1.952,0.843,1.887,2.047c-0.103,1.862-0.326,3.726-0.58,5.572c-0.104,0.773-0.624,0.604-1.201,0.365
				C441.473,459.323,439.261,458.482,436.591,457.435z"/>
			<path fill="#DBBEB5" d="M565.331,447.719c2.389-0.984,3.48,1.299,4.832,2.271c2.93,2.104,6.989,2.691,8.791,6.329
				C574.153,453.871,569.245,451.58,565.331,447.719z"/>
			<path fill="#D6C1B7" d="M588.695,465.052c-1.416,0.227-1.894-0.559-2.494-1.747c-0.558-1.094-1.49-2.241-2.908-2.604
				c-0.375-0.716-0.746-1.431-1.123-2.146C584.823,458.815,588.399,462.373,588.695,465.052z"/>
			<path fill="#DABDB6" d="M493.281,380.392c3.099,0.427,6.445,4.397,6.438,7.632C497.573,385.48,495.427,382.936,493.281,380.392z"
				/>
			<path fill="#DABDB5" d="M553.962,441.188c2.717-0.43,4.351,0.952,5.438,3.251C557.311,443.816,555.407,442.885,553.962,441.188z"
				/>
			<path fill="#DABDB5" d="M559.401,444.439c1.489,0.112,3.594-0.708,3.258,2.158C561.441,446.077,559.978,445.923,559.401,444.439z
				"/>
			<path fill="#C6D0E5" d="M674.418,467.215c2.507-11.075,5.309-22.097,7.438-33.242c2.082-10.901,3.654-21.91,4.486-32.997
				c0.12-1.603,0.768-2.505,2.425-2.665c0.976-0.096,2.042-0.133,2.89-0.556c6.563-3.271,11.604,0.691,16.784,3.563
				c11.605,6.43,22.701,13.672,33.585,21.253c1.371,0.954,1.787,1.983,1.874,3.566c0.238,4.295,0.683,8.579,1.044,12.868
				c-0.025,0.885-0.1,2.03-1.167,0.666c-1.16-1.478-2.445-3.067-2.897-4.81c-0.427-1.644-1.479-2.347-2.534-3.265
				c-1.239-1.077-2.793-1.871-4.188-0.995c-1.252,0.781-0.615,2.469-0.423,3.761c0.384,2.548-2.794,5.555-5.101,4.548
				c-2.048-0.896-1.27-3.253-1.32-4.758c-0.056-1.55-0.462-2.514-1.591-2.997c-1.487-0.632-2.466,0.542-3.39,1.57
				c-2.33,2.604-2.976,6.103-4.776,8.989c-0.654,1.051-1.178,2.665-2.583,2.334c-1.477-0.35-1.518-1.952-1.518-3.382
				c0.003-4.384-1.772-6.452-4.877-6.017c-1.204,0.17-1.972,1.004-2.723,1.645c-2.365,2.007-5.311,2.766-8.023,3.914
				c-3.912,1.657-4.582,5.48-6.581,8.448c-4.502,6.688-8.643,13.705-15.555,18.366C675.241,467.328,674.958,467.869,674.418,467.215
				z"/>
			<path fill="#BCC5D3" d="M675.507,564.048c0.143-6.072,1.203-7.375,7.056-8.869c2.428-0.622,4.831-1.334,7.232-2.042
				c2.702-0.8,4.556,0.255,5.217,3.019c1.317,5.498-1.701,8.793-8.556,9.226c-1.615,0.101-3.063,0.105-4.521,1.232
				C680.268,567.904,675.465,565.784,675.507,564.048z"/>
			<path fill="#BCC7D8" d="M705.428,579.633c0.02,1.759,0.138,3.869-1.896,4.293c-2.058,0.429-4.107-0.275-4.811-2.809
				c-0.232-0.844-0.804-1.542-1.065-2.43c-0.656-2.217-0.795-4.266,1.777-5.07c2.934-0.918,4.94,0.396,5.679,3.354
				C705.323,577.831,705.326,578.743,705.428,579.633z"/>
			<path fill="#C6D0E5" d="M672.245,399.947c-0.539,8.498-1.537,16.943-3.133,25.308c-1.604,8.397-3.221,16.798-5.104,25.138
				c-0.527,2.33-1.299,4.605-1.549,7.008c-0.156,1.494-1.12,0.924-1.73,0.497c-4.784-3.359-10.293-5.389-15.252-8.363
				c-2.088-1.252-3.722-2.836-6.378-2.466c-0.974,0.137-1.003-0.816-1.028-1.554c0.455-0.212,0.865,0.025,1.298,0.115
				c3.078,0.635,3.52,0.308,3.884-2.888c0.154-1.342,0.352-2.688,0.892-3.932c0.883-2.026,1.873-2.313,4.183-1.139
				c-0.434-2.241-0.548-4.266,2.182-5.036c1.055-0.3,1.376-1.34,1.387-2.407c0.79-2.229,1.727-4.338,3.918-5.6
				c0.953-0.551,1.385-1.32,0.827-2.487c-0.572-1.204,0.081-2.052,1.059-2.729c1.956-1.354,3.646-2.937,4.167-5.392
				c0.29-1.382,1.605-1.888,2.357-2.881c2.396-3.167,4.506-6.52,6.596-9.892C671.157,400.705,671.204,399.76,672.245,399.947z"/>
			<path fill="#C6D0E4" d="M601.723,516.034c0.002-2.891-0.01-5.78,0.006-8.675c0.01-1.784,0.705-2.579,2.543-1.714
				c0.565,0.266,1.172,0.506,1.784,0.593c3.939,0.568,4.068,0.177,4.433-3.729c0.324-3.459-0.854-5.688-3.897-6.993
				c-0.988-0.426-1.162-1.074-1.051-1.91c0.415-3.104,0.643-6.253,2.354-9.039c2.043-3.325,3.461-6.877,3.596-10.842
				c-0.153-0.724-0.002-1.386,0.407-1.998c2.523-3.033,4.444-6.328,4.268-10.45c-0.091-2.075,0.646-3.676,2.375-4.819
				c3.34-0.935,5.702-3.576,8.759-5.016c1.412-0.122,2.248,0.858,3.179,1.664c0.664,3.1-1.304,5.455-2.729,7.67
				c-3.357,5.224-5.717,10.896-8.073,16.551c-2.591,6.211-5.42,12.466-6.813,18.983c-1.217,5.684-2.271,11.599-1.918,17.556
				c-6.716,1.497-6.994,6.507-6.509,11.935C604.301,522.334,600.593,519.856,601.723,516.034z"/>
			<path fill="#C1CDDD" d="M630.476,453.109c-1.356,0.753-1.509-1.486-2.717-1.09c0.391-1.088,0.972-1.958-0.229-3.182
				c-2.085-2.128-1.765-3.986,0.988-5.271c2.387-1.112,4.479-3.102,7.382-2.944c2.159-1.448,4.319-2.897,6.48-4.347
				c2.144-0.528,3.947-1.43,4.296-3.925c0.875-0.878,1.751-1.758,2.628-2.64c1.094-0.438,2.039-0.199,2.865,0.611
				c1.558,2.233-0.732,2.961-1.774,3.181c-2.419,0.513-1.7,2.052-1.394,3.303c0.198,0.801,0.808,1.514-0.182,2.028
				c-0.784,0.408-1.141-0.179-1.624-0.861c-1.353-1.912-2.06,0.12-2.339,0.786c-0.578,1.376-0.776,2.936-0.971,4.439
				c-0.155,1.191,0.479,2.848-1.097,3.229c-1.565,0.379-3.422,0.747-4.722-0.913C634.397,446.904,630.895,448.464,630.476,453.109z"
				/>
			<path fill="#C4CAD3" d="M652.174,430.325c-1.018,0.083-1.978-0.096-2.866-0.611c7.762-11.979,14.8-24.433,23.412-35.854
				c1.668,2.17-1.063,3.998-0.477,6.089c-2.766,4.658-5.226,9.473-9.219,13.361c-1.246,1.213-1.041,3.822-2.971,5.037
				c-0.825,0.521-0.83,2.227-2.422,1.69c-0.146,0.554-1.131,0.883-0.536,1.608c1.746,2.139,0.047,3.192-1.442,3.901
				C653.528,426.555,653.958,429.21,652.174,430.325z"/>
			<path fill="#BCC7D8" d="M748.195,594.706c-2.017-2.333-4.54-3.245-7.581-2.706c-0.745-0.224-1.489-0.447-2.895-0.872
				c3.867-0.39,3.18-2.955,2.739-4.541c-0.683-2.475,0.506-4.756,0.035-7.188c-0.27-1.396,1.42-1.489,2.627-1.523
				c1.199-0.031,1.901,0.35,1.822,1.686c-0.047,0.809-0.057,1.625,0.009,2.429c0.158,1.871-0.43,3.589,1.824,5.256
				C748.759,588.712,748.336,592.058,748.195,594.706z"/>
			<path fill="#C5CFE5" d="M619.081,586.563c-2.083-3.445-0.668-7.238-1.085-10.85C618.767,579.289,619.031,582.916,619.081,586.563
				z"/>
			<path fill="#E0AD96" d="M614.744,339.188c3.136-3.677,6.275-7.349,8.98-11.364c2.614-3.882,4.108-8.176,3.987-12.846
				c-0.101-3.698,0.705-7.137,1.96-10.535c0.255-0.698,0.482-1.463-0.086-2.041c-0.849-0.856-1.225,0.245-1.736,0.582
				c-3.146,2.068-6.815,2.023-10.324,2.536c-5.111,0.75-5.931,2.012-10.945,4.014c-4.484,1.785-19.38,0.059-23.591-2.4
				c-6.359-3.718,13.591-5.021,2.673-10.806c-7.169-3.797-3.218-7.561-16.062-10.734c-2.201-3.805-0.211-7.04,4.187-7.151
				c9.2,1.188,12.107-1.494,14.218,0.799c0.882,1.938-7.594,3.777-6.924,5.727c2.69,5.346,5.779,10.215,12.604,10.682
				c3.998,0.693,8.017,0.661,12.04,0.421c1.694,0.104,3.396,0.111,5.095,0.018c2.587-0.144,2.818-0.46,2.536-3.097
				c0.372-2.898-2.199-8.063-4.815-9.53c-1.406-0.792-2.862-1.496-4.373-2.088c-0.599-0.232-1.52-0.25-1.363-1.313
				c0.258-0.25,1.163,0.443,0.85-0.484c-0.099-0.297-1.225-0.31-0.87-0.96c0.334-0.614,1.146-0.754,1.93-0.57
				c5.283,1.232,10.606-0.121,15.966,0.479c-0.081-0.346-0.089-0.498-0.128-0.508c-0.346-0.08-0.701-0.134-1.054-0.194
				c2.595-1.339,5.172-2.735,8.207-2.774c6.295-0.394,8.939,5.034,12.914,8.262c1.186,0.962,2.313,7.347,2.354,9.02
				c-4.903,37.104-2.181,22.938-2.249,36.646c-0.022,4.473-0.624,8.953-1.063,13.421c-0.261,2.663-1.483,4.603-4.442,4.928
				c-4.749,0.522-6.147,3.022-4.243,7.513c0.931,2.192,1.842,4.396,2.76,6.595c-0.889,0.401-1.58-0.115-2.239-0.552
				c-1.476-0.976-3.061-1.481-4.838-1.435c-1.855,0.059-3.312-0.69-4.309-2.291c-3.006-4.847-5.867-9.783-5.573-15.753
				C616.864,339.658,615.731,339.63,614.744,339.188z"/>
			<path fill="#37251B" d="M636.438,365.164c2.813,1.071,5.633,1.021,8.486,0.129c2.974-0.931,4.737,0.294,5.209,3.277
				c0.561,3.536,2.609,5.396,6.088,5.759c6.669,0.702,9.332,6.057,12.635,10.906c-5.104-2.834-10.333-1.852-15.57-0.994
				c-2.625,0.433-4.698-1.124-6.8-2.276c-2.391-1.314-4.747-1.663-7.244-0.558c-3.906,1.728-7.546,1.227-10.998-1.18
				c-1.512-1.054-3.174-1.452-5.03-1.671c-11.921-1.412-23.38-0.114-34.253,5.267c-1.832,0.904-3.801,1.638-5.97,1.502
				c2.461-8.386,11.485-16.361,19.809-16.977c5.59-0.406,10.677-1.492,14.692-5.72c0.956-1.004,2.345-1.289,3.637-1.68
				C626.587,361.057,631.531,363.035,636.438,365.164z"/>
			<path fill="#36251C" d="M638.513,273.599c-1.732-2.361-18.881-11.974-21.209-13.72c-10.883-4.254-20.305-2.697-32.09-1.271
				c-1.96,0.236-3.916,0.628-5.823,1.128c-1.915,0.502-2.836,2.865-0.946,3.222c10.63,2.015,11.729-2.088,28.137,2.411
				c9.723,2.668,17.754,10.743,19.343,10.756C627.97,276.142,636.145,282.741,638.513,273.599z"/>
			<path fill="#77564E" d="M580.656,285.407c-1.076-2.134,4.983-5.265,7.086-5.105c11.327,0.856,9.859-1.627,15.063-0.25
				c6.159,1.616,10.197,5.288,11.496,11.703c0.151,0.767,0.447,1.232-0.658,0.885c-0.921-0.148-1.688-0.614-2.397-1.19
				c-2.842-4.021-6.785-5.337-11.521-4.696c-0.996-0.015-1.971,0.154-3.133,0.412c1.502,0.831,3.288,1.117,3.867,2.911
				c-0.721,3.522-2.914,5.03-7.354,5.069c-1.202-0.367-2.298-0.981-3.383-1.6c-1.867-1.056-2.954-2.67-2.747-4.832
				c0.205-2.167-0.747-2.677-2.659-2.398C582.999,286.508,581.613,286.754,580.656,285.407z"/>
			<path fill="#38241D" d="M626.497,413.918c-6.534,0.313-12.139-2.366-16.711-7.387c-0.528-0.578-1.542-1.108-1.175-1.963
				c0.396-0.918,1.534-0.729,2.419-0.779c0.447-0.026,0.905-0.035,1.353,0.015c7.818,0.88,15.638,1.355,23.499,0.545
				c1.984-0.205,3.979,0.168,5.831,0.973c1.215,0.531,1.845,1.468,0.53,2.422C637.641,411.1,633.1,414.697,626.497,413.918z"/>
			<path fill="#D19C92" d="M628.852,387.481c3.313,2.004,7.217,0.404,10.586-0.152c4.695-0.777,11.083,0.083,15.719,0.763
				c-2.548,4.573-20.376,9.935-26.172,9.916c-8.248-0.659-15.577-6.01-22.401-10.514c4.744-1.555,9.454-2.386,14.212,0.088
				c1.739,0.904,3.667,1.445,5.439,2.332C628.262,390.926,628.367,388.651,628.852,387.481z"/>
			<path fill="#D8A58F" d="M636.438,365.164c-5.102-1.404-10.205-2.812-15.311-4.217c0.087-0.023,0.178-0.042,0.259-0.076
				c0.21-0.09,0.56-0.343,0.232-0.443c-5.787-1.819-9.781-7.383-10.171-13.843c-0.189-3.146,1.771-5.126,3.299-7.396
				c2.132-1.156,3.133-1.446,2.817,1.883c-0.604,6.406,2.768,11.646,6.134,16.734c0.329,0.497,1.288,0.924,1.884,0.843
				c3.211-0.425,5.729,1.001,8.155,2.773C635.16,362.289,635.79,363.735,636.438,365.164z"/>
			<path fill="#76564B" d="M679.83,303.968c-1.262-0.018-2.547,0.114-3.782-0.075c-3.536-0.54-4.443-2.592-2.83-6.389
				c-2.375-0.331-6.098,3.205-6.555,1.519c1.736-3.459,8.025-7.375,12.041-7.572c8.274-0.408,12.509,1.857,17.433,9.573
				c-1.671-0.739-3.028-1.336-4.38-1.936c-3.201-0.324-5.826-2.525-9.052-2.771c-1.385-0.438-2.788-0.485-4.309-0.241
				c1.317,2.179,3.656,3.619,3.951,6.321C681.93,303.594,681.198,304.288,679.83,303.968z"/>
			<path fill="#F0CBBC" d="M679.83,303.968c0.861-0.4,1.74-0.775,2.27-1.638c0.824-1.896,0.968-3.67-0.443-5.459
				c-0.669-0.846-0.356-1.575,0.948-1.164c3.37,0.264,6.335,1.627,9.153,3.381c-0.954,0.744-0.952,1.594-0.833,2.807
				c0.229,2.369-0.033,4.535-3.388,4.912c-2.974,0.334-5.851,0.581-8.774-0.146c-1.129-0.28-1.932-0.819-2.296-1.949
				C677.554,304.134,678.891,304.968,679.83,303.968z"/>
			<path fill="#BC8A7D" d="M628.852,387.481c1.258,0.819,1.063,2.626,0.078,3.504c-0.676,0.602-1.831,0.52-2.568,0.02
				c-6.085-4.117-12.756-4.786-19.78-3.511c-0.734-0.313-1.525-0.539-2.188-0.965c-0.588-0.374-3.993-2.176-3.553-2.938
				c0.515-0.881,3.73,1.305,4.258,1.401c3.821,0.716,7.917-0.459,11.754-0.263c3.35,0.173,6.852-0.779,9.96,1.288
				C627.556,386.511,628.094,387.01,628.852,387.481z"/>
			<path fill="#B8BECB" d="M635.903,440.625c-0.349,0.506-0.934,0.419-1.413,0.604c-0.501,0.192-2.603-0.964-1.191,1.183
				c-0.273,0.17-0.525,0.411-0.822,0.495c-0.682,0.194-1.383,0.303-2.072,0.461c-3.648,0.838-4.6,3.188-1.874,5.576
				c2.374,2.078,1.049,2.449-0.77,3.078c-1.621-0.309-1.895,1.383-2.92,1.975c-1.867,1.079-3.592,2.427-5.758,2.913
				c-3.629,0.675-3.667,0.914-4.71,4.71c-0.952,3.465-0.522,7.225-2.337,10.482c-0.022,0.596,0.067,1.229-0.547,1.625
				c-1.413,0.445-2.201,1.633-2.602,2.844c-0.894,2.718-2.332,2.813-4.321,1.246c-0.983-0.776-1.9-1.637-2.848-2.462
				c-1.056-1.707-3.031-2.358-4.344-3.776c2.114-1.079,3.458-3.107,5.424-4.371v-0.002c0.722-2.025,1.948-3.749,3.247-5.431
				c0.021-0.709,0.034-1.42,0.053-2.127c2.428-3.088,3.67-6.869,5.903-10.077c1.109-1.591,1.955-3.357,2.746-5.137l0.015,0.008
				c2.402-0.966,2.636-3.706,4.314-5.265c2.762-0.889,5.324,0.339,7.962,0.76C629.977,440.406,632.918,440.785,635.903,440.625z"/>
			<path fill="#C8BABB" d="M619.076,439.177c-0.97,2.143-0.711,5.286-4.314,5.266c-0.688-2.248,2.352-2.832,2.166-4.854
				C617.644,439.45,618.36,439.31,619.076,439.177z"/>
			<path fill="#BEBFC6" d="M646.679,432.352c0.637,2.702-1.361,4.522-4.297,3.925C643.814,434.969,645.244,433.663,646.679,432.352z
				"/>
			<path fill="#D0B8B5" d="M614.747,444.434c0.354,3.663-2.572,5.89-4.065,8.675c-0.864,1.612-1.773,3.271-2.31,4.946
				c-0.463,1.446-1.141,1.6-2.274,1.592c-0.571-3.63,2.229-5.979,3.875-8.444C611.476,448.955,611.683,445.592,614.747,444.434z"/>
			<path fill="#D5C9CD" d="M595.221,471.552c-3.898-0.019-6.472-2.563-6.541-6.475c1.706,0.771,1.887,2.856,3.348,3.865
				c0.845,0.583,1.359,1.696,2.638,1.526C594.967,470.769,595.548,470.927,595.221,471.552z"/>
			<path fill="#D1BCB8" d="M595.221,471.552c-0.187-0.362-0.37-0.722-0.554-1.084c2.144,0.237,4.027-0.133,5.354-2.079
				c0.641-0.938,1.609-1.357,2.777-1.185c-1.358,2.019-2.553,4.233-5.423,4.372C596.656,471.569,595.941,471.561,595.221,471.552z"
				/>
			<path fill="#D1BCB8" d="M606.046,461.776c0.033,2.479-1.922,3.765-3.247,5.431C602.935,464.829,602.009,461.819,606.046,461.776z
				"/>
			<path fill="#C6D0E5" d="M511.667,421.581c-1.023-0.035-1.093-0.756-1.059-1.512c0.035-0.765,0.248-1.529,1.194-1.43
				c0.731,0.078,0.914,0.765,0.93,1.436C512.749,420.834,512.691,421.552,511.667,421.581z"/>
			<path fill="#BEC6D6" d="M612.034,472.1c0.334-5.049,1.076-10.054,2.835-14.79c0.81-2.175,2.77-0.465,4.214-0.401
				c-2.19,1.17-2.118,3.172-2.229,5.309C616.654,466.124,615.433,469.682,612.034,472.1z"/>
			<path fill="#F0CEC2" d="M593.23,294.611c3.145-0.359,6.186-0.865,6.854-4.782c-0.252-1.251-1.228-2.407-0.515-3.791
				c5.375-0.981,9.578,0.769,12.548,5.393c-0.104,3.222-0.911,4.143-4.283,4.911c-0.601,0.136-1.243,0.136-1.771,0.528
				c-4.361,0.283-8.711,0.324-13.021-0.542c-0.396-0.583-1.665,0.136-1.601-0.906C591.512,294.36,592.388,294.353,593.23,294.611z"
				/>
			<path fill="#E5C0B2" d="M593.23,294.611c-0.456,0.209-1.211,0.323-1.307,0.642c-0.252,0.814,1.008,0.41,1.119,1.076
				c-4.473-0.376-7.648-2.782-9.805-6.547c-0.841-1.472-2.795-2.293-2.581-4.372c1.857,0.698,3.72-0.052,5.577,0.021
				c0.701,0.026,2.149-0.258,1.741,0.899C586.182,291.45,589.695,292.992,593.23,294.611z"/>
			<path fill="#E6C0B5" d="M606.064,296.868c0.436-0.298,0.829-0.746,1.313-0.871c2.45-0.646,4.15-2.016,4.741-4.568
				c0.511,0.401,1.018,0.807,1.526,1.211c1.893,3.097,1.302,4.114-2.486,4.218C609.46,296.904,607.762,296.867,606.064,296.868z"/>
			<path fill="#B9968B" d="M599.569,286.037c0.195,1.26,1.21,2.412,0.514,3.791c-1.581-1.543-3.745-1.818-6.284-2.684
				C596.047,286.434,597.749,285.986,599.569,286.037z"/>
			<path fill="#BA9689" d="M682.605,295.707c-1.462,0.423-0.406,0.947-0.037,1.396c1.571,1.905,1.682,3.664-0.468,5.228
				c-1.349-2.468-3.155-4.578-5.555-6.764C678.869,295.211,680.733,294.977,682.605,295.707z"/>
		</g>
		<path fill="#E0AD96" d="M521.782,348.222c0.268,3.715,0.522,4.417,0.919,7.334c1.63,12.021-7.397,17.204-12.098,21.171
			c-1.937,1.634-9.629,13.911-11.248,11.909c-1.086-3.438-3.585-5.683-6.435-7.631c-0.388-0.706-0.775-1.412-1.161-2.116
			c-1.344-3.563,7.726-0.774,19.265-8.765c4.045-2.8,7.04-11.022,7.758-12.089C519.492,356.985,521.406,350.652,521.782,348.222z"/>
		<path fill="#E0AD96" d="M563.49,415.53c9.203,7.499,26.705,21.804,33.537,24.515c5.2,2.061,10.5,1.011,15.78,0.504
			c1.251-0.123,2.508-0.233,3.762-0.351c0.681,0.793,0.332,1.511-0.216,2.154c-0.644,0.76-1.161,1.585-1.521,2.507
			c-0.116,0.233-0.264,0.444-0.429,0.646c-2.184,3.057-4.044,6.311-5.859,9.588c-0.931,1.681-2.58,3.085-2.113,5.327
			c-0.001,0.677-0.087,1.332-0.443,1.926c-2.366,0.941-2.938,2.967-3.132,5.219c-0.121,0.25-0.295,0.452-0.518,0.617
			c-0.896,0.389-1.776,0.824-2.392,1.589c-1.426,1.76-3.284,2.243-5.428,2.017c-3.39-0.437-4.565-3.312-6.231-5.652
			c-0.156-0.204-0.285-0.427-0.399-0.659c-1.281-2.817-3.543-4.693-6.077-6.311c-1.63,0.063-1.787-2.001-3.213-2.236
			c-4.298-3.253-18.46-11.177-19.558-11.877v0.001c36.279,17.334,49.328,5.973,39.693,3.035
			C580.627,442.57,565.93,423.54,563.49,415.53z"/>
		<path fill="#F0CEC2" d="M588.955,289.094h1.848v-1.413c0,0-0.876,0.112-1.152,0.21c-0.188,0.065-0.694,0.387-0.694,0.387
			L588.955,289.094L588.955,289.094z"/>
		<polygon fill="#F0CEC2" points="588.955,290.229 590.803,290.571 590.803,289.457 588.955,289.376 		"/>
		<path fill="#F0CEC2" d="M674.182,299.358l0.639,0.115l0.324-1.766c0,0-0.327,0.085-0.447,0.189
			c-0.08,0.073-0.327,0.441-0.327,0.441L674.182,299.358z"/>
		<polygon fill="#F0CEC2" points="673.923,300.776 674.483,301.316 674.739,299.927 674.116,299.712 		"/>
		<ellipse opacity="0.7" fill="#36251C" enable-background="new    " cx="677.878" cy="300.246" rx="1.651" ry="2.223"/>
		<ellipse opacity="0.7" fill="#36251C" enable-background="new    " cx="593.797" cy="289.377" rx="2.263" ry="3.042"/>
	</g>
</g>
</svg>
