<?xml version="1.0" encoding="utf-8"?>
<!-- Generator: Adobe Illustrator 16.0.0, SVG Export Plug-In . SVG Version: 6.00 Build 0)  -->
<!DOCTYPE svg PUBLIC "-//W3C//DTD SVG 1.1//EN" "http://www.w3.org/Graphics/SVG/1.1/DTD/svg11.dtd">
<svg version="1.1" id="Layer_1" xmlns="http://www.w3.org/2000/svg" xmlns:xlink="http://www.w3.org/1999/xlink" x="0px" y="0px"
	 width="1842.52px" height="370.258px" viewBox="0 0 1842.52 370.258" enable-background="new 0 0 1842.52 370.258"
	 xml:space="preserve">
<g id="Layer_2">
	
		<linearGradient id="SVGID_1_" gradientUnits="userSpaceOnUse" x1="938.9023" y1="383.6563" x2="1330.0002" y2="-690.8768" gradientTransform="matrix(1 0 0 -1 -222.6904 24.9756)">
		<stop  offset="0" style="stop-color:#FFFFFF"/>
		<stop  offset="0.3327" style="stop-color:#F9F9F9"/>
		<stop  offset="0.7714" style="stop-color:#E9E9E9"/>
		<stop  offset="1" style="stop-color:#DDDDDD"/>
	</linearGradient>
	<path fill="url(#SVGID_1_)" d="M1842.521,448.258H0V-98h555.76c282.326,0-264,253.629,68,251.629
		c318.985-1.921,67.179-170.701,512-106c330,48,251.236-8.931,478.181-104.069c72.661-30.461,228.58,17.551,228.58,17.551V448.258z"
		/>
	
		<linearGradient id="SVGID_2_" gradientUnits="userSpaceOnUse" x1="571.915" y1="303.1035" x2="1806.3845" y2="-732.7393" gradientTransform="matrix(1 0 0 -1 -222.6904 24.9756)">
		<stop  offset="0" style="stop-color:#4188FF"/>
		<stop  offset="1" style="stop-color:#FF3F45"/>
	</linearGradient>
	<path fill="url(#SVGID_2_)" d="M1842.521,449.258H0V138.062c0,0,224.389,146.371,460.565,130
		c309.194-21.433,303.705-144.374,717.277-134.764c599.917,49.331,85.928-175.355,630.875-178.823c11.354,0.653,33.8,0,33.8,0
		L1842.521,449.258L1842.521,449.258z"/>
</g>
</svg>
