<?xml version="1.0" encoding="utf-8"?>
<!-- Generator: Adobe Illustrator 16.0.0, SVG Export Plug-In . SVG Version: 6.00 Build 0)  -->
<!DOCTYPE svg PUBLIC "-//W3C//DTD SVG 1.1//EN" "http://www.w3.org/Graphics/SVG/1.1/DTD/svg11.dtd">
<svg version="1.1" id="Layer_1" xmlns="http://www.w3.org/2000/svg" xmlns:xlink="http://www.w3.org/1999/xlink" x="0px" y="0px"
	 width="841.891px" height="595.279px" viewBox="0 0 841.891 595.279" enable-background="new 0 0 841.891 595.279"
	 xml:space="preserve">
<g>
	<path fill="#F1F2F2" d="M28.161,403c-47.538-100.763,850.48-554.349,769.855-248.885
		C771.555,285.351,303.472,339.128,285.365,352.75c-20.126,15.143-38.789,31.949-56.71,49.616
		c-7.042,6.941-14.429,13.494-22.563,19.172c-10.844,7.567-22.356,13.806-34.901,18.081c-8.826,3.009-17.894,4.829-27.166,5.684
		c-9.39,0.862-18.763,1.096-28.146-0.26c-12.332-1.78-24.404-4.563-36.036-9.057c-8.83-3.41-17.49-7.202-25.808-11.77
		C43.364,418.359,28.323,403.345,28.161,403z M152.902,268.23c0,3.365,0.016,6.729-0.007,10.097
		c-0.009,1.337,0.229,2.56,1.833,2.614c1.688,0.059,2.134-1.178,2.152-2.601c0.029-2.219,0.038-4.438-0.006-6.657
		c-0.021-0.978,0.043-1.565,1.333-1.521c3.076,0.107,6.157,0.092,9.233,0.006c1.207-0.033,1.417,0.435,1.389,1.495
		c-0.068,2.361-0.004,4.728-0.027,7.088c-0.013,1.271,0.514,2.134,1.808,2.197c1.448,0.071,2.034-0.902,2.038-2.208
		c0.021-6.874,0.018-13.749,0.001-20.623c-0.002-1.207-0.493-2.169-1.835-2.187c-1.398-0.02-2.021,0.833-2.01,2.218
		c0.021,2.291-0.032,4.583,0.023,6.874c0.021,0.975-0.207,1.417-1.292,1.396c-3.149-0.059-6.303-0.051-9.451-0.002
		c-0.937,0.017-1.237-0.281-1.212-1.215c0.057-2.218,0.042-4.438,0.009-6.659c-0.021-1.407-0.425-2.675-2.14-2.595
		c-1.579,0.073-1.858,1.261-1.849,2.614C152.922,261.784,152.902,265.006,152.902,268.23z M186.309,272.485
		c1.646,0,3.29-0.023,4.936,0.006c1.76,0.031,2.399-0.82,2.308-2.537c-0.23-4.264-3.68-7.841-7.941-8.13
		c-4.751-0.322-8.887,3.188-9.458,8.021c-0.672,5.699,2.282,10.231,7.22,11.222c3.427,0.687,6.352-0.123,8.832-2.582
		c0.761-0.754,1.046-1.591,0.272-2.451c-0.747-0.832-1.645-0.714-2.497-0.1c-0.346,0.25-0.641,0.572-0.993,0.813
		c-2.93,2.003-7.077,0.895-8.574-2.259c-0.619-1.302-0.745-2.161,1.181-2.027C183.158,272.573,184.736,272.486,186.309,272.485z
		 M221.509,261.816c-5.343-0.166-9.531,3.967-9.663,9.537c-0.128,5.434,3.984,9.861,9.3,10.016c5.124,0.147,9.257-3.987,9.526-9.53
		C230.938,266.377,226.921,261.984,221.509,261.816z M196.752,267.712c0,3.512,0.007,7.021-0.004,10.53
		c-0.005,1.403,0.208,2.736,1.97,2.696c1.589-0.037,1.877-1.307,1.879-2.61c0.009-7.092,0.013-14.184-0.005-21.274
		c-0.003-1.313-0.32-2.54-1.987-2.464c-1.604,0.074-1.868,1.25-1.858,2.595C196.764,260.694,196.752,264.203,196.752,267.712z
		 M208.957,267.671c0-3.582-0.001-7.164,0.001-10.746c0-1.279-0.357-2.318-1.865-2.346c-1.521-0.025-1.959,1.063-1.965,2.297
		c-0.033,7.235-0.032,14.473-0.002,21.707c0.005,1.217,0.393,2.396,1.89,2.367c1.559-0.03,1.958-1.146,1.949-2.533
		C208.941,274.835,208.957,271.253,208.957,267.671z"/>
	<path fill="#D1DEEA" d="M23.566,405.712"/>
	<g>
		<path fill="#896CB7" d="M378.111,298.927c0.037-0.002,0.074-0.004,0.111-0.006c0-0.006,0.001-0.009,0.001-0.013L378.111,298.927z"
			/>
		<path fill="#C4C4C4" d="M803.142,317.585c31.978-78.918-19.967-233.806-64.847-220.263c-3.846,1.686-122.12,121.638-366.058,204.6
			c-312.67,106.337-127.245,241.836-17.635,229.187C706.176,490.536,771.555,395.536,803.142,317.585z"/>
	</g>
	<path fill="#37251B" d="M161.136,315.927c-5.895-0.232-9.271-2.591-10.492-7.325c-1.45-5.623,2.746-11.605,8.558-11.664
		c14.321-0.146,28.647-0.134,42.973-0.009c5.709,0.051,9.909,5.773,8.729,11.411c-0.102,0.488-0.215,0.976-0.321,1.462
		c-2.23,4.446-5.812,6.204-10.787,6.145C186.91,315.787,174.022,315.913,161.136,315.927z"/>
	<path fill="#37251B" d="M152.902,268.23c0-3.225,0.021-6.445-0.009-9.667c-0.012-1.354,0.27-2.541,1.85-2.614
		c1.714-0.08,2.116,1.188,2.139,2.595c0.032,2.22,0.048,4.44-0.009,6.659c-0.024,0.935,0.275,1.23,1.212,1.215
		c3.148-0.049,6.302-0.057,9.451,0.002c1.085,0.021,1.313-0.423,1.292-1.396c-0.057-2.29-0.001-4.583-0.023-6.874
		c-0.013-1.385,0.61-2.236,2.01-2.218c1.342,0.018,1.833,0.979,1.835,2.187c0.017,6.874,0.021,13.749-0.001,20.623
		c-0.004,1.307-0.59,2.28-2.038,2.208c-1.294-0.063-1.818-0.929-1.808-2.197c0.023-2.36-0.041-4.727,0.027-7.088
		c0.029-1.062-0.182-1.527-1.389-1.495c-3.077,0.085-6.16,0.103-9.233-0.006c-1.29-0.045-1.354,0.545-1.333,1.521
		c0.043,2.219,0.035,4.438,0.006,6.657c-0.02,1.421-0.464,2.657-2.152,2.601c-1.604-0.056-1.842-1.277-1.833-2.614
		C152.918,274.96,152.902,271.596,152.902,268.23z"/>
	<path fill="#D1DEEA" d="M161.136,315.927c12.886-0.015,25.773-0.141,38.657,0.02c4.977,0.062,8.556-1.696,10.787-6.145
		c1.369,3.154,0.108,6.577-2.873,8.355c-3.366,3.712-26.48,2.506-34.785,2.354c-3.695-0.067-7.415-0.519-10.515-2.961
		C161.837,317.099,161.226,316.732,161.136,315.927z"/>
	<path fill="#37251B" d="M186.309,272.485c-1.573,0-3.15,0.087-4.717-0.022c-1.925-0.134-1.799,0.727-1.181,2.027
		c1.497,3.152,5.646,4.263,8.574,2.259c0.354-0.24,0.646-0.563,0.993-0.813c0.854-0.615,1.75-0.732,2.497,0.1
		c0.771,0.859,0.486,1.697-0.272,2.451c-2.48,2.459-5.405,3.269-8.832,2.582c-4.938-0.989-7.892-5.521-7.22-11.221
		c0.57-4.836,4.706-8.346,9.458-8.022c4.263,0.289,7.711,3.866,7.941,8.13c0.093,1.717-0.548,2.568-2.308,2.537
		C189.599,272.461,187.955,272.485,186.309,272.485z M184.751,269.177c1.212,0,2.425-0.039,3.634,0.012
		c1.257,0.053,1.281-0.463,0.801-1.403c-1.519-2.97-6.365-3.267-8.309-0.469c-0.313,0.447-0.71,1.083-0.603,1.512
		c0.178,0.693,0.969,0.299,1.482,0.331C182.752,269.222,183.753,269.177,184.751,269.177z"/>
	<path fill="#37251B" d="M221.509,261.816c5.412,0.168,9.43,4.562,9.164,10.021c-0.271,5.543-4.402,9.68-9.526,9.53
		c-5.313-0.153-9.428-4.582-9.3-10.016C211.978,265.782,216.166,261.65,221.509,261.816z M226.86,271.52
		c-0.02-3.538-2.318-6.111-5.503-6.157c-3.271-0.048-5.706,2.596-5.695,6.186c0.009,3.55,2.513,6.252,5.728,6.186
		C224.529,277.665,226.88,274.997,226.86,271.52z"/>
	<path fill="#37251B" d="M196.752,267.712c0-3.509,0.013-7.02-0.006-10.528c-0.01-1.345,0.254-2.521,1.858-2.595
		c1.667-0.075,1.983,1.149,1.987,2.464c0.018,7.092,0.014,14.184,0.005,21.274c-0.002,1.305-0.291,2.574-1.879,2.61
		c-1.763,0.04-1.975-1.293-1.97-2.696C196.759,274.734,196.752,271.224,196.752,267.712z"/>
	<path fill="#37251B" d="M208.957,267.671c0,3.583-0.017,7.164,0.007,10.746c0.008,1.387-0.393,2.502-1.949,2.533
		c-1.497,0.029-1.885-1.15-1.89-2.367c-0.03-7.234-0.031-14.471,0.002-21.707c0.005-1.232,0.444-2.322,1.965-2.297
		c1.508,0.026,1.866,1.064,1.865,2.346C208.955,260.507,208.957,264.089,208.957,267.671z"/>
	<path fill="#896CB7" d="M793.511,465.875c0.229,0.059,0.575,0.047,0.659,0.188c0.148,0.254-0.106,0.435-0.353,0.538
		C793.716,466.361,793.615,466.118,793.511,465.875z"/>
	<path fill="#FDFDFD" d="M560.447,218.96c-0.108-0.147-0.221-0.298-0.329-0.444C560.566,218.413,560.444,218.733,560.447,218.96z"/>
	<path fill="#896CB7" d="M184.751,269.177c-0.998,0-1.999,0.045-2.992-0.019c-0.515-0.032-1.307,0.362-1.482-0.331
		c-0.107-0.43,0.291-1.063,0.603-1.512c1.941-2.798,6.79-2.501,8.309,0.469c0.48,0.94,0.456,1.456-0.801,1.403
		C187.175,269.138,185.962,269.177,184.751,269.177z"/>
	<path fill="#E7B49D" d="M226.86,271.52c0.021,3.478-2.331,6.146-5.473,6.212c-3.215,0.066-5.719-2.635-5.728-6.186
		c-0.011-3.59,2.425-6.232,5.695-6.186C224.542,265.408,226.841,267.982,226.86,271.52z"/>
	<polygon fill="#37251B" points="714.017,270.156 714.048,270.209 714.002,270.131 	"/>
</g>
<circle fill="#37251B" cx="771.555" cy="84.857" r="6.713"/>
<circle fill="#37251B" cx="791.555" cy="84.857" r="6.713"/>
<circle fill="#37251B" cx="811.61" cy="84.857" r="6.713"/>
<path fill="#212121" d="M407.446,538.139c0,0,181.08,6.669,248.579-18.633C841.891,449.835,846.838,252.68,811.61,168.808
	c-62.164-148-222.106-109.861-317.67-90.664c-70.838,14.23-124.097,36.864-90.494,96.995
	C560.178,455.608,407.446,538.139,407.446,538.139z"/>
<g>
	<path fill="#4F82F0" d="M680.698,463.01c0,3.12,0,24.535,0,24.535s-0.117-11.858-17.286-11.858H459.41
		c-7.001,0-12.677-5.676-12.677-12.677v-38.207c0-7.001,5.676-12.678,12.677-12.678h208.611c7.001,0,12.677,5.677,12.677,12.678
		V463.01L680.698,463.01z"/>
	<path fill="#4F82F0" d="M680.698,367.758c0-7.001-5.676-12.678-12.677-12.678H459.41c-7.001,0-12.677,5.677-12.677,12.678v22.071
		c0,7,5.676,12.677,12.677,12.677h208.611c7.001,0,12.677-5.677,12.677-12.677V367.758L680.698,367.758z"/>
	<path fill="#E6E7E8" d="M393.915,536.681c0,3.121,0,24.535,0,24.535s0.118-11.857,17.286-11.857h204
		c7.001,0,12.678-5.677,12.678-12.678v-38.207c0-7-5.677-12.676-12.678-12.676H406.592c-7.001,0-12.677,5.676-12.677,12.676V536.681
		z"/>
	
		<line fill="none" stroke="#EAEAEA" stroke-width="5" stroke-linecap="round" stroke-linejoin="round" stroke-miterlimit="10" x1="472.989" y1="378.793" x2="514.891" y2="378.793"/>
	
		<line fill="none" stroke="#EAEAEA" stroke-width="5" stroke-linecap="round" stroke-linejoin="round" stroke-miterlimit="10" x1="531.44" y1="378.793" x2="575.458" y2="378.793"/>
	
		<line fill="none" stroke="#EAEAEA" stroke-width="5" stroke-linecap="round" stroke-linejoin="round" stroke-miterlimit="10" x1="484.961" y1="432.913" x2="588.487" y2="432.913"/>
	
		<line fill="none" stroke="#EAEAEA" stroke-width="5" stroke-linecap="round" stroke-linejoin="round" stroke-miterlimit="10" x1="470.876" y1="454.57" x2="562.126" y2="454.57"/>
	
		<line fill="none" stroke="#EAEAEA" stroke-width="5" stroke-linecap="round" stroke-linejoin="round" stroke-miterlimit="10" x1="578.011" y1="454.57" x2="598.963" y2="454.57"/>
</g>
<g>
	<path fill="#37251B" d="M262.913,269.632c0.809,1.039,1.213,2.38,1.213,4.021c0,2.873-0.821,4.877-2.462,6.012
		c-1.643,1.135-3.599,1.702-5.867,1.702h-9.018c-0.628,0-1.152-0.211-1.574-0.634c-0.422-0.422-0.635-0.947-0.635-1.575v-20.931
		c0-0.628,0.212-1.153,0.635-1.576c0.422-0.422,0.946-0.633,1.574-0.633h9.126c4.587,0,6.881,2.147,6.881,6.444
		c0,1.086-0.261,2.046-0.778,2.879c-0.521,0.833-1.262,1.491-2.228,1.975C261.06,267.822,262.104,268.595,262.913,269.632z
		 M257.336,261.031c-0.495-0.494-1.189-0.742-2.082-0.742h-5.976v5.649h6.083c0.726,0,1.358-0.241,1.901-0.726
		c0.543-0.481,0.815-1.135,0.815-1.955C258.079,262.269,257.831,261.527,257.336,261.031z M258.459,276.296
		c0.639-0.604,0.959-1.484,0.959-2.645c0-1.424-0.375-2.354-1.123-2.788c-0.749-0.435-1.666-0.651-2.752-0.651h-6.266v6.988h6.519
		C256.932,277.2,257.819,276.9,258.459,276.296z"/>
	<path fill="#37251B" d="M271.894,280.732c-0.422,0.423-0.948,0.634-1.575,0.634c-0.604,0-1.11-0.211-1.521-0.634
		c-0.411-0.422-0.616-0.947-0.616-1.575v-22.38c0-0.627,0.211-1.152,0.634-1.575s0.947-0.634,1.575-0.634
		c0.604,0,1.11,0.211,1.521,0.634c0.409,0.423,0.615,0.948,0.615,1.575v22.38C272.528,279.784,272.317,280.31,271.894,280.732z"/>
	<path fill="#37251B" d="M294.546,276.894c-0.869,1.533-2.06,2.722-3.567,3.565c-1.509,0.847-3.168,1.269-4.979,1.269
		c-1.835,0-3.501-0.422-4.998-1.269c-1.497-0.845-2.681-2.032-3.549-3.565c-0.869-1.533-1.305-3.267-1.305-5.197
		s0.436-3.663,1.305-5.197c0.868-1.531,2.052-2.727,3.549-3.584c1.497-0.856,3.163-1.286,4.998-1.286c1.811,0,3.47,0.43,4.979,1.286
		c1.509,0.857,2.698,2.053,3.567,3.584c0.869,1.534,1.303,3.267,1.303,5.197S295.415,275.361,294.546,276.894z M290.761,268.529
		c-0.495-0.93-1.159-1.648-1.992-2.155s-1.756-0.761-2.77-0.761c-1.015,0-1.938,0.254-2.771,0.761s-1.497,1.227-1.992,2.155
		c-0.494,0.93-0.741,1.985-0.741,3.168c0,1.184,0.247,2.233,0.741,3.15c0.495,0.918,1.159,1.63,1.992,2.137s1.756,0.761,2.771,0.761
		c1.014,0,1.937-0.254,2.77-0.761s1.497-1.219,1.992-2.137c0.495-0.917,0.743-1.968,0.743-3.15S291.256,269.458,290.761,268.529z"/>
	<path fill="#37251B" d="M317.071,262.245c0.41,0.41,0.616,0.941,0.616,1.593v16.115c0,2.944-0.912,5.124-2.733,6.536
		c-1.823,1.412-4.135,2.119-6.936,2.119c-0.725,0-1.72-0.121-2.988-0.363c-1.268-0.241-2.167-0.481-2.697-0.724
		c-1.184-0.507-1.774-1.208-1.774-2.102c0-0.169,0.036-0.36,0.108-0.579c0.145-0.53,0.392-0.937,0.743-1.214
		c0.35-0.276,0.729-0.416,1.141-0.416c0.241,0,0.471,0.037,0.688,0.109c0.097,0.022,0.694,0.246,1.792,0.67
		c1.099,0.422,2.095,0.633,2.988,0.633c1.786,0,3.12-0.354,4.001-1.067s1.322-1.721,1.322-3.023v-1.738
		c-0.531,0.748-1.334,1.425-2.408,2.028c-1.075,0.603-2.227,0.905-3.458,0.905c-1.689,0-3.229-0.43-4.617-1.285
		c-1.389-0.857-2.479-2.047-3.276-3.567c-0.796-1.521-1.195-3.247-1.195-5.179s0.392-3.663,1.177-5.197
		c0.784-1.532,1.859-2.727,3.224-3.584c1.363-0.856,2.879-1.286,4.544-1.286c1.23,0,2.378,0.253,3.439,0.762
		c1.063,0.507,1.919,1.123,2.571,1.847v-0.398c0-0.628,0.205-1.151,0.616-1.574c0.41-0.423,0.929-0.635,1.557-0.635
		C316.141,261.629,316.66,261.835,317.071,262.245z M311.983,276.025c1.026-1.146,1.539-2.59,1.539-4.328s-0.513-3.188-1.539-4.346
		c-1.025-1.158-2.348-1.738-3.965-1.738c-1.618,0-2.934,0.58-3.947,1.738c-1.014,1.157-1.521,2.606-1.521,4.346
		s0.507,3.182,1.521,4.328c1.015,1.146,2.33,1.72,3.947,1.72C309.635,277.744,310.956,277.171,311.983,276.025z"/>
</g>
<g>
	<path fill="#4F82F0" d="M681.885,247.077c0,3.12,0,24.535,0,24.535s-0.117-11.858-17.286-11.858H460.596
		c-7.001,0-12.677-5.676-12.677-12.677V208.87c0-7.001,5.676-12.677,12.677-12.677h208.61c7.002,0,12.678,5.676,12.678,12.677
		L681.885,247.077L681.885,247.077z"/>
	<path fill="#E6E7E8" d="M395.101,320.749c0,3.121,0,24.535,0,24.535s0.118-11.856,17.286-11.856h204.002
		c7.001,0,12.677-5.678,12.677-12.679v-38.207c0-7-5.676-12.676-12.677-12.676H407.778c-7.001,0-12.677,5.676-12.677,12.676V320.749
		z"/>
	<g>
		<circle fill="#FBCA40" cx="538.437" cy="292.785" r="11.225"/>
		<path fill="#FBBB40" d="M545.545,301.475c0,0-0.063,0.053-0.096,0.077c-1.92,1.538-4.358,2.46-7.013,2.46
			c-6.199,0-11.226-5.026-11.226-11.228c0-3.251,1.384-6.179,3.589-8.229c0.028-0.025,0.088-0.077,0.088-0.077
			s-1.802,8.111,3.611,12.829C539.801,301.928,545.545,301.475,545.545,301.475z"/>
		<path fill="#231F20" d="M544.167,287.55c-1.524,0-1.524,2.364,0,2.364S545.692,287.55,544.167,287.55z"/>
		<path fill="#231F20" d="M538.535,287.55c-1.523,0-1.523,2.364,0,2.364C540.058,289.914,540.058,287.55,538.535,287.55z"/>
		<path fill="#231F20" d="M544.579,295.099c0,0.663,0,2.684,0,2.684h-6.75c0,0,0-2.178,0-2.684c0-1.891,1.512-3.425,3.374-3.425
			C543.067,291.675,544.579,293.209,544.579,295.099z"/>
		<path fill="#FF6D6A" d="M549.517,297.624c0,1.144-1.414,0.993-3.508,0.993c-2.098,0-8.181-0.833-8.181-0.833
			s0.65-2.227,7.894-2.227C547.816,295.558,549.517,296.482,549.517,297.624z"/>
		<path fill="#FF476A" d="M547.486,297.383c0,0-1.166-0.648-2.223-0.992c-1.035-0.334-1.832-0.396-1.832-0.396
			s0.492-0.308,1.818-0.096C547.494,296.253,547.486,297.383,547.486,297.383z"/>
	</g>
	
		<line fill="none" stroke="#EAEAEA" stroke-width="5" stroke-linecap="round" stroke-linejoin="round" stroke-miterlimit="10" x1="486.146" y1="216.982" x2="589.673" y2="216.982"/>
	
		<line fill="none" stroke="#EAEAEA" stroke-width="5" stroke-linecap="round" stroke-linejoin="round" stroke-miterlimit="10" x1="472.061" y1="238.638" x2="563.311" y2="238.638"/>
	
		<line fill="none" stroke="#EAEAEA" stroke-width="5" stroke-linecap="round" stroke-linejoin="round" stroke-miterlimit="10" x1="579.197" y1="238.638" x2="600.148" y2="238.638"/>
	
		<line fill="none" stroke="#2D2D2D" stroke-width="5" stroke-linecap="round" stroke-linejoin="round" stroke-miterlimit="10" x1="425.206" y1="293.331" x2="479.807" y2="293.331"/>
	
		<line fill="none" stroke="#2D2D2D" stroke-width="5" stroke-linecap="round" stroke-linejoin="round" stroke-miterlimit="10" x1="498.823" y1="293.331" x2="507.977" y2="293.331"/>
	
		<line fill="none" stroke="#2D2D2D" stroke-width="5" stroke-linecap="round" stroke-linejoin="round" stroke-miterlimit="10" x1="440.017" y1="314.459" x2="503.05" y2="314.459"/>
</g>
<circle fill="#D3D3D3" cx="482.19" cy="519.64" r="9.679"/>
<circle fill="#D3D3D3" cx="512.19" cy="519.507" r="9.679"/>
<circle fill="#D3D3D3" cx="542.19" cy="519.64" r="9.679"/>
<circle fill="#383838" cx="652.982" cy="148.378" r="28.903"/>
</svg>
