<?xml version="1.0" encoding="utf-8"?>
<!-- Generator: Adobe Illustrator 16.0.0, SVG Export Plug-In . SVG Version: 6.00 Build 0)  -->
<!DOCTYPE svg PUBLIC "-//W3C//DTD SVG 1.1//EN" "http://www.w3.org/Graphics/SVG/1.1/DTD/svg11.dtd">
<svg version="1.1" id="Layer_1" xmlns="http://www.w3.org/2000/svg" xmlns:xlink="http://www.w3.org/1999/xlink" x="0px" y="0px"
	 width="150px" height="150px" viewBox="0 0 150 150" enable-background="new 0 0 150 150" xml:space="preserve">
<g id="Layer_1_1_" display="none">
</g>
<g id="Layer_5">
	<path fill="#FFFFFF" d="M18.75,18.75v112.5h112.5V18.75H18.75z M124.482,124.482H25.488V25.488h98.994V124.482z"/>
	<g>
		<path fill="#FFFFFF" d="M100.4,58.564h-6.416c-0.703,0-1.26,0.557-1.26,1.26v36.738c0,0.703,0.557,1.26,1.26,1.26h6.416
			c0.703,0,1.26-0.586,1.26-1.26V59.824C101.66,59.121,101.104,58.564,100.4,58.564z"/>
		<circle fill="#FFFFFF" cx="97.207" cy="48.721" r="5.215"/>
		<path fill="#FFFFFF" d="M71.133,46.553c-0.293-1.025-1.23-1.699-2.285-1.699h-7.031c-1.084,0-2.021,0.732-2.314,1.758
			L46.348,94.805c-0.439,1.494,0.703,3.018,2.285,3.018h3.34c1.084,0,2.021-0.732,2.314-1.758l3.047-11.074
			c0.293-1.025,1.23-1.758,2.314-1.758H70.43c1.025,0,1.963,0.674,2.285,1.641l3.691,11.309c0.322,0.996,1.23,1.641,2.285,1.641
			h4.629c1.611,0,2.754-1.553,2.285-3.076L71.133,46.553z M59.971,75.088l5.156-20.303l5.684,20.303H59.971z"/>
	</g>
</g>
</svg>
