<?xml version="1.0" encoding="utf-8"?>
<!-- Generator: Adobe Illustrator 16.0.0, SVG Export Plug-In . SVG Version: 6.00 Build 0)  -->
<!DOCTYPE svg PUBLIC "-//W3C//DTD SVG 1.1//EN" "http://www.w3.org/Graphics/SVG/1.1/DTD/svg11.dtd">
<svg version="1.1" id="Layer_1" xmlns="http://www.w3.org/2000/svg" xmlns:xlink="http://www.w3.org/1999/xlink" x="0px" y="0px"
	 width="512px" height="512px" viewBox="0 0 512 512" enable-background="new 0 0 512 512" xml:space="preserve">
<path fill="#FFFFFF" d="M30.5,30.5v451h451v-451H30.5z M306.896,384.159c0,46.835-22.443,63.18-58.302,63.18
	c-8.781,0-20.002-1.464-27.321-3.903l4.146-30.005c5.123,1.707,11.709,2.928,19.027,2.928c15.612,0,25.37-7.075,25.37-32.443
	V280.242h37.079V384.159z M378.114,447.339c-18.783,0-37.323-5.12-46.589-10.246l7.561-30.492
	c9.757,5.122,25.37,10.246,41.226,10.246c17.075,0,26.101-7.073,26.101-18.051c0-10.001-7.805-16.099-27.564-22.929
	c-27.321-9.759-45.371-24.883-45.371-49.031c0-28.054,23.661-49.273,62.203-49.273c18.78,0,32.199,3.659,41.956,8.294l-8.293,29.76
	c-6.344-3.172-18.297-7.806-34.152-7.806c-16.098,0-23.906,7.562-23.906,15.855c0,10.489,9.025,15.124,30.493,23.419
	c29.026,10.733,42.442,25.856,42.442,49.272C444.221,423.921,423.244,447.339,378.114,447.339z"/>
</svg>
