<?xml version="1.0" encoding="utf-8"?>
<!-- Generator: Adobe Illustrator 16.0.0, SVG Export Plug-In . SVG Version: 6.00 Build 0)  -->
<!DOCTYPE svg PUBLIC "-//W3C//DTD SVG 1.1//EN" "http://www.w3.org/Graphics/SVG/1.1/DTD/svg11.dtd">
<svg version="1.1" id="Layer_1" xmlns="http://www.w3.org/2000/svg" xmlns:xlink="http://www.w3.org/1999/xlink" x="0px" y="0px"
	 width="284.254px" height="81px" viewBox="0 0 284.254 81" enable-background="new 0 0 284.254 81" xml:space="preserve">
<g id="Layer_2">
	
		<linearGradient id="SVGID_1_" gradientUnits="userSpaceOnUse" x1="10.791" y1="37.042" x2="49.5273" y2="37.042" gradientTransform="matrix(1 0 0 -1 -0.0151 80.6992)">
		<stop  offset="0" style="stop-color:#4287FD"/>
		<stop  offset="1" style="stop-color:#DF4B64"/>
	</linearGradient>
	<path fill="url(#SVGID_1_)" d="M44.917,44.917c14.352-24.778-9.5-29.083-9.5-29.083S11.934,8.502,13.51,38.167
		c0.281,5.292-1.781,0.518-2.318,1.832c-2.118,5.183,4.517,9.417,4.974,12.043C19.922,73.602,21.792,62.292,26.61,69
		c1.499,2.087,5.415,3.664,7.828,3.202c1.407-0.271,2.732-1.022,3.99-1.677c0.858-0.641,9.846-7.715,7.748-14.644
		C40.542,62.811,43.555,47.268,44.917,44.917z"/>
</g>
<g id="Layer_1_1_">
	<g enable-background="new    ">
		<path d="M68.65,34.434c-0.432,0.6-0.646,1.255-0.646,1.962v2.171h4.202c0.739,0,1.354,0.239,1.847,0.716
			c0.492,0.478,0.739,1.085,0.739,1.824s-0.247,1.347-0.739,1.824c-0.493,0.478-1.108,0.716-1.847,0.716h-4.202v16.348
			c0,0.802-0.262,1.471-0.785,2.009c-0.524,0.539-1.186,0.809-1.986,0.809c-0.801,0-1.463-0.27-1.986-0.809
			c-0.524-0.538-0.785-1.207-0.785-2.009V43.646h-2.494c-0.739,0-1.355-0.238-1.847-0.716c-0.493-0.478-0.739-1.085-0.739-1.824
			s0.246-1.347,0.739-1.824c0.492-0.477,1.108-0.716,1.847-0.716h2.494v-2.124c0-2.31,0.792-4.187,2.378-5.635
			c1.585-1.446,3.871-2.17,6.858-2.17c1.139,0,2.131,0.23,2.979,0.692c0.847,0.462,1.27,1.171,1.27,2.124
			c0,0.739-0.216,1.34-0.646,1.802c-0.432,0.462-0.955,0.692-1.57,0.692c-0.154,0-0.316-0.015-0.485-0.046
			c-0.169-0.03-0.346-0.062-0.531-0.093c-0.739-0.185-1.355-0.277-1.848-0.277C69.819,33.532,69.081,33.833,68.65,34.434z
			 M78.44,34.595c-0.431-0.338-0.646-0.938-0.646-1.801v-0.878c0-0.861,0.231-1.462,0.693-1.801s1.201-0.508,2.217-0.508
			c1.077,0,1.831,0.169,2.263,0.508c0.431,0.339,0.646,0.939,0.646,1.801v0.878c0,0.894-0.224,1.501-0.669,1.824
			c-0.447,0.323-1.208,0.484-2.286,0.484C79.61,35.103,78.871,34.934,78.44,34.595z M82.689,62.003
			c-0.524,0.539-1.186,0.809-1.986,0.809c-0.801,0-1.463-0.27-1.986-0.809c-0.524-0.538-0.785-1.207-0.785-2.009V40.922
			c0-0.801,0.261-1.47,0.785-2.009c0.523-0.539,1.185-0.809,1.986-0.809c0.8,0,1.462,0.27,1.986,0.809
			c0.523,0.539,0.785,1.208,0.785,2.009v19.072C83.474,60.796,83.212,61.465,82.689,62.003z"/>
		<path d="M104.325,38.428c0.63,0.524,0.947,1.14,0.947,1.848c0,0.954-0.247,1.67-0.739,2.147c-0.493,0.478-1.078,0.716-1.755,0.716
			c-0.461,0-0.985-0.107-1.57-0.323c-0.092-0.03-0.3-0.093-0.624-0.186c-0.323-0.092-0.669-0.138-1.039-0.138
			c-0.801,0-1.57,0.246-2.309,0.738c-0.739,0.493-1.347,1.24-1.824,2.24c-0.478,1.001-0.716,2.193-0.716,3.579v10.944
			c0,0.802-0.262,1.471-0.785,2.009c-0.524,0.539-1.186,0.809-1.986,0.809c-0.801,0-1.462-0.27-1.986-0.809
			c-0.523-0.538-0.785-1.207-0.785-2.009V40.922c0-0.801,0.261-1.47,0.785-2.009s1.185-0.809,1.986-0.809
			c0.8,0,1.462,0.27,1.986,0.809c0.523,0.539,0.785,1.208,0.785,2.009v0.601c0.708-1.263,1.724-2.225,3.048-2.887
			s2.74-0.993,4.249-0.993C102.916,37.643,103.693,37.904,104.325,38.428z"/>
		<path d="M130.625,38.428c0.523,0.524,0.785,1.201,0.785,2.032v19.534c0,0.802-0.262,1.471-0.785,2.009
			c-0.524,0.539-1.186,0.809-1.986,0.809c-0.801,0-1.455-0.261-1.962-0.785c-0.508-0.523-0.778-1.185-0.808-1.985
			c-0.77,0.893-1.809,1.655-3.117,2.285c-1.309,0.631-2.687,0.947-4.133,0.947c-2.125,0-4.049-0.546-5.773-1.64
			c-1.725-1.093-3.087-2.609-4.087-4.549c-1.001-1.939-1.501-4.141-1.501-6.604s0.492-4.672,1.478-6.627
			c0.985-1.955,2.332-3.479,4.041-4.572c1.709-1.093,3.594-1.64,5.657-1.64c1.478,0,2.863,0.271,4.157,0.809
			c1.293,0.539,2.385,1.224,3.279,2.055V40.46c0-0.801,0.261-1.47,0.785-2.009c0.523-0.538,1.185-0.809,1.986-0.809
			C129.439,37.643,130.101,37.904,130.625,38.428z M124.206,56c1.262-1.462,1.894-3.302,1.894-5.519s-0.632-4.064-1.894-5.542
			c-1.263-1.478-2.895-2.217-4.896-2.217c-1.97,0-3.587,0.739-4.849,2.217c-1.263,1.478-1.894,3.325-1.894,5.542
			s0.624,4.057,1.87,5.519c1.247,1.463,2.871,2.193,4.872,2.193C121.311,58.193,122.943,57.463,124.206,56z"/>
		<path d="M157.133,40.437c1.2,1.863,1.801,4.441,1.801,7.735v11.822c0,0.802-0.262,1.471-0.785,2.009
			c-0.523,0.539-1.186,0.809-1.986,0.809s-1.463-0.27-1.985-0.809c-0.524-0.538-0.785-1.207-0.785-2.009V48.172
			c0-1.692-0.354-3.024-1.062-3.994c-0.709-0.97-1.926-1.455-3.648-1.455c-1.787,0-3.188,0.516-4.203,1.547
			c-1.016,1.032-1.523,2.332-1.523,3.902v11.822c0,0.802-0.262,1.471-0.786,2.009c-0.524,0.539-1.186,0.809-1.986,0.809
			c-0.801,0-1.462-0.27-1.986-0.809c-0.523-0.538-0.785-1.207-0.785-2.009V40.922c0-0.801,0.261-1.47,0.785-2.009
			s1.185-0.809,1.986-0.809c0.8,0,1.462,0.27,1.986,0.809s0.786,1.208,0.786,2.009v0.785c0.831-1.108,1.916-2.063,3.256-2.863
			c1.339-0.801,2.809-1.201,4.41-1.201C153.762,37.643,155.932,38.574,157.133,40.437z"/>
	</g>
	<g enable-background="new    ">
		<path d="M178.838,39.028c0.492,0.247,0.738,0.616,0.738,1.108c0,0.432-0.123,0.777-0.369,1.039
			c-0.247,0.262-0.539,0.393-0.877,0.393c-0.155,0-0.455-0.077-0.901-0.231c-0.446-0.153-0.87-0.23-1.271-0.23
			c-1.139,0-2.27,0.438-3.394,1.316c-1.124,0.877-2.048,2.009-2.771,3.394c-0.725,1.386-1.086,2.787-1.086,4.203v11.406
			c0,0.4-0.131,0.732-0.393,0.993c-0.262,0.262-0.593,0.393-0.992,0.393c-0.4,0-0.732-0.131-0.993-0.393
			c-0.263-0.261-0.393-0.593-0.393-0.993V40.737c0-0.4,0.13-0.731,0.393-0.993c0.261-0.262,0.593-0.393,0.993-0.393
			c0.399,0,0.73,0.131,0.992,0.393s0.393,0.593,0.393,0.993v4.063c0.708-1.755,1.778-3.21,3.21-4.364s3.117-1.747,5.057-1.777
			C177.791,38.659,178.345,38.782,178.838,39.028z"/>
		<path d="M203.176,57.27c-1.017,1.879-2.418,3.349-4.203,4.41c-1.785,1.063-3.771,1.594-5.957,1.594
			c-2.187,0-4.172-0.531-5.957-1.594c-1.787-1.062-3.188-2.531-4.203-4.41c-1.016-1.877-1.523-3.972-1.523-6.28
			c0-2.31,0.508-4.402,1.523-6.281c1.016-1.877,2.416-3.354,4.203-4.433c1.785-1.077,3.771-1.616,5.957-1.616
			c2.186,0,4.172,0.539,5.957,1.616c1.785,1.078,3.187,2.556,4.203,4.433c1.016,1.879,1.523,3.972,1.523,6.281
			C204.699,53.298,204.191,55.393,203.176,57.27z M200.773,46.002c-0.77-1.479-1.84-2.64-3.209-3.487
			c-1.371-0.846-2.887-1.27-4.549-1.27s-3.172,0.424-4.525,1.27c-1.355,0.848-2.426,2.009-3.21,3.487
			c-0.785,1.478-1.178,3.14-1.178,4.987c0,1.816,0.393,3.464,1.178,4.941c0.784,1.478,1.854,2.64,3.21,3.486
			c1.354,0.848,2.863,1.271,4.525,1.271s3.178-0.416,4.549-1.247c1.369-0.831,2.439-1.986,3.209-3.464s1.154-3.141,1.154-4.987
			C201.928,49.142,201.543,47.479,200.773,46.002z"/>
		<path d="M230.652,57.27c-1.016,1.879-2.418,3.349-4.203,4.41c-1.785,1.063-3.771,1.594-5.957,1.594s-4.172-0.531-5.957-1.594
			c-1.786-1.062-3.187-2.531-4.203-4.41c-1.016-1.877-1.523-3.972-1.523-6.28c0-2.31,0.508-4.402,1.523-6.281
			c1.017-1.877,2.417-3.354,4.203-4.433c1.785-1.077,3.771-1.616,5.957-1.616s4.172,0.539,5.957,1.616
			c1.785,1.078,3.188,2.556,4.203,4.433c1.016,1.879,1.523,3.972,1.523,6.281C232.176,53.298,231.668,55.393,230.652,57.27z
			 M228.251,46.002c-0.771-1.479-1.841-2.64-3.21-3.487c-1.37-0.846-2.887-1.27-4.549-1.27s-3.171,0.424-4.525,1.27
			c-1.355,0.848-2.425,2.009-3.209,3.487c-0.785,1.478-1.178,3.14-1.178,4.987c0,1.816,0.393,3.464,1.178,4.941
			c0.784,1.478,1.854,2.64,3.209,3.486c1.354,0.848,2.863,1.271,4.525,1.271s3.179-0.416,4.549-1.247
			c1.369-0.831,2.439-1.986,3.21-3.464c0.769-1.478,1.154-3.141,1.154-4.987C229.405,49.142,229.02,47.479,228.251,46.002z"/>
		<path d="M270.76,41.591c1.309,1.709,1.963,3.965,1.963,6.766v13.069c0,0.4-0.131,0.732-0.393,0.993
			c-0.262,0.262-0.594,0.393-0.992,0.393c-0.401,0-0.732-0.131-0.994-0.393c-0.262-0.261-0.393-0.593-0.393-0.993V48.495
			c0-2.031-0.484-3.687-1.454-4.964s-2.471-1.917-4.503-1.917c-1.293,0-2.517,0.309-3.672,0.924
			c-1.154,0.616-2.086,1.455-2.793,2.517c-0.709,1.063-1.063,2.21-1.063,3.44v12.931c0,0.4-0.131,0.732-0.393,0.993
			c-0.262,0.262-0.594,0.393-0.992,0.393c-0.4,0-0.732-0.131-0.994-0.393c-0.262-0.261-0.393-0.593-0.393-0.993V48.356
			c0-2.001-0.461-3.625-1.385-4.872c-0.924-1.246-2.371-1.87-4.341-1.87c-1.263,0-2.456,0.309-3.579,0.924
			c-1.125,0.616-2.032,1.439-2.725,2.471c-0.693,1.032-1.039,2.147-1.039,3.348v13.069c0,0.4-0.131,0.732-0.393,0.993
			c-0.262,0.262-0.594,0.393-0.993,0.393c-0.4,0-0.731-0.131-0.993-0.393c-0.262-0.261-0.393-0.593-0.393-0.993V40.737
			c0-0.4,0.131-0.731,0.393-0.993s0.593-0.393,0.993-0.393c0.399,0,0.731,0.131,0.993,0.393s0.393,0.593,0.393,0.993v2.678
			c0.831-1.262,1.955-2.309,3.371-3.14c1.416-0.832,2.909-1.247,4.479-1.247c1.785,0,3.325,0.432,4.618,1.293
			c1.293,0.862,2.217,2.124,2.771,3.787c0.646-1.354,1.83-2.54,3.555-3.557c1.725-1.016,3.465-1.523,5.219-1.523
			C267.412,39.028,269.451,39.883,270.76,41.591z"/>
	</g>
	<g>
		<path d="M37.404,36.403c0.326-0.079,1.738,0.206,2.071,0.127c0.463-0.112,0.632-0.35,0.315-0.706
			c-0.63-0.71-2.961-1.77-9.022-2.032c-0.058-0.004-0.137-0.012-0.228-0.019c-0.867,0.089-0.347-0.179-0.813,0.569
			c-0.029,0.044,0.008,0.105,0.008,0.158c0.165,0.343-0.208,0.957,0.123,1.033c1.469,0.334,1.433,1.222-0.123,2.777
			c-0.916,0.915-1.299,5.488-0.053,7.241l-0.004,0.002c0.223,0.502,1.528,1.95,1.389,2.133c-0.865,1.147-1.95-0.215-1.695,1.558
			c0.032,0.247-0.304,0.75-0.544,0.8c-1.279,0.277-1.323,1.469-1.763,2.327c-0.147,0.289-0.005,0.97,0.243,1.157
			c0.362,0.277,0.943,0.357,1.419,0.328c0.123-0.008,0.203-0.738,0.295-1.137c0.105-0.451,0.207-0.904,0.308-1.355
			c0.445,0.188,0.899,0.361,1.338,0.572c0.146,0.067,0.249,0.232,0.375,0.346c0.66,0.595,1.051,0.326,1.153-0.43
			c0.083-0.619,0.075-1.258,0.026-1.883c-0.113-1.431-0.863-6.375,1.174-7.289c1.397-0.625,2.709,0.121,2.709,0.121
			c5.467,1.663,1.648-2.039,0.886-2.865C36.146,39.024,35.306,36.903,37.404,36.403z"/>
		<path d="M46.175,55.882c-0.058-0.288-0.518,3.45-5.886,7.921c-2.455,1.241-4.95,2.418-7.505,3.43
			c-1.309,0.52-2.766,0.748-4.178,0.895c-1.403,0.145-2.769-0.456-3.313-1.73c-0.708-1.66-1.301-2.701-3.142-1.229
			c-0.136,0.112-1.101-0.394-1.16-0.711c-0.074-0.384,0.306-1.009,0.675-1.274c0.313-0.229,0.903-0.025,1.341-0.138
			c1.203-0.306,2.446-0.556,3.576-1.054c1.117-0.492,1.154-1.195,0.218-1.934c-0.76-0.601-1.583-1.141-2.435-1.604
			c-0.471-0.256-1.055-0.303-1.588-0.444c0.51-0.144,1.181-0.128,1.494-0.458c1.383-1.453,2.955-0.84,4.508-0.57
			c0.341,0.061,0.677,0.188,1.015,0.188c0.235-0.004,0.471-0.171,0.704-0.264c-0.17-0.205-0.306-0.537-0.514-0.594
			c-1.593-0.418-3.2-0.787-4.805-1.154c-0.274-0.063-0.601,0.023-0.844-0.086c-0.341-0.157-0.627-0.437-0.937-0.661
			c0.256-0.188,0.493-0.423,0.775-0.558c1.299-0.629,1.574-1.724,1.417-3.025c-0.025-0.225-0.025-0.514-0.161-0.658
			c-1.162-1.258-3.428-0.404-4.063-2.207c-0.432-1.225,2.848-3.691,3.294-5.766c1.244-5.779,0.085-6.242-3.104-7.106
			c-1.758-0.477,5.908-1.317,1.81-1.984c-0.277-0.047-3.313-0.555-3.753-0.586c-1.146-0.08-2.609,0.325-3.754,0.327
			c-1.617,0-3.018,2.155-0.776,2.068c0.442-0.015-0.868,0.923-1.027,1.319c-1.367,3.425-0.021,6.158,2.226,8.599
			c0.782,0.85,0.675,1.333-0.205,1.885c-2.042,1.28-2.214,2.078-1.099,4.189c0.418,0.795,0.891,1.683,0.912,2.539
			c0.063,2.74-0.716,3.541-0.126,7.512c0.269,1.793,1.587,4.025,4.123,5.921c7.213,5.392,3.854,5.274,2.188,7.836
			c-0.892,1.367,8.989,3.644,19.781-4.687C53.981,60.675,46.382,56.918,46.175,55.882z"/>
		<path d="M48.961,19.799c-0.718-2.2-2.049-3.925-2.99-5.919c-0.087-0.188-0.363-0.479-0.443-0.447
			c-1.398,0.552-1.482-0.354-1.689-1.35c-0.086-0.429-0.584-0.82-0.975-1.127c-1.081-0.851-2.454-1.456-3.25-2.507
			c-1.205-1.599-2.66-2.25-4.546-2.29c-0.335-0.007-0.701-0.092-0.992-0.248c-2.188-1.167-4.357-0.884-6.606-0.133
			c-0.931,0.311-2.203-0.122-2.959,0.356c-0.832,0.523-1.192,1.753-1.869,2.589c-0.56,0.691-1.424,1.161-1.912,1.893
			c-1.631,2.453-3.539,4.738-4.169,7.776c-0.531,2.565-1.382,5.063-2.061,7.599c-0.202,0.758-0.297,1.546-0.442,2.318l0.003-0.006
			c0.321-0.581,0.749-1.127,0.952-1.746c0.742-2.278,1.787-4.337,3.688-5.891c0.933-0.76,1.902-1.117,2.977-0.401
			c0.208,0.138,0.322,0.369,0.518,0.437c2.555,0.887,5.457,0.61,8.092-0.02c0.355-0.083,0.697-0.28,1.047-0.367
			c1.204-0.295,2.454-0.503,3.688-0.542c1.193-0.038,2.412,0.086,3.585,0.316c1.98,0.39,3.879,0.936,5.227,2.692
			c1.829,2.39,3.456,4.854,4.223,7.816c0.214,0.829,0.568,1.625,0.895,2.421c0.075,0.18,0.314,0.292,0.479,0.437
			c0.097-0.177,0.262-0.347,0.281-0.532C50.211,28.511,50.395,24.182,48.961,19.799z"/>
		<path d="M11.007,43.884c0.019-0.786,0.554-1.997,0.763-2.597c0.029-0.087,0.055-0.162,0.067-0.219
			c0.009-0.031,0.015-0.059,0.015-0.083c0.031-0.408-0.292-0.844-0.46-1.268c-0.224,0.331-0.486,0.638-0.658,0.996
			c-0.04,0.081-0.07,0.171-0.1,0.262c-0.005,0.026-0.012,0.051-0.02,0.077c-0.02,0.075-0.039,0.153-0.057,0.237l0,0l0,0
			c-0.032,0.051-0.056,0.172-0.077,0.335l0,0c-0.019,0.078-0.035,0.154-0.056,0.244c0.007,0.021,0.016,0.051,0.026,0.083l0,0
			c-0.072,1.103-0.016,3.167,0.025,3.392c0.096,0.479,0.507,0.898,0.787,1.342c0.213-0.267,0.425-0.533,0.707-0.888
			c-0.339-0.343-0.576-0.772-0.749-1.229C11.135,44.344,11.062,44.113,11.007,43.884z"/>
		<path d="M26.554,49.133c-0.123-0.039-0.29,0.063-0.438,0.104c0.155,0.182,0.291,0.388,0.478,0.531
			c0.051,0.039,0.244-0.104,0.51-0.225C26.859,49.354,26.724,49.189,26.554,49.133z"/>
	</g>
</g>
</svg>
