<?xml version="1.0" encoding="utf-8"?>
<!-- Generator: Adobe Illustrator 16.0.0, SVG Export Plug-In . SVG Version: 6.00 Build 0)  -->
<!DOCTYPE svg PUBLIC "-//W3C//DTD SVG 1.1//EN" "http://www.w3.org/Graphics/SVG/1.1/DTD/svg11.dtd">
<svg version="1.1" id="Layer_1" xmlns="http://www.w3.org/2000/svg" xmlns:xlink="http://www.w3.org/1999/xlink" x="0px" y="0px"
	 width="150px" height="150px" viewBox="0 0 150 150" enable-background="new 0 0 150 150" xml:space="preserve">
<path fill="#FFFFFF" d="M32.478,62.167c0-0.547-0.289-1.052-0.763-1.324l-12.622-7.265c-0.214-0.125-0.453-0.19-0.696-0.201
	c-0.021,0-0.112,0-0.131,0c-0.241,0.01-0.481,0.075-0.696,0.201L4.947,60.843c-0.471,0.272-0.763,0.777-0.763,1.324l0.027,19.562
	c0,0.272,0.142,0.525,0.381,0.658c0.233,0.14,0.523,0.14,0.757,0l7.501-4.296c0.475-0.281,0.763-0.779,0.763-1.323v-9.139
	c0-0.544,0.288-1.048,0.761-1.32l3.193-1.84c0.238-0.136,0.499-0.203,0.765-0.203c0.26,0,0.527,0.067,0.758,0.203l3.193,1.84
	c0.473,0.271,0.762,0.776,0.762,1.32v9.139c0,0.544,0.293,1.043,0.764,1.323l7.5,4.296c0.235,0.14,0.529,0.14,0.762,0
	c0.232-0.134,0.378-0.388,0.378-0.658L32.478,62.167z"/>
<path fill="#FFFFFF" d="M99.879,35.278c-0.236-0.132-0.523-0.129-0.758,0.008c-0.233,0.137-0.377,0.387-0.377,0.657v19.371
	c0,0.19-0.102,0.367-0.267,0.462c-0.164,0.095-0.367,0.095-0.533,0l-3.161-1.821c-0.472-0.272-1.052-0.271-1.523,0l-12.627,7.287
	c-0.474,0.273-0.764,0.776-0.764,1.321v14.578c0,0.544,0.29,1.049,0.764,1.321l12.625,7.292c0.473,0.273,1.054,0.273,1.526,0
	l12.63-7.292c0.471-0.272,0.762-0.777,0.762-1.321V40.804c0-0.553-0.299-1.062-0.782-1.332L99.879,35.278z M98.707,72.353
	c0,0.135-0.071,0.261-0.189,0.331l-4.335,2.498c-0.118,0.069-0.265,0.069-0.382,0l-4.335-2.498
	c-0.118-0.069-0.189-0.193-0.189-0.331v-5.007c0-0.135,0.071-0.261,0.189-0.33l4.335-2.504c0.119-0.068,0.264-0.068,0.382,0
	l4.336,2.504c0.117,0.068,0.191,0.194,0.191,0.33L98.707,72.353L98.707,72.353z"/>
<path fill="#FFFFFF" d="M145.058,67.215c0.469-0.272,0.758-0.775,0.758-1.318v-3.532c0-0.544-0.29-1.046-0.76-1.319l-12.547-7.285
	c-0.471-0.274-1.055-0.275-1.526-0.001l-12.623,7.288c-0.473,0.272-0.764,0.775-0.764,1.319v14.576c0,0.547,0.295,1.053,0.771,1.325
	l12.545,7.146c0.463,0.266,1.03,0.268,1.496,0.009l7.587-4.216c0.241-0.134,0.391-0.388,0.392-0.662
	c0.003-0.275-0.145-0.53-0.383-0.666L127.3,72.587c-0.235-0.137-0.382-0.389-0.382-0.662v-4.567c0-0.272,0.146-0.525,0.382-0.66
	l3.952-2.28c0.235-0.135,0.526-0.135,0.762,0l3.955,2.28c0.237,0.135,0.382,0.388,0.382,0.66v3.593c0,0.274,0.146,0.525,0.382,0.662
	s0.527,0.135,0.763-0.001L145.058,67.215z"/>
<path fill="#FFFFFF" d="M55.44,53.683c0.471-0.273,1.052-0.273,1.524,0l12.625,7.286c0.472,0.272,0.763,0.775,0.763,1.32v14.584
	c0,0.544-0.291,1.048-0.763,1.322l-12.625,7.29c-0.472,0.272-1.054,0.272-1.526,0l-12.623-7.29
	c-0.471-0.274-0.762-0.778-0.762-1.322V62.289c0-0.544,0.291-1.047,0.762-1.319L55.44,53.683z"/>
<path fill="#FFFFFF" d="M75.25,132.01c-0.623,0-1.238-0.162-1.783-0.479l-5.676-3.357c-0.848-0.475-0.436-0.641-0.156-0.739
	c1.13-0.394,1.361-0.483,2.566-1.168c0.127-0.071,0.293-0.043,0.422,0.031l4.362,2.591c0.158,0.087,0.382,0.087,0.527,0
	l17.002-9.814c0.157-0.09,0.26-0.271,0.26-0.458V98.994c0-0.19-0.103-0.372-0.267-0.467l-16.993-9.806
	c-0.156-0.093-0.367-0.093-0.522,0l-16.993,9.807c-0.163,0.094-0.269,0.28-0.269,0.466v19.622c0,0.188,0.106,0.364,0.269,0.452
	l4.657,2.69c2.527,1.264,4.073-0.224,4.073-1.719v-19.372c0-0.272,0.221-0.488,0.496-0.488h2.155c0.269,0,0.493,0.213,0.493,0.488
	v19.372c0,3.372-1.834,5.307-5.034,5.307c-0.984,0-1.757,0-3.917-1.063l-4.458-2.567c-1.101-0.635-1.78-1.826-1.78-3.1V98.994
	c0-1.273,0.682-2.465,1.78-3.1l17.003-9.824c1.076-0.608,2.505-0.608,3.573,0l17.001,9.824c1.103,0.637,1.788,1.826,1.788,3.1
	v19.622c0,1.273-0.687,2.459-1.788,3.1l-17.001,9.815C76.495,131.848,75.88,132.01,75.25,132.01z"/>
<path fill="#FFFFFF" d="M80.501,118.492c-7.438,0-8.999-3.413-8.999-6.278c0-0.272,0.217-0.491,0.492-0.491h2.197
	c0.244,0,0.449,0.177,0.488,0.417c0.331,2.236,1.32,3.365,5.819,3.365c3.583,0,5.106-0.811,5.106-2.71
	c0-1.094-0.434-1.907-5.999-2.453c-4.65-0.459-7.527-1.485-7.527-5.208c0-3.433,2.891-5.479,7.738-5.479
	c5.449,0,8.143,1.893,8.484,5.947c0.013,0.14-0.037,0.274-0.131,0.378c-0.092,0.099-0.221,0.158-0.359,0.158h-2.206
	c-0.228,0-0.43-0.163-0.476-0.386c-0.531-2.355-1.818-3.107-5.313-3.107c-3.91,0-4.364,1.363-4.364,2.381
	c0,1.238,0.536,1.598,5.816,2.298c5.223,0.689,7.706,1.669,7.706,5.34C88.976,116.371,85.889,118.492,80.501,118.492z"/>
<path fill="#FFFFFF" d="M131.56,66.533c0.089-0.053,0.203-0.053,0.292,0l2.424,1.398c0.091,0.052,0.146,0.148,0.146,0.254v2.799
	c0,0.104-0.055,0.201-0.146,0.253l-2.424,1.397c-0.089,0.052-0.203,0.052-0.292,0l-2.421-1.397
	c-0.091-0.052-0.147-0.149-0.147-0.253v-2.799c0-0.105,0.056-0.202,0.147-0.254L131.56,66.533z"/>
<g>
	<path fill="#FFFFFF" d="M107.594,91.388c0,1.803-1.476,3.276-3.277,3.276c-1.787,0-3.278-1.456-3.278-3.276
		c0-1.855,1.527-3.278,3.278-3.278C106.086,88.109,107.594,89.532,107.594,91.388z M101.569,91.379c0,1.526,1.23,2.756,2.738,2.756
		c1.527,0,2.758-1.258,2.758-2.756c0-1.525-1.249-2.739-2.758-2.739C102.815,88.64,101.569,89.835,101.569,91.379z M103.085,89.549
		h1.268c0.434,0,1.284,0,1.284,0.973c0,0.677-0.436,0.814-0.696,0.899c0.505,0.035,0.538,0.364,0.607,0.833
		c0.036,0.296,0.089,0.799,0.19,0.972h-0.777c-0.021-0.173-0.142-1.11-0.142-1.162c-0.05-0.207-0.12-0.312-0.381-0.312h-0.641v1.474
		h-0.711v-3.677H103.085z M103.778,91.162h0.574c0.467,0,0.555-0.331,0.555-0.519c0-0.503-0.347-0.503-0.538-0.503h-0.588v1.021
		H103.778z"/>
</g>
</svg>
