<?xml version="1.0" encoding="utf-8"?>
<!-- Generator: Adobe Illustrator 16.0.0, SVG Export Plug-In . SVG Version: 6.00 Build 0)  -->
<!DOCTYPE svg PUBLIC "-//W3C//DTD SVG 1.1//EN" "http://www.w3.org/Graphics/SVG/1.1/DTD/svg11.dtd">
<svg version="1.1" xmlns="http://www.w3.org/2000/svg" xmlns:xlink="http://www.w3.org/1999/xlink" x="0px" y="0px" width="500px"
	 height="500px" viewBox="0 0 500 500" enable-background="new 0 0 500 500" xml:space="preserve">
<g id="BACKGROUND">
	<rect fill="#FFFFFF" width="500" height="500"/>
</g>
<g id="OBJECT">
	<g opacity="0.5">
		<path opacity="0.43" fill="#DDD6FF" d="M204.403,310.383v-31.835l-21.591,23.598v39.239h-13.911v-56.235h-3.537l-10.072-9.411
			l-10.126,9.411h-3.479v75.891h-27.813l0,0H90.505v41.336h147.626v-91.993H204.403z M165.364,330.561h-20.14v-2.058h20.14V330.561z
			 M165.364,326.454h-20.14v-2.057h20.14V326.454z M165.364,322.349h-20.14v-2.053h20.14V322.349z M165.364,318.243h-20.14v-2.054
			h20.14V318.243z M165.364,314.141h-20.14v-2.057h20.14V314.141z M165.364,310.035h-20.14v-2.057h20.14V310.035z M165.364,305.93
			h-20.14v-2.053h20.14V305.93z M165.364,301.823h-20.14v-2.053h20.14V301.823z M165.364,297.718h-20.14v-2.053h20.14V297.718z
			 M165.364,293.616h-20.14v-2.058h20.14V293.616z M165.364,289.511h-20.14v-2.054h20.14V289.511z M201.664,389.509h-2.09V288.481
			l2.09-2.291V389.509z"/>
		<path opacity="0.43" fill="#DDD6FF" d="M356.871,310.383v-31.835l-21.592,23.598v39.239h-13.91v-56.235h-3.537l-10.072-9.411
			l-10.127,9.411h-3.479v75.891h-27.813l0,0h-23.368v41.336H390.6v-91.993H356.871z M317.832,330.561h-20.141v-2.058h20.141V330.561
			z M317.832,326.454h-20.141v-2.057h20.141V326.454z M317.832,322.349h-20.141v-2.053h20.141V322.349z M317.832,318.243h-20.141
			v-2.054h20.141V318.243z M317.832,314.141h-20.141v-2.057h20.141V314.141z M317.832,310.035h-20.141v-2.057h20.141V310.035z
			 M317.832,305.93h-20.141v-2.053h20.141V305.93z M317.832,301.823h-20.141v-2.053h20.141V301.823z M317.832,297.718h-20.141
			v-2.053h20.141V297.718z M317.832,293.616h-20.141v-2.058h20.141V293.616z M317.832,289.511h-20.141v-2.054h20.141V289.511z
			 M354.132,389.509h-2.091V288.481l2.091-2.291V389.509z"/>
		<path fill="#DDD6FF" d="M301.77,363.86v-71.95h-3.242v-7.28h-25.081v7.28h-3.223v90.454h-23.539V341.4h-34.276v53.753h-16.561
			v-96.286h-33.764v73.976h-3.962v-44.035h-6.107l-17.027-8.993v8.993h-3.725v54.385h-8.267v-73.649h-8.361v-25.838h-1.145v25.838
			h-8.361v92.992h217.765V363.86H301.77z M120.981,356.867h-13.794v-1.6h13.794V356.867z M120.981,353.164h-13.794v-1.601h13.794
			V353.164z M120.981,349.455h-13.794v-1.601h13.794V349.455z M120.981,345.751h-13.794v-1.601h13.794V345.751z M120.981,342.048
			h-13.794v-1.601h13.794V342.048z M120.981,338.339h-13.794v-1.601h13.794V338.339z M120.981,334.635h-13.794v-1.601h13.794
			V334.635z M120.981,330.932h-13.794v-1.601h13.794V330.932z M120.981,327.223h-13.794v-1.601h13.794V327.223z M120.981,323.519
			h-13.794v-1.601h13.794V323.519z M120.981,319.814h-13.794v-1.601h13.794V319.814z M120.981,316.106h-13.794v-1.602h13.794
			V316.106z M120.981,312.402h-13.794v-1.601h13.794V312.402z M169.357,334.459h-4.108v-4.103h4.108V334.459z M169.357,327.616
			h-4.108v-4.108h4.108V327.616z M169.357,320.768h-4.108v-4.103h4.108V320.768z M169.357,313.925h-4.108v-4.107h4.108V313.925z
			 M169.357,307.077h-4.108v-4.107h4.108V307.077z M177.159,334.459h-4.103v-4.103h4.103V334.459z M177.159,327.616h-4.103v-4.108
			h4.103V327.616z M177.159,320.768h-4.103v-4.103h4.103V320.768z M177.159,313.925h-4.103v-4.107h4.103V313.925z M177.159,307.077
			h-4.103v-4.107h4.103V307.077z M184.965,334.459h-4.107v-4.103h4.107V334.459z M184.965,327.616h-4.107v-4.108h4.107V327.616z
			 M184.965,320.768h-4.107v-4.103h4.107V320.768z M184.965,313.925h-4.107v-4.107h4.107V313.925z M184.965,307.077h-4.107v-4.107
			h4.107V307.077z M192.766,334.459h-4.103v-4.103h4.103V334.459z M192.766,327.616h-4.103v-4.108h4.103V327.616z M192.766,320.768
			h-4.103v-4.103h4.103V320.768z M192.766,313.925h-4.103v-4.107h4.103V313.925z M305.002,397.723h-4.268v-4.269h4.268V397.723z
			 M305.002,389.176h-4.268v-4.269h4.268V389.176z M305.002,380.629h-4.268v-4.269h4.268V380.629z M305.002,372.082h-4.268v-4.269
			h4.268V372.082z M312.923,397.723h-4.269v-4.269h4.269V397.723z M312.923,389.176h-4.269v-4.269h4.269V389.176z M312.923,380.629
			h-4.269v-4.269h4.269V380.629z M312.923,372.082h-4.269v-4.269h4.269V372.082z M320.843,397.723h-4.273v-4.269h4.273V397.723z
			 M320.843,389.176h-4.273v-4.269h4.273V389.176z M320.843,380.629h-4.273v-4.269h4.273V380.629z M320.843,372.082h-4.273v-4.269
			h4.273V372.082z"/>
		<path fill="#DDD6FF" d="M401.93,356.216V291.91h-3.243v-7.28h-25.081v7.28h-3.223v90.454h-23.538V341.4h-34.276v53.753h-16.561
			v-96.286h-33.764v73.976h-3.963v-44.035h-6.107l-17.027-8.993v8.993h-3.724v54.385h-8.268v-73.649h-8.36v-25.838h-1.145v25.838
			h-8.36v92.992h217.764v-46.319H401.93z M221.141,356.867h-13.795v-1.6h13.795V356.867z M221.141,353.164h-13.795v-1.601h13.795
			V353.164z M221.141,349.455h-13.795v-1.601h13.795V349.455z M221.141,345.751h-13.795v-1.601h13.795V345.751z M221.141,342.048
			h-13.795v-1.601h13.795V342.048z M221.141,338.339h-13.795v-1.601h13.795V338.339z M221.141,334.635h-13.795v-1.601h13.795
			V334.635z M221.141,330.932h-13.795v-1.601h13.795V330.932z M221.141,327.223h-13.795v-1.601h13.795V327.223z M221.141,323.519
			h-13.795v-1.601h13.795V323.519z M221.141,319.814h-13.795v-1.601h13.795V319.814z M221.141,316.106h-13.795v-1.602h13.795
			V316.106z M221.141,312.402h-13.795v-1.601h13.795V312.402z M269.517,334.459h-4.107v-4.103h4.107V334.459z M269.517,327.616
			h-4.107v-4.108h4.107V327.616z M269.517,320.768h-4.107v-4.103h4.107V320.768z M269.517,313.925h-4.107v-4.107h4.107V313.925z
			 M269.517,307.077h-4.107v-4.107h4.107V307.077z M277.318,334.459h-4.103v-4.103h4.103V334.459z M277.318,327.616h-4.103v-4.108
			h4.103V327.616z M277.318,320.768h-4.103v-4.103h4.103V320.768z M277.318,313.925h-4.103v-4.107h4.103V313.925z M277.318,307.077
			h-4.103v-4.107h4.103V307.077z M285.124,334.459h-4.107v-4.103h4.107V334.459z M285.124,327.616h-4.107v-4.108h4.107V327.616z
			 M285.124,320.768h-4.107v-4.103h4.107V320.768z M285.124,313.925h-4.107v-4.107h4.107V313.925z M285.124,307.077h-4.107v-4.107
			h4.107V307.077z M292.926,334.459h-4.103v-4.103h4.103V334.459z M292.926,327.616h-4.103v-4.108h4.103V327.616z M292.926,320.768
			h-4.103v-4.103h4.103V320.768z M292.926,313.925h-4.103v-4.107h4.103V313.925z M407.327,386.393h-3.686v-3.686h3.686V386.393z
			 M407.327,379.014h-3.686v-3.686h3.686V379.014z M407.327,371.635h-3.686v-3.686h3.686V371.635z M407.327,364.256h-3.686v-3.686
			h3.686V364.256z M414.164,386.393h-3.685v-3.686h3.685V386.393z M414.164,379.014h-3.685v-3.686h3.685V379.014z M414.164,371.635
			h-3.685v-3.686h3.685V371.635z M414.164,364.256h-3.685v-3.686h3.685V364.256z M421.002,386.393h-3.689v-3.686h3.689V386.393z
			 M421.002,379.014h-3.689v-3.686h3.689V379.014z M421.002,371.635h-3.689v-3.686h3.689V371.635z M421.002,364.256h-3.689v-3.686
			h3.689V364.256z"/>
		<rect x="423.054" y="369.947" opacity="0.43" fill="#DDD6FF" width="14.624" height="32.588"/>
	</g>
	<g>
		<g>
			<g>
				<path fill="#D6D4FF" d="M166.802,373.103c-1.783-2.861-3.614-5.862-3.909-9.221c-0.273-3.111-0.781-6.546-0.311-9.635
					c0.47-3.09,0.259-6.257-0.424-9.307c-2.141-9.563-6.157-8.502-7.617-7.771c-1.434,0.719-2.109,2.289-2.177,4.816
					c-0.055,2.032,1.414,11.535-1.692,10.145c-3.595-1.608-3.538-11.54-4.122-14.845c-0.875-4.944-2.937-10.219-6.746-13.633
					c-1.877-1.683-4.631-2.906-6.887-1.779c-1.35,0.674-2.214,2.062-2.692,3.493c-1.437,4.313,0.086,8.775,1.802,12.76
					c0.718,1.666,6.516,9.353,1.767,8.636c-1.134-0.172-10.637-7.507-11.506,0.171c-0.306,2.704,2.735,5.453,7.556,8.885
					c3.011,2.144,14.135,7.715,13.599,10.707c-0.537,2.993-6.714-1.736-5.946,3.822c0.43,3.114,4.54,5.33,7.325,6.486
					c1.325,0.55,2.756,0.834,4.042,1.469c1.526,0.754,3.399,2.591,2.252,4.402c-0.501,0.791-1.479,1.192-1.953,1.999
					c-0.482,0.82-0.32,1.901,0.188,2.706c0.508,0.804,1.306,1.378,2.12,1.869c5.22,3.151,11.735,3.621,17.707,2.392
					s11.501-4.023,16.782-7.071"/>
			</g>
			<g opacity="0.25">
				
					<path fill="none" stroke="#FFFFFF" stroke-width="0.7496" stroke-linecap="round" stroke-linejoin="round" stroke-miterlimit="10" d="
					M135.904,327.052c0,0,6.523,32.522,26.437,52.682"/>
				
					<path fill="none" stroke="#FFFFFF" stroke-width="0.7496" stroke-linecap="round" stroke-linejoin="round" stroke-miterlimit="10" d="
					M127.045,348.588c0,0,11.104,8.535,20.193,9.709"/>
				
					<path fill="none" stroke="#FFFFFF" stroke-width="0.7496" stroke-linecap="round" stroke-linejoin="round" stroke-miterlimit="10" d="
					M156.242,341.218c0.616,5.116,1.174,19.407-3.622,26.339"/>
				
					<path fill="none" stroke="#FFFFFF" stroke-width="0.7496" stroke-linecap="round" stroke-linejoin="round" stroke-miterlimit="10" d="
					M141.575,371.385c0,0,4.364,3.717,17.793,5.139"/>
				
					<path fill="none" stroke="#FFFFFF" stroke-width="0.7496" stroke-linecap="round" stroke-linejoin="round" stroke-miterlimit="10" d="
					M151.801,385.584c0,0,6.937,1.168,13.072-2.501"/>
			</g>
		</g>
		<g>
			<path fill="#BFB8F4" d="M183.389,370.087c-0.686-3.885-7.841-28.305-20.396-21.819c-7.458,3.852-6.117,18.035,5.532,28.751
				c-2.286-2.212-4.927-4.719-8.047-5.339c-1.686-0.334-3.749,0.441-5.011,1.607c-1.124,1.037-1.454,2.675-1.506,4.203
				c-0.188,5.558,2.709,11.122,7.371,14.153c-2.577-1.439-4.81-3.242-7.75-3.494c-0.956-0.082-2.575,0.465-3.018,1.315
				c-0.481,0.927-0.447,4.398,5.225,6.991c-23.12-4.385-24.469,5.471-16.158,5.471s68.161,0,68.161,0"/>
		</g>
		<g>
			<path fill="#BFB8F4" d="M306.255,370.087c0.686-3.885,7.84-28.305,20.396-21.819c7.458,3.852,6.117,18.035-5.533,28.751
				c2.287-2.212,4.927-4.719,8.047-5.339c1.687-0.334,3.749,0.441,5.012,1.607c1.123,1.037,1.453,2.675,1.505,4.203
				c0.189,5.558-2.708,11.122-7.37,14.153c2.577-1.439,4.81-3.242,7.75-3.494c0.955-0.082,2.575,0.465,3.018,1.315
				c0.481,0.927,0.447,4.398-5.225,6.991c23.12-4.385,24.469,5.471,16.158,5.471s-54.924,0-54.924,0"/>
		</g>
		<g>
			<g>
				<path fill="#D6D4FF" d="M300.669,353.033c1.451-3.043,2.935-6.23,2.853-9.601c-0.077-3.123,0.043-6.593-0.77-9.609
					c-0.813-3.018-0.958-6.188-0.621-9.296c1.058-9.742,5.167-9.138,6.699-8.574c1.506,0.554,2.352,2.038,2.703,4.542
					c0.282,2.014-0.114,11.621,2.816,9.892c3.392-2.001,2.224-11.863,2.435-15.213c0.315-5.011,1.773-10.483,5.178-14.302
					c1.677-1.883,4.276-3.406,6.645-2.54c1.417,0.519,2.431,1.801,3.065,3.171c1.911,4.125,0.897,8.729-0.361,12.881
					c-0.527,1.736-5.429,10.023-0.789,8.778c1.107-0.297,9.729-8.65,11.453-1.118c0.606,2.653-2.107,5.726-6.515,9.676
					c-2.752,2.467-13.183,9.248-12.314,12.162c0.869,2.913,6.478-2.478,6.337,3.132c-0.078,3.144-3.914,5.805-6.553,7.266
					c-1.255,0.694-2.645,1.138-3.852,1.912c-1.433,0.92-3.089,2.955-1.746,4.627c0.586,0.73,1.603,1.02,2.165,1.769
					c0.57,0.761,0.53,1.854,0.116,2.709c-0.415,0.856-1.144,1.516-1.897,2.096c-4.835,3.715-11.257,4.911-17.328,4.358
					c-6.072-0.554-11.88-2.711-17.469-5.148"/>
			</g>
			<g opacity="0.25">
				
					<path fill="none" stroke="#FFFFFF" stroke-width="0.7496" stroke-linecap="round" stroke-linejoin="round" stroke-miterlimit="10" d="
					M326.217,303.813c0,0-2.841,33.048-20.372,55.31"/>
				
					<path fill="none" stroke="#FFFFFF" stroke-width="0.7496" stroke-linecap="round" stroke-linejoin="round" stroke-miterlimit="10" d="
					M337.431,324.221c0,0-10.077,9.725-18.979,11.908"/>
				
					<path fill="none" stroke="#FFFFFF" stroke-width="0.7496" stroke-linecap="round" stroke-linejoin="round" stroke-miterlimit="10" d="
					M307.594,320.166c-0.04,5.153,1.005,19.416,6.547,25.769"/>
				
					<path fill="none" stroke="#FFFFFF" stroke-width="0.7496" stroke-linecap="round" stroke-linejoin="round" stroke-miterlimit="10" d="
					M325.545,348.501c0,0-3.921,4.183-17.105,7.099"/>
				
					<path fill="none" stroke="#FFFFFF" stroke-width="0.7496" stroke-linecap="round" stroke-linejoin="round" stroke-miterlimit="10" d="
					M316.973,363.756c0,0-6.762,1.937-13.27-1.021"/>
			</g>
		</g>
	</g>
	<g>
		<g>
			<g>
				<path fill="#7A49C9" d="M316.317,145.25v236.986c0,10.878-8.813,19.691-19.691,19.691h-97.21
					c-10.878,0-19.691-8.813-19.691-19.691V145.25c0-10.868,8.813-19.691,19.691-19.691h97.21
					C307.504,125.558,316.317,134.382,316.317,145.25z"/>
				<path fill="#581E96" d="M316.317,145.25v3.268H179.724v-3.268c0-10.868,8.813-19.691,19.691-19.691h97.21
					C307.504,125.558,316.317,134.382,316.317,145.25z"/>
				<path fill="#581E96" d="M316.319,378.962v3.274c0,10.869-8.816,19.686-19.698,19.686h-97.207
					c-10.882,0-19.686-8.816-19.686-19.686v-3.274H316.319z"/>
				<path fill="#581E96" d="M317.461,233.934h-1.144v-52.155h1.144c1.426,0,2.581,1.156,2.581,2.582v46.992
					C320.042,232.778,318.887,233.934,317.461,233.934z"/>
				<path fill="#581E96" d="M179.724,206.26h-1.063c-1.325,0-2.4-1.074-2.4-2.399v-20.568c0-1.325,1.075-2.4,2.4-2.4h1.063V206.26z"
					/>
				<path fill="#581E96" d="M179.724,233.934h-0.927c-1.156,0-2.093-0.937-2.093-2.092v-11.426c0-1.156,0.937-2.092,2.093-2.092
					h0.927V233.934z"/>
				<circle fill="#837FE5" cx="224.547" cy="137.038" r="3.892"/>
				<circle fill="#837FE5" cx="234.991" cy="137.038" r="1.876"/>
				<path fill="#837FE5" d="M275.854,139.364h-32.698c-0.891,0-1.612-0.722-1.612-1.612v-1.428c0-0.89,0.722-1.612,1.612-1.612
					h32.698c0.891,0,1.612,0.722,1.612,1.612v1.428C277.467,138.642,276.745,139.364,275.854,139.364z"/>
				<circle fill="#837FE5" cx="248.021" cy="390.894" r="7.495"/>
				<rect x="182.739" y="148.514" fill="#F8F8FF" width="129.5" height="230.448"/>
			</g>
			<g>
				<g>
					<rect x="186.447" y="155.75" opacity="0.43" fill="#DDD6FF" width="122.535" height="67.877"/>
					<g>
						<polygon fill="#FFC359" points="229.746,161.136 230.794,163.26 233.139,163.601 231.442,165.254 231.843,167.59 
							229.746,166.487 227.649,167.59 228.049,165.254 226.353,163.601 228.697,163.26 						"/>
						<polygon fill="#FFC359" points="239.979,161.136 241.028,163.26 243.373,163.601 241.676,165.254 242.076,167.59 
							239.979,166.487 237.883,167.59 238.283,165.254 236.586,163.601 238.931,163.26 						"/>
						<polygon fill="#FFC359" points="250.213,161.136 251.262,163.26 253.606,163.601 251.909,165.254 252.311,167.59 
							250.213,166.487 248.116,167.59 248.517,165.254 246.82,163.601 249.165,163.26 						"/>
						<polygon fill="#FFC359" points="260.446,161.136 261.495,163.26 263.84,163.601 262.144,165.254 262.544,167.59 
							260.446,166.487 258.35,167.59 258.75,165.254 257.054,163.601 259.398,163.26 						"/>
						<polygon fill="#FFC359" points="270.681,161.136 271.729,163.26 274.073,163.601 272.377,165.254 272.777,167.59 
							270.681,166.487 268.584,167.59 268.984,165.254 267.287,163.601 269.632,163.26 						"/>
						<g opacity="0.15">
							
								<line fill="none" stroke="#0964AF" stroke-width="3.0528" stroke-linecap="round" stroke-linejoin="round" stroke-miterlimit="10" x1="304.465" y1="199.349" x2="292.9" y2="199.349"/>
							
								<line fill="none" stroke="#0964AF" stroke-width="3.0528" stroke-linecap="round" stroke-linejoin="round" stroke-miterlimit="10" x1="244.038" y1="190.634" x2="227.482" y2="190.634"/>
							
								<line fill="none" stroke="#0964AF" stroke-width="3.0528" stroke-linecap="round" stroke-linejoin="round" stroke-miterlimit="10" x1="304.465" y1="190.634" x2="251.212" y2="190.634"/>
							
								<line fill="none" stroke="#0964AF" stroke-width="3.0528" stroke-linecap="round" stroke-linejoin="round" stroke-miterlimit="10" x1="304.465" y1="181.919" x2="227.482" y2="181.919"/>
							
								<line fill="none" stroke="#0964AF" stroke-width="3.0528" stroke-linecap="round" stroke-linejoin="round" stroke-miterlimit="10" x1="255.196" y1="173.205" x2="227.482" y2="173.205"/>
							
								<line fill="none" stroke="#0964AF" stroke-width="3.0528" stroke-linecap="round" stroke-linejoin="round" stroke-miterlimit="10" x1="304.465" y1="173.205" x2="262.095" y2="173.205"/>
							
								<line fill="none" stroke="#0964AF" stroke-width="3.0528" stroke-linecap="round" stroke-linejoin="round" stroke-miterlimit="10" x1="285.755" y1="199.349" x2="227.482" y2="199.349"/>
						</g>
					</g>
				</g>
				<g>
					<rect x="191.205" y="165.75" fill="#9999EF" width="29.385" height="53.287"/>
					<g>
						<rect x="201.229" y="206.26" opacity="0.5" fill="#FFFFFF" width="9.125" height="12.777"/>
						<rect x="195.292" y="161.428" fill="#9999EF" width="21" height="3.667"/>
						<g opacity="0.3">
							<rect x="206.921" y="190.018" fill="#F8F8FF" width="4.583" height="4.583"/>
							<rect x="213.766" y="190.018" fill="#F8F8FF" width="4.583" height="4.583"/>
							<rect x="193.234" y="197.143" fill="#F8F8FF" width="4.583" height="4.583"/>
							<rect x="200.078" y="197.143" fill="#F8F8FF" width="4.583" height="4.583"/>
							<rect x="206.921" y="197.143" fill="#F8F8FF" width="4.583" height="4.583"/>
							<rect x="213.766" y="197.143" fill="#F8F8FF" width="4.583" height="4.583"/>
							<rect x="193.234" y="168.643" fill="#F8F8FF" width="4.583" height="4.583"/>
							<rect x="200.078" y="168.643" fill="#F8F8FF" width="4.583" height="4.583"/>
							<rect x="206.921" y="168.643" fill="#F8F8FF" width="4.583" height="4.583"/>
							<rect x="213.766" y="168.643" fill="#F8F8FF" width="4.583" height="4.583"/>
							<rect x="193.234" y="175.768" fill="#F8F8FF" width="4.583" height="4.583"/>
							<rect x="200.078" y="175.768" fill="#F8F8FF" width="4.583" height="4.583"/>
							<rect x="206.921" y="175.768" fill="#F8F8FF" width="4.583" height="4.583"/>
							<rect x="213.766" y="175.768" fill="#F8F8FF" width="4.583" height="4.583"/>
							<rect x="193.234" y="182.893" fill="#F8F8FF" width="4.583" height="4.583"/>
							<rect x="200.078" y="182.893" fill="#F8F8FF" width="4.583" height="4.583"/>
							<rect x="206.921" y="182.893" fill="#F8F8FF" width="4.583" height="4.583"/>
							<rect x="213.766" y="182.893" fill="#F8F8FF" width="4.583" height="4.583"/>
							<rect x="193.234" y="190.018" fill="#F8F8FF" width="4.583" height="4.583"/>
							<rect x="200.078" y="190.018" fill="#F8F8FF" width="4.583" height="4.583"/>
						</g>
						<rect x="190.104" y="217" fill="#8989E8" width="31.375" height="2.037"/>
					</g>
				</g>
				<path fill="#837FE5" d="M258.814,219.037h-26.526c-3.278,0-5.935-2.657-5.935-5.936l0,0c0-3.278,2.657-5.935,5.935-5.935h26.526
					c3.278,0,5.936,2.657,5.936,5.935l0,0C264.75,216.38,262.093,219.037,258.814,219.037z"/>
				<text transform="matrix(1 0 0 1 236.5039 215.2397)" fill="#FFFFFF" font-family="'Montserrat-SemiBold'" font-size="5.9332">BOOK</text>
			</g>
			<g>
				<g>
					<rect x="186.447" y="230.483" opacity="0.43" fill="#DDD6FF" width="122.535" height="67.877"/>
					<g>
						<polygon fill="#FFC359" points="229.746,235.869 230.794,237.994 233.139,238.334 231.442,239.988 231.843,242.323 
							229.746,241.221 227.649,242.323 228.049,239.988 226.353,238.334 228.697,237.994 						"/>
						<polygon fill="#FFC359" points="239.979,235.869 241.028,237.994 243.373,238.334 241.676,239.988 242.076,242.323 
							239.979,241.221 237.883,242.323 238.283,239.988 236.586,238.334 238.931,237.994 						"/>
						<polygon fill="#FFC359" points="250.213,235.869 251.262,237.994 253.606,238.334 251.909,239.988 252.311,242.323 
							250.213,241.221 248.116,242.323 248.517,239.988 246.82,238.334 249.165,237.994 						"/>
						<polygon opacity="0.3" fill="#FFC359" points="260.446,235.869 261.495,237.994 263.84,238.334 262.144,239.988 
							262.544,242.323 260.446,241.221 258.35,242.323 258.75,239.988 257.054,238.334 259.398,237.994 						"/>
						<polygon opacity="0.3" fill="#FFC359" points="270.681,235.869 271.729,237.994 274.073,238.334 272.377,239.988 
							272.777,242.323 270.681,241.221 268.584,242.323 268.984,239.988 267.287,238.334 269.632,237.994 						"/>
						<g opacity="0.15">
							
								<line fill="none" stroke="#0964AF" stroke-width="3.0528" stroke-linecap="round" stroke-linejoin="round" stroke-miterlimit="10" x1="304.465" y1="274.082" x2="292.9" y2="274.082"/>
							
								<line fill="none" stroke="#0964AF" stroke-width="3.0528" stroke-linecap="round" stroke-linejoin="round" stroke-miterlimit="10" x1="244.038" y1="265.367" x2="227.482" y2="265.367"/>
							
								<line fill="none" stroke="#0964AF" stroke-width="3.0528" stroke-linecap="round" stroke-linejoin="round" stroke-miterlimit="10" x1="304.465" y1="265.367" x2="251.212" y2="265.367"/>
							
								<line fill="none" stroke="#0964AF" stroke-width="3.0528" stroke-linecap="round" stroke-linejoin="round" stroke-miterlimit="10" x1="304.465" y1="256.653" x2="227.482" y2="256.653"/>
							
								<line fill="none" stroke="#0964AF" stroke-width="3.0528" stroke-linecap="round" stroke-linejoin="round" stroke-miterlimit="10" x1="255.196" y1="247.938" x2="227.482" y2="247.938"/>
							
								<line fill="none" stroke="#0964AF" stroke-width="3.0528" stroke-linecap="round" stroke-linejoin="round" stroke-miterlimit="10" x1="304.465" y1="247.938" x2="262.095" y2="247.938"/>
							
								<line fill="none" stroke="#0964AF" stroke-width="3.0528" stroke-linecap="round" stroke-linejoin="round" stroke-miterlimit="10" x1="285.755" y1="274.082" x2="227.482" y2="274.082"/>
						</g>
					</g>
				</g>
				<g>
					<rect x="191.205" y="240.483" fill="#9999EF" width="29.385" height="53.287"/>
					<g>
						<rect x="201.229" y="280.993" opacity="0.5" fill="#FFFFFF" width="9.125" height="12.777"/>
						<rect x="195.292" y="236.161" fill="#9999EF" width="21" height="3.667"/>
						<g opacity="0.3">
							<rect x="206.921" y="264.751" fill="#F8F8FF" width="4.583" height="4.583"/>
							<rect x="213.766" y="264.751" fill="#F8F8FF" width="4.583" height="4.583"/>
							<rect x="193.234" y="271.876" fill="#F8F8FF" width="4.583" height="4.583"/>
							<rect x="200.078" y="271.876" fill="#F8F8FF" width="4.583" height="4.583"/>
							<rect x="206.921" y="271.876" fill="#F8F8FF" width="4.583" height="4.583"/>
							<rect x="213.766" y="271.876" fill="#F8F8FF" width="4.583" height="4.583"/>
							<rect x="193.234" y="243.376" fill="#F8F8FF" width="4.583" height="4.583"/>
							<rect x="200.078" y="243.376" fill="#F8F8FF" width="4.583" height="4.583"/>
							<rect x="206.921" y="243.376" fill="#F8F8FF" width="4.583" height="4.583"/>
							<rect x="213.766" y="243.376" fill="#F8F8FF" width="4.583" height="4.583"/>
							<rect x="193.234" y="250.501" fill="#F8F8FF" width="4.583" height="4.583"/>
							<rect x="200.078" y="250.501" fill="#F8F8FF" width="4.583" height="4.583"/>
							<rect x="206.921" y="250.501" fill="#F8F8FF" width="4.583" height="4.583"/>
							<rect x="213.766" y="250.501" fill="#F8F8FF" width="4.583" height="4.583"/>
							<rect x="193.234" y="257.626" fill="#F8F8FF" width="4.583" height="4.583"/>
							<rect x="200.078" y="257.626" fill="#F8F8FF" width="4.583" height="4.583"/>
							<rect x="206.921" y="257.626" fill="#F8F8FF" width="4.583" height="4.583"/>
							<rect x="213.766" y="257.626" fill="#F8F8FF" width="4.583" height="4.583"/>
							<rect x="193.234" y="264.751" fill="#F8F8FF" width="4.583" height="4.583"/>
							<rect x="200.078" y="264.751" fill="#F8F8FF" width="4.583" height="4.583"/>
						</g>
						<rect x="190.104" y="291.733" fill="#8989E8" width="31.375" height="2.037"/>
					</g>
				</g>
				<path fill="#837FE5" d="M258.814,293.771h-26.526c-3.278,0-5.935-2.657-5.935-5.936l0,0c0-3.277,2.657-5.935,5.935-5.935h26.526
					c3.278,0,5.936,2.657,5.936,5.935l0,0C264.75,291.113,262.093,293.771,258.814,293.771z"/>
				<text transform="matrix(1 0 0 1 236.5039 289.9727)" fill="#FFFFFF" font-family="'Montserrat-SemiBold'" font-size="5.9332">BOOK</text>
			</g>
			<g>
				<g>
					<rect x="186.447" y="305.217" opacity="0.43" fill="#DDD6FF" width="122.535" height="67.877"/>
					<g>
						<polygon fill="#FFC359" points="229.746,310.603 230.794,312.728 233.139,313.068 231.442,314.722 231.843,317.057 
							229.746,315.954 227.649,317.057 228.049,314.722 226.353,313.068 228.697,312.728 						"/>
						<polygon fill="#FFC359" points="239.979,310.603 241.028,312.728 243.373,313.068 241.676,314.722 242.076,317.057 
							239.979,315.954 237.883,317.057 238.283,314.722 236.586,313.068 238.931,312.728 						"/>
						<polygon fill="#FFC359" points="250.213,310.603 251.262,312.728 253.606,313.068 251.909,314.722 252.311,317.057 
							250.213,315.954 248.116,317.057 248.517,314.722 246.82,313.068 249.165,312.728 						"/>
						<polygon fill="#FFC359" points="260.446,310.603 261.495,312.728 263.84,313.068 262.144,314.722 262.544,317.057 
							260.446,315.954 258.35,317.057 258.75,314.722 257.054,313.068 259.398,312.728 						"/>
						<polygon opacity="0.3" fill="#FFC359" points="270.681,310.603 271.729,312.728 274.073,313.068 272.377,314.722 
							272.777,317.057 270.681,315.954 268.584,317.057 268.984,314.722 267.287,313.068 269.632,312.728 						"/>
						<g opacity="0.15">
							
								<line fill="none" stroke="#0964AF" stroke-width="3.0528" stroke-linecap="round" stroke-linejoin="round" stroke-miterlimit="10" x1="304.465" y1="348.815" x2="292.9" y2="348.815"/>
							
								<line fill="none" stroke="#0964AF" stroke-width="3.0528" stroke-linecap="round" stroke-linejoin="round" stroke-miterlimit="10" x1="244.038" y1="340.101" x2="227.482" y2="340.101"/>
							
								<line fill="none" stroke="#0964AF" stroke-width="3.0528" stroke-linecap="round" stroke-linejoin="round" stroke-miterlimit="10" x1="304.465" y1="340.101" x2="251.212" y2="340.101"/>
							
								<line fill="none" stroke="#0964AF" stroke-width="3.0528" stroke-linecap="round" stroke-linejoin="round" stroke-miterlimit="10" x1="304.465" y1="331.387" x2="227.482" y2="331.387"/>
							
								<line fill="none" stroke="#0964AF" stroke-width="3.0528" stroke-linecap="round" stroke-linejoin="round" stroke-miterlimit="10" x1="255.196" y1="322.672" x2="227.482" y2="322.672"/>
							
								<line fill="none" stroke="#0964AF" stroke-width="3.0528" stroke-linecap="round" stroke-linejoin="round" stroke-miterlimit="10" x1="304.465" y1="322.672" x2="262.095" y2="322.672"/>
							
								<line fill="none" stroke="#0964AF" stroke-width="3.0528" stroke-linecap="round" stroke-linejoin="round" stroke-miterlimit="10" x1="285.755" y1="348.815" x2="227.482" y2="348.815"/>
						</g>
					</g>
				</g>
				<g>
					<rect x="191.205" y="315.217" fill="#9999EF" width="29.385" height="53.287"/>
					<g>
						<rect x="201.229" y="355.727" opacity="0.5" fill="#FFFFFF" width="9.125" height="12.777"/>
						<rect x="195.292" y="310.895" fill="#9999EF" width="21" height="3.666"/>
						<g opacity="0.3">
							<rect x="206.921" y="339.484" fill="#F8F8FF" width="4.583" height="4.583"/>
							<rect x="213.766" y="339.484" fill="#F8F8FF" width="4.583" height="4.583"/>
							<rect x="193.234" y="346.609" fill="#F8F8FF" width="4.583" height="4.583"/>
							<rect x="200.078" y="346.609" fill="#F8F8FF" width="4.583" height="4.583"/>
							<rect x="206.921" y="346.609" fill="#F8F8FF" width="4.583" height="4.583"/>
							<rect x="213.766" y="346.609" fill="#F8F8FF" width="4.583" height="4.583"/>
							<rect x="193.234" y="318.109" fill="#F8F8FF" width="4.583" height="4.583"/>
							<rect x="200.078" y="318.109" fill="#F8F8FF" width="4.583" height="4.583"/>
							<rect x="206.921" y="318.109" fill="#F8F8FF" width="4.583" height="4.583"/>
							<rect x="213.766" y="318.109" fill="#F8F8FF" width="4.583" height="4.583"/>
							<rect x="193.234" y="325.234" fill="#F8F8FF" width="4.583" height="4.583"/>
							<rect x="200.078" y="325.234" fill="#F8F8FF" width="4.583" height="4.583"/>
							<rect x="206.921" y="325.234" fill="#F8F8FF" width="4.583" height="4.583"/>
							<rect x="213.766" y="325.234" fill="#F8F8FF" width="4.583" height="4.583"/>
							<rect x="193.234" y="332.359" fill="#F8F8FF" width="4.583" height="4.583"/>
							<rect x="200.078" y="332.359" fill="#F8F8FF" width="4.583" height="4.583"/>
							<rect x="206.921" y="332.359" fill="#F8F8FF" width="4.583" height="4.583"/>
							<rect x="213.766" y="332.359" fill="#F8F8FF" width="4.583" height="4.583"/>
							<rect x="193.234" y="339.484" fill="#F8F8FF" width="4.583" height="4.583"/>
							<rect x="200.078" y="339.484" fill="#F8F8FF" width="4.583" height="4.583"/>
						</g>
						<rect x="190.104" y="366.467" fill="#8989E8" width="31.375" height="2.037"/>
					</g>
				</g>
				<path fill="#837FE5" d="M258.814,368.504h-26.526c-3.278,0-5.935-2.657-5.935-5.936l0,0c0-3.277,2.657-5.935,5.935-5.935h26.526
					c3.278,0,5.936,2.657,5.936,5.935l0,0C264.75,365.847,262.093,368.504,258.814,368.504z"/>
				<text transform="matrix(1 0 0 1 236.5039 364.707)" fill="#FFFFFF" font-family="'Montserrat-SemiBold'" font-size="5.9332">BOOK</text>
			</g>
			<g>
				<polygon opacity="0.3" fill="#FFFFFF" points="268.434,148.514 182.739,279.727 182.739,206.639 220.7,148.514 				"/>
				<polygon opacity="0.3" fill="#FFFFFF" points="304.519,148.514 182.739,334.98 182.739,301.113 282.401,148.514 				"/>
				<polygon opacity="0.3" fill="#FFFFFF" points="312.238,224.813 312.238,258.681 233.685,378.962 211.568,378.962 				"/>
			</g>
		</g>
	</g>
	<path fill="#BFB8F4" d="M454.771,402.777H68.714c-0.241,0-0.436-0.194-0.436-0.436l0,0c0-0.24,0.195-0.436,0.436-0.436h386.057
		c0.24,0,0.436,0.195,0.436,0.436l0,0C455.207,402.583,455.012,402.777,454.771,402.777z"/>
	<g>
		<ellipse opacity="0.43" fill="#DDD6FF" cx="352.171" cy="424.927" rx="45.883" ry="5.738"/>
		<g>
			<g>
				<g>
					<g>
						<g>
							<path fill="#FFC043" d="M394.083,291.313c0,0,2.586-0.417,3.018,1.024c0.433,1.443,0.189,12.003,0.063,13.229
								s-2.44,2.863-5.445,3.685C392.256,302.288,394.083,291.313,394.083,291.313z"/>
						</g>
					</g>
					<g>
						<g>
							<path fill="#E0902F" d="M389.251,282.016c0,0,4.042,0.174,4.977,2.41c0.936,2.236,0.781,21.122,0.053,23.171
								c-0.728,2.049-4.322,2.012-11.206,3.859c4.03-6.736,4.406-9.605,4.359-10.729
								C387.386,299.604,389.251,282.016,389.251,282.016z"/>
						</g>
					</g>
					<g>
						<g>
							<path fill="#FFC043" d="M384.493,253.453c0,0,3.484,3.712,5.223,9.901c1.739,6.189,2.337,13.124,2.212,13.533
								c-0.125,0.408-3.513,0.955-3.796,0.926C387.848,277.785,384.493,253.453,384.493,253.453z"/>
						</g>
					</g>
					<path fill="#FFDA40" d="M339.643,247.293c1.458-3.141,9.88-5.245,16.879-4.787c5.642,0.369,11.231,1.735,16.595,3.477
						c2.561,0.831,5.21,1.465,7.616,2.706c2.891,1.49,4.236,3.757,5.146,6.84c2.662,9.014,3.465,18.263,3.826,27.608
						c0.29,7.51,0.538,15.091-0.101,22.592c-0.141,1.656-0.104,6.927-2.113,7.747c-4.049,1.652-10.597,2.435-13.551,2.131
						c-1.741-0.179-1.721-8.843-1.788-9.942c-0.4-6.545-0.491-13.111-0.538-19.667c-0.058-8.128,0.051-16.22-0.523-24.336
						c-0.231-3.267-2.339-2.665-4.893-3.011c-2.144-0.29-4.28-0.626-6.407-1.017C356.332,256.999,336.584,253.886,339.643,247.293z"
						/>
					<g>
						<g>
							<path fill="#FFC043" d="M375.024,285.21l0.581,25.261c0.043,1.877,1.455,3.335,3.114,3.217
								c1.879-0.133,4.062-0.441,6.118-0.907c1.286-0.292,2.301-1.404,2.556-2.857c0.891-5.061,1.686-12.721,1.017-25.17
								c-0.09-1.663-1.638-2.651-2.971-1.937C380.642,285.387,375.024,285.21,375.024,285.21z"/>
						</g>
					</g>
					<g>
						<g>
							<path fill="#E0902F" d="M366.689,245.903c0,0,0.084,1.519-0.846,2.396c-0.458,0.501-1.519-0.115-1.519-0.115
								s-6.849-2.548-8.281-2.135c-1.021-0.641-1.339-2.383-0.958-2.901C355.468,242.631,362.343,241.717,366.689,245.903z"/>
						</g>
					</g>
					<g>
						<g>
							<path fill="#965C17" d="M364.594,243.794c5.562,3.071,12.834,5.458,14.757,12.174c1.494,5.221,0.567,10.729,1.595,15.991
								c0.062,0.317,0.509,0.214,0.532-0.072c0.228-2.83-0.203-5.862-0.372-8.699c-0.187-3.119-0.393-6.361-1.653-9.265
								c-2.361-5.437-9.484-8.514-14.752-10.381C364.552,243.489,364.458,243.719,364.594,243.794L364.594,243.794z"/>
						</g>
					</g>
					<g>
						<g>
							<path fill="#965C17" d="M381.032,270.913c-0.121,0.526-0.424,4.8,1.044,3.859c0.585-0.375,0.503-1.43,0.436-2.009
								c-0.082-0.704-0.354-1.776-1.05-2.109c-0.18-0.087-0.449,0.06-0.37,0.284c0.163,0.459,0.498,0.803,0.643,1.285
								c0.136,0.448,0.276,1.104,0.127,1.562c-0.191,0.588-0.259-0.017-0.298-0.336c-0.031-0.248-0.047-0.498-0.057-0.748
								c-0.022-0.575,0.021-1.154-0.023-1.728C381.464,270.73,381.094,270.645,381.032,270.913L381.032,270.913z"/>
						</g>
					</g>
				</g>
				<g>
					<path fill="#38326D" d="M327.856,262.965c-1.819,0.637-3.346,2.064-4.1,3.838c-0.114,0.268-0.213,0.551-0.21,0.842
						c0.002,0.259,0.084,0.51,0.165,0.756c0.174,0.53,0.349,1.06,0.523,1.589c0.183,0.556,0.387,1.14,0.772,1.591
						c0.389,0.457,0.966,0.669,1.419,0.178c0.478-0.519,0.896-1.174,1.207-1.803c0.681-1.373,0.995-2.928,0.896-4.458
						c-0.043-0.672-0.167-1.34-0.374-1.981"/>
				</g>
				<g>
					<path fill="#F6A388" d="M313.371,261.5c7.553-5.143,19.877-9.585,24.226-11.603l4.719,12.644
						c-7.098,3.299-23.414,10.142-29.826,10.104l0,0C317.779,271.24,313.371,261.5,313.371,261.5z"/>
				</g>
				<path fill="#F6A388" d="M302.167,258.734c-4.495-10.746-7.555-22.916-7.555-22.916l2.794-1.807c0,0,8.02,11.308,14.031,22.815
					c0,0,6.805,10.798,3.286,14.99l0,0c-0.857,0.596-1.609,0.902-2.206,0.812C308.262,271.983,304.086,263.322,302.167,258.734z"/>
				<g>
					<path fill="#F6A388" d="M349.034,238.586c0.359,2.072,0.045,4.372-0.512,6.381c-0.658,2.375-1.508,2.161-3.938,2.327
						c-1.507,0.103-4.287,0-4.287,0s-1.136,2.424-1.214,2.684c-0.058,0.189-0.04,0.392-0.015,0.588
						c0.322,2.452,1.849,4.587,3.598,6.335c0.966,0.966,2.033,1.86,3.281,2.415c2.042,0.907,4.387,0.826,6.59,0.453
						c1.812-0.306,3.592-0.798,5.304-1.464c0.776-0.303,1.552-0.649,2.18-1.196c1.409-1.228,1.83-3.21,2.171-5.047
						c0.128-0.69,0.243-1.455-0.128-2.05c-0.229-0.367-1.015-0.654-1.407-0.835c-1.386-0.64-2.588-0.609-3.993-1.205
						c-4.054-1.718-3.636-6.438-2.407-9.91"/>
				</g>
				<g>
					<path fill="#55499B" d="M344.126,247.317c-2.797-0.114-5.36,0.444-7.643,1.45c-6.505,2.868-12.691,7.043-12.691,7.043
						s3.807,0.066,3.619,13.191c-0.016,1.102-0.401,2.103-1.397,3.038c4.213-1.666,11.632-5.996,11.632-5.996"/>
				</g>
				<g>
					<path fill="#F6A388" d="M361.355,232.229l-6.768-13.271c-8.128-0.447-13.084,10.079-15.08,13.931
						c-0.745,1.438-1.371,3.191-0.618,4.626c0.604,1.151,1.911,1.719,3.132,2.165C345.517,240.955,359.076,244.309,361.355,232.229z
						"/>
				</g>
				<g>
					<path fill="#F6A388" d="M344.585,226.264c-1.506,0.908-5.121,1.926-5.438,2.727c-0.317,0.802,2.8,1.995,4.38,2.659"/>
				</g>
				<g>
					<g>
						<path fill="#55499B" d="M361.355,237.786c3.097,4.138,9.629,5.998,13.604,4.462c1.981-0.766,1.837-3.197,1.323-4.12
							c-2.048-3.675-4.452-5.927-7.915-8.677"/>
					</g>
					<g>
						<path fill="#452E17" d="M360.777,221.328l-7.198-6.215c-1.566-0.976-3.292-1.805-5.135-1.909
							c-1.843-0.104-3.823,0.647-4.771,2.231c-0.41,0.685-0.607,1.533-0.373,2.296c0.161,0.521,0.5,0.943,0.92,1.292
							c-0.327,0.223-0.638,0.468-0.885,0.777c-0.397,0.496-0.642,1.142-0.549,1.771c0.17,1.162,1.364,1.876,2.487,2.217
							c1.592,0.482,3.804,0.571,5.555,0.025c-0.591,1.543-0.575,4.011,4.682,4.823c-0.757,0.332-1.232,1.207-1.101,2.022
							c0.133,0.815,0.861,1.495,1.684,1.57c-0.392,1.415-0.783,2.83-1.175,4.245c-0.203,0.732-0.406,1.508-0.203,2.239
							c0.275,0.986,1.231,1.642,2.208,1.948c1.453,0.457,5.221-1.572,5.77-4.11L360.777,221.328z"/>
					</g>
					<g>
						<path fill="#766CD3" d="M350.938,212.63c3.745-1.037,14.034-3.254,17.934,8.455c1.396,4.19,1.409,11.94-4.872,15.135
							l-5.252-5.418l-7.877-16.09"/>
					</g>
					<g>
						<path fill="#55499B" d="M351.4,212.271l-2.684,0.633c2.908,8.974,6.484,18.631,13.098,25.359l2.85-1.747
							C358.807,230.83,354.446,220.304,351.4,212.271z"/>
					</g>
				</g>
				<g>
					<path fill="#F6A388" d="M354.834,232.854c0.419-0.371,1.084-0.392,1.565-0.107c0.48,0.285,0.774,0.833,0.823,1.39
						c0.049,0.558-0.127,1.118-0.418,1.596c-0.568,0.931-1.624,1.575-2.715,1.549c-1.09-0.026-2.154-0.776-2.451-1.826"/>
				</g>
				<g>
					<g>
						<g>
							<path fill="#FFC4C0" d="M339.367,394.49c0,0,0.604,12.072,1.487,18.994c0,0-4.729,4.511-7.057,5.758
								c0,0,14.027,1.018,13.011-2.83c-1.016-3.848-1.022-13.853-0.034-22.117"/>
						</g>
						<path fill="#965C17" d="M329.715,422.328c-2.101,0.612,0.421,3.466,1.525,3.633c1.104,0.167,2.211-0.159,3.284-0.452
							c4.102-1.123,8.329-1.816,12.587-2.064c0.263-0.016,0.536-0.048,0.746-0.2c0.74-0.539,0.82-1.376,0.626-1.786
							c-0.195-0.411-0.472-0.832-0.394-1.276"/>
						<g>
							<path fill="#C98224" d="M348.341,419.841c-0.348-1.493-0.073-6.609-2.054-6.004c-1.25,1.794-3.506,2.192-5.223,0.836
								c-0.248-0.195-1.048-2.252-2.198-0.817c-1.215,1.516-2.764,2.549-5.016,4.315c-1.029,0.808-5.22,2.754-5.18,4.062
								c0.049,1.615,0.695,2.561,2.307,2.682c1.612,0.121,3.943-0.671,5.472-1.195c3.211-1.103,6.827-1.397,10.214-1.631
								c0.569-0.04,1.212-0.103,1.563-0.553C348.587,421.073,348.474,420.412,348.341,419.841z"/>
						</g>
						<g>
							<path fill="#965C17" d="M339.808,413.475c1.027,2.409,6.725,3.381,7.192,0.131c0.035-0.246-0.233-0.453-0.438-0.256
								c-1.099,1.062-2.347,1.643-3.896,1.236c-1.004-0.263-1.683-1.054-2.62-1.422
								C339.852,413.088,339.744,413.327,339.808,413.475L339.808,413.475z"/>
						</g>
						<g>
							<path fill="#965C17" d="M334.437,417.082c0.458,0.404,0.909,0.824,1.302,1.295c0.37,0.444,0.68,0.96,1.17,1.288
								c0.19,0.128,0.444-0.042,0.445-0.256c0.003-1.328-1.524-2.404-2.638-2.808C334.447,416.504,334.226,416.896,334.437,417.082
								L334.437,417.082z"/>
						</g>
						<g>
							<path fill="#965C17" d="M335.913,416.147c0.513,0.155,1.012,0.604,1.376,0.979c0.353,0.364,0.687,0.819,1.082,1.129
								c0.181,0.142,0.478,0.066,0.477-0.197c-0.003-0.637-0.462-1.275-0.941-1.655c-0.572-0.453-1.163-0.604-1.84-0.81
								C335.711,415.485,335.56,416.04,335.913,416.147L335.913,416.147z"/>
						</g>
						<g>
							<path fill="#965C17" d="M337.024,415.147c0.604,0.312,1.136,0.707,1.59,1.214c0.422,0.471,0.771,0.982,1.293,1.353
								c0.23,0.164,0.548-0.057,0.547-0.313c-0.003-1.569-1.779-2.627-3.071-3.103C336.889,414.115,336.558,414.908,337.024,415.147
								L337.024,415.147z"/>
						</g>
					</g>
					<g>
						<path fill="#262376" d="M355.216,294.292c5.62,8.925-1.044,50.222-6.892,69.048c3.504,12.244-2.049,40.966-2.049,40.966
							s-3.017,0.784-6.561,0.175c-0.207-0.785-5.898-41.413-5.26-49.167c0.83-10.094-5.61-42.781,2.643-53.155"/>
					</g>
				</g>
				<g>
					<g>
						<g>
							<path fill="#FFC4C0" d="M363.586,396.757c0,0,1.896,11.938,3.516,18.725c0,0-4.219,4.992-6.398,6.481
								c0,0,14.056-0.492,12.633-4.208c-1.423-3.717-2.502-13.663-2.406-21.986"/>
						</g>
						<path fill="#965C17" d="M355.709,423.797c-2.122,0.531,0.287,3.479,1.383,3.689c1.097,0.21,2.217-0.072,3.3-0.324
							c4.143-0.962,8.394-1.49,12.658-1.572c0.264-0.006,0.538-0.027,0.753-0.172c0.761-0.51,0.873-1.343,0.695-1.76
							c-0.179-0.418-0.438-0.85-0.344-1.291"/>
						<g>
							<path fill="#C98224" d="M374.419,422.036c-0.289-1.505,0.184-6.607-1.819-6.079c-1.318,1.744-3.588,2.054-5.251,0.633
								c-0.24-0.205-0.96-2.292-2.165-0.902c-1.272,1.467-2.86,2.438-5.18,4.117c-1.06,0.767-5.323,2.548-5.334,3.856
								c-0.014,1.616,0.595,2.586,2.201,2.77s3.966-0.518,5.514-0.982c3.252-0.976,6.876-1.131,10.27-1.232
								c0.57-0.017,1.216-0.055,1.583-0.49C374.616,423.277,374.529,422.612,374.419,422.036z"/>
						</g>
						<g>
							<path fill="#965C17" d="M366.129,415.322c0.948,2.488,6.609,3.659,7.201,0.39c0.039-0.212-0.244-0.402-0.415-0.249
								c-1.026,0.92-2.044,1.453-3.476,1.214c-1.241-0.207-1.943-1.152-3.028-1.627C366.24,414.976,366.064,415.151,366.129,415.322
								L366.129,415.322z"/>
						</g>
						<g>
							<path fill="#965C17" d="M360.663,418.769c0.44,0.42,0.872,0.856,1.239,1.344c0.332,0.442,0.62,0.951,1.072,1.285
								c0.162,0.119,0.472,0.051,0.479-0.188c0.036-1.336-1.368-2.471-2.494-2.93C360.646,418.153,360.432,418.547,360.663,418.769
								L360.663,418.769z"/>
						</g>
						<g>
							<path fill="#965C17" d="M362.115,417.852c1.083,0.377,1.629,1.527,2.434,2.241c0.202,0.18,0.451-0.031,0.451-0.252
								c0.001-0.619-0.412-1.241-0.858-1.636c-0.542-0.479-1.135-0.65-1.794-0.88C362,417.204,361.766,417.73,362.115,417.852
								L362.115,417.852z"/>
						</g>
						<g>
							<path fill="#965C17" d="M363.355,416.94c0.577,0.326,1.095,0.758,1.509,1.277c0.375,0.471,0.704,0.963,1.178,1.343
								c0.272,0.219,0.586-0.028,0.589-0.328c0.012-1.519-1.651-2.625-2.9-3.144C363.167,415.854,362.844,416.65,363.355,416.94
								L363.355,416.94z"/>
						</g>
					</g>
					<g>
						<path fill="#262376" d="M368.604,295.438c6.544,8.271,6.236,32.717,0.549,69.389c4.797,11.798,1.964,38.296,1.964,38.296
							s-3.005,1.617-6.594,1.391c-0.29-0.759-9.823-38.403-10.02-46.181c-0.257-10.125-10.164-41.933-3.07-53.132"/>
					</g>
					<path fill="#191960" d="M334.174,312.628c1.374,1.404,2.77,2.825,4.461,3.823c2.17,1.28,4.709,1.793,7.218,2.034
						c2.508,0.242,5.039,0.235,7.536,0.577c1.909,0.261,3.794,0.725,5.718,0.834c1.873,0.105,3.749-0.127,5.625-0.174
						c1.624-0.041,3.335,0.039,4.77-0.725c0.524-0.279,1.005-0.682,1.264-1.217c0.537-1.107,0.006-2.434-0.681-3.454
						c-1.38-2.055-3.383-3.64-5.576-4.787c-2.193-1.148-4.579-1.882-6.983-2.471"/>
				</g>
				<g>
					<path fill="#766CD3" d="M358.832,248.572c0.067,0.02-0.435,1.194-0.486,1.296c-0.222,0.432-0.492,0.839-0.798,1.216
						c-1.297,1.604-3.236,2.763-5.263,3.146c-2.161,0.407-4.391-0.158-6.102-1.539c-0.79-0.638-1.454-1.45-1.834-2.398
						c-0.104-0.258-0.662-2.979-0.224-2.976l-3.828-0.023l-7.396,18.458c0.548,26.257,0,46.229,0,46.229
						c4.546,3.614,7.762,3.847,21.19,5.088c13.429,1.24,16.546,1.997,20.868-2.209c-1.347-5.44,0.666-29.723-10.208-54.829
						c-1.233-2.847,1.161-6.409-0.427-9.252C363.781,249.807,361.06,249.221,358.832,248.572z"/>
				</g>
				<g>
					<defs>
						<path id="SVGID_1_" d="M358.832,248.572c0.329,0.381-2.997,4.069-3.359,4.317c-2.878,1.966-6.526,2.031-9.289-0.198
							c-0.79-0.638-1.454-1.45-1.834-2.398c-0.104-0.258-0.662-2.979-0.224-2.976l-3.828-0.023l-7.396,18.458
							c0.548,26.257,0,46.229,0,46.229c4.546,3.614,7.762,3.847,21.19,5.088c13.429,1.24,16.546,1.997,20.868-2.209
							C373.407,308.592,376.317,277.307,358.832,248.572z"/>
					</defs>
					<clipPath id="SVGID_2_">
						<use xlink:href="#SVGID_1_"  overflow="visible"/>
					</clipPath>
					<g clip-path="url(#SVGID_2_)">
						<g>
							<g>
								<path fill="#8883E5" d="M373.631,286.748c-1.109-8.26-6.67-15.12-12.119-21.388c7.509,3.784,13.003,11.403,14.262,19.779"/>
							</g>
							<g>
								<path fill="#8883E5" d="M363.144,266.976c-0.313-0.22-0.119-0.509-0.257-0.867c-0.772-2.012-1.895-4.354-1.103-6.354
									c0.274-0.692,0.721-1.3,1.196-1.869c0.402-0.48,0.838-0.948,1.382-1.256c1.114-0.627,2.53-0.477,3.687,0.072
									c1.156,0.55,2.107,1.449,3.037,2.335c-2.021-0.523-4.15-0.619-6.208-0.28c1.2,0.205,2.342,0.747,3.266,1.549
									c-1.53,0.415-3.3-0.735-4.677,0.058c0.663,0.3,1.326,0.601,1.988,0.9c-0.917-0.011-1.599,0.837-2.045,1.646
									c-0.57,1.034-0.031,2.031-0.312,3.181"/>
							</g>
							<g>
								<path fill="#8883E5" d="M362.483,266.101c0.612-2.336,2.88-4.03,5.264-4.246s4.779,0.905,6.417,2.672
									c1.638,1.766,2.569,4.114,2.945,6.502c-0.581-0.184-0.972-0.717-1.344-1.203c-1.666-2.181-3.892-4.095-6.568-4.614
									c0.657,1.178,1.137,2.455,1.417,3.775c-0.861-1.464-2.055-2.728-3.462-3.666c0.456,0.968,0.912,1.935,1.368,2.902
									c-1.554-1.667-3.308-1.56-5.571-1.527"/>
							</g>
						</g>
					</g>
				</g>
				<g opacity="0.25">
					<path fill="#7D67CE" d="M369.725,284.022c1.639,2.271,1.671,4.347,3.191,6.454c-0.388-2.26-0.435-4.348-1.019-6.762
						c-0.006-0.009-0.772-1.179-1.723-2.374c-0.721,0.386-1.631,0.25-2.71,0.273c-1.709-5.491-2.382-6.219-5.586-10.995
						c-0.271-0.405-0.549-0.812-0.813-1.224c2.687,5.736,4.042,10.63,5.371,15.563C367.876,284.649,368.382,284.649,369.725,284.022
						z"/>
				</g>
				<g>
					<path fill="#F6A388" d="M371.628,317.213c-1.684,1.587-3.366,3.174-5.049,4.761c-0.103,0.097-0.212,0.209-0.218,0.35
						c-0.004,0.108,0.055,0.207,0.111,0.299c1.162,1.865,2.396,3.687,3.696,5.458c0.076,0.103,0.168,0.215,0.295,0.226
						c0.145,0.012,0.261-0.11,0.352-0.223c0.99-1.229,1.785-2.602,2.576-3.968c0.171-0.295,0.343-0.593,0.454-0.915
						c0.162-0.472,0.188-0.978,0.202-1.476c0.043-1.595-0.026-3.192-0.207-4.776"/>
				</g>
				<g>
					<g>
						<path fill="#131354" d="M364.372,319.289c1.799,3.933,4.161,7.853,6.702,11.352c0.237,0.327,0.764,0.042,0.554-0.324
							c-2.173-3.778-4.513-7.597-6.993-11.181C364.522,318.973,364.291,319.111,364.372,319.289L364.372,319.289z"/>
					</g>
				</g>
				<g>
					<path fill="#191960" d="M352.616,346.068c-0.009-0.296-0.014-0.529-0.013-0.654c0.006-0.526-0.088-1.049-0.18-1.566
						c-0.881-4.93-2.643-14.787-2.643-14.787s-0.061,13.222,0.41,17.321c0.26,2.26,0.348,5.703,0.346,8.921
						C351.25,352.424,351.951,349.313,352.616,346.068z"/>
				</g>
				<g>
					<path fill="#6479AD" d="M364.345,405.421c2.668-0.021,5.06-0.024,7.301-1.472c0.14-0.721,0.121-1.945-0.031-2.796
						c-1.016,0.33-5.264,1.865-7.81,1.733C363.887,403.841,364.093,404.716,364.345,405.421z"/>
				</g>
				<g>
					<path fill="#6479AD" d="M339.368,405.894c2.483,0.381,5.121,0.558,7.435-0.534c-0.005-0.862-0.011-1.725-0.017-2.586
						c-0.996,0.173-1.993,0.346-2.989,0.52c-1.442,0.25-3.129,0.456-4.538,0.093C339.105,404.118,339.247,405.16,339.368,405.894z"
						/>
				</g>
				<g>
					<g>
						<path fill="#664624" d="M366.161,277.618c3.497,5.193,7.168,10.27,11.005,15.218c0.396,0.511,1.226,1.02,1.57,0.473
							c0.102-0.16,0.104-0.362,0.098-0.552c-0.057-1.421-0.537-2.788-1.029-4.123c-2.33-6.321-5.04-12.502-8.109-18.499"/>
					</g>
					<g>
						<path fill="#F6A388" d="M370.836,319.252c1.493-10.625,4.918-26.16,4.918-26.16s-6.371-14.536-10.601-20.295l8.946-11.191
							c4.64,7.901,12.711,26.915,12.711,30.13c0.001,3.215-7.124,20.328-13.018,29.226"/>
					</g>
					<g>
						<path fill="#E0856C" d="M368.543,278.305c0.913,1.66,1.828,3.432,2.685,5.15c0.982-0.286,1.847-0.945,2.662-1.589
							c1.454-1.147,2.927-2.314,4.016-3.813s1.763-3.396,1.405-5.213c-3.841,0.829-7.516,2.419-10.75,4.648L368.543,278.305z"/>
					</g>
					<g>
						<path fill="#55499B" d="M364.348,250.345c0,0,3.374,0.597,6.287,3.667c2.617,2.759,7.101,14.124,9.521,19.012
							c-1.167,2.764-1.719,3.188-3.462,4.816c-2.33,2.179-5.896,3.779-9.225,3.9c-1.471-4.463-6.404-12.346-6.404-12.346"/>
					</g>
					<g>
						<path fill="#E0902F" d="M369.446,250.212c-0.574-0.646-1.694-1.718-2.656-1.586c-1.135,0.157-2.316,0.751-3.222,1.434
							c-3.984,3.006-4.68,8.536-4.177,13.169c0.261,2.402,0.851,4.777,1.767,7.015c0.389,0.949,0.77,1.864,1.31,2.739
							c0.697,1.131,2.234,2.39,2.686,3.573c-2.006-5.263-2.287-14.868-0.185-20.939
							C365.835,253.115,367.866,251.486,369.446,250.212z"/>
					</g>
				</g>
				<g>
					<path fill="#E0902F" d="M345.803,245.592c-1.736,1.501-3.71,2.767-5.148,4.553c-1.487,1.846-2.743,3.871-3.779,6.003
						c-2.048,4.213-3.244,8.816-3.791,13.459c-0.532-5.072-1.049-10.312,0.468-15.181c0.771-2.475,2.171-4.796,4.07-6.566
						c1.409-1.313,4.921-3.836,6.963-2.776"/>
				</g>
				<g>
					<g>
						<path fill="#452E17" d="M348.385,225.212c0.79,0.409,1.415,1.011,1.844,1.793c0.376,0.685,0.35,1.434,0.652,2.117
							c0.055,0.124,0.219,0.065,0.258-0.034c0.29-0.743-0.19-1.772-0.584-2.404c-0.481-0.772-1.188-1.365-2.008-1.749
							C348.362,224.849,348.199,225.116,348.385,225.212L348.385,225.212z"/>
					</g>
				</g>
				<g>
					<g>
						<path fill="#452E17" d="M347.032,228.195c-0.656,0.46-1.113,1.073-0.7,1.843c0.133,0.247,0.512,0.33,0.758,0.239
							c0.452-0.167,0.506-0.521,0.849-0.796C348.722,228.853,347.869,227.608,347.032,228.195L347.032,228.195z"/>
					</g>
					<g>
						<path fill="#FFFFFF" d="M346.979,228.605c-0.172,0.121-0.291,0.281-0.184,0.483c0.035,0.065,0.135,0.087,0.199,0.063
							c0.118-0.044,0.133-0.137,0.223-0.209C347.422,228.778,347.198,228.452,346.979,228.605L346.979,228.605z"/>
					</g>
				</g>
				<g>
					<g>
						<path fill="#E0856C" d="M356.146,234.142c-0.043-0.676-0.664-0.738-1.186-0.524c-0.253,0.104-0.427,0.209-0.507,0.465
							c-0.114,0.363,0.088,0.627-0.186,0.989c-0.177,0.233-0.922,0.697-1.129,0.182c-0.061-0.152-0.313-0.244-0.399-0.052
							c-0.352,0.784,0.697,1.002,1.24,0.733c0.354-0.174,0.724-0.442,0.883-0.814c0.063-0.149,0.095-0.317,0.104-0.479
							c0.008-0.159-0.043-0.305,0.035-0.444c0.124-0.221,0.76-0.423,0.856-0.016C355.895,234.339,356.155,234.309,356.146,234.142
							L356.146,234.142z"/>
					</g>
				</g>
				<g>
					<path fill="#E0856C" d="M354.729,237.22c-0.809,0.06-2.207,0.065-2.539-0.802c-0.006,0.228,0,0.671,0.316,1.083
						c0.14,0.181,0.518,0.368,0.72,0.473c0.424,0.218,0.995,0.31,1.411,0.078"/>
				</g>
				<g>
					<path fill="#E0856C" d="M349.108,241.054c0.854,0.048,3.072-0.299,3.175-0.228c-0.246,0.372-0.671,0.58-1.082,0.753
						c-0.638,0.267-1.461,0.491-2.128,0.668"/>
				</g>
				<g>
					<g>
						<path fill="#934747" d="M341.219,231.883c-0.821,0.853-1.132,2.627-0.806,3.465s1.258,1.364,2.362,1.371
							c1.251,0.008,2.58-0.585,3.832-1.161C344.635,234.515,342.829,233.283,341.219,231.883z"/>
					</g>
					<g>
						<defs>
							<path id="SVGID_3_" d="M341.219,231.883c-0.821,0.853-1.132,2.627-0.806,3.465s1.258,1.364,2.362,1.371
								c1.251,0.008,2.58-0.585,3.832-1.161C344.635,234.515,342.829,233.283,341.219,231.883z"/>
						</defs>
						<clipPath id="SVGID_4_">
							<use xlink:href="#SVGID_3_"  overflow="visible"/>
						</clipPath>
						<g clip-path="url(#SVGID_4_)">
							<path fill="#EA5C5C" d="M345.708,237.472c0.075-0.698-0.269-1.299-0.792-1.707s-1.215-0.645-1.925-0.831
								c-0.418-0.11-0.856-0.204-1.336-0.158c-0.479,0.046-1.014,0.257-1.347,0.626c-0.214,0.237-0.327,0.516-0.397,0.784
								c-0.313,1.187,0.147,2.322,1.161,2.867c1.015,0.545,2.543,0.478,3.859-0.169"/>
						</g>
					</g>
				</g>
				<path fill="#F6A388" d="M298.057,231.67"/>
				<path fill="#F6A388" d="M290.063,225.302c-0.313-0.666-0.921-1.254-1.665-2.273c-0.745-1.019-0.49-1.626-0.06-1.783
					c0.432-0.157,1.996,1.533,3.054,2.395c0.953,0.776,2.538,3.224,2.846,3.707c0.696-0.498,1.736-0.706,2.107-0.635
					c0.823,0.157,2.371,2.919,2.586,4.487c0.167,1.211-0.498,4.447-0.498,4.447l0.839,2.841c0,0-2.571,4.003-3.432,1.3
					s-1.775-3.448-3.086-3.739c-1.058-0.235-4.246-2.929-4.364-4.404c-0.037-0.47,0.392-0.966,0.606-1.218
					c0-0.007-0.003-0.017-0.003-0.024c0-1.013,0.92-1.221,1.158-1.258c0.108-0.959,1.093-1.094,1.177-1.103
					C291.411,227.478,290.359,225.932,290.063,225.302z"/>
				<g>
					<g>
						<path fill="#D1816B" d="M294.281,227.273c-0.473,0.287-1.459,0.846-1.588,1.439c-0.086,0.395,0.228,0.77,0.59,0.833
							c0.401,0.07,1.71-0.381,1.872-0.21c0.063,0.066,0.064,0.607,0.094,0.711c0.114,0.401,0.314,0.7,0.632,0.967
							c0.046,0.039,0.105-0.02,0.065-0.066c-0.398-0.466-0.671-1.046-0.633-1.671c0.002-0.034-0.025-0.066-0.057-0.075
							c-0.483-0.139-1.159,0.168-1.641,0.195c-0.334,0.019-0.729,0.064-0.783-0.477c-0.027-0.274,0.115-0.405,0.31-0.617
							c0.342-0.373,0.765-0.674,1.192-0.938C294.394,227.33,294.341,227.238,294.281,227.273L294.281,227.273z"/>
					</g>
				</g>
				<g>
					<g>
						<path fill="#D1816B" d="M290.181,229.429c0.257,0.684,0.859,1.623,1.563,1.916c0.651,0.272,1.547,0.341,2.25,0.397
							c0.492,0.04,1.117,0.037,1.229-0.564c0.133-0.719-0.598-1.3-1.216-1.395c-0.059-0.009-0.084,0.072-0.024,0.09
							c0.35,0.11,1.124,0.519,1.07,1.01c-0.047,0.435-0.552,0.656-0.873,0.723c-0.451,0.094-1.082-0.13-1.531-0.212
							c-0.27-0.049-0.614-0.064-0.87-0.173c-0.668-0.284-1.247-1.18-1.494-1.821C290.259,229.337,290.156,229.364,290.181,229.429
							L290.181,229.429z"/>
					</g>
				</g>
				<g>
					<g>
						<path fill="#D1816B" d="M289.003,230.578c0.265,0.718,0.872,1.636,1.607,1.937c0.673,0.276,1.805,0.429,2.494,0.2
							c0.048-0.016,0.043-0.097-0.013-0.092c-0.723,0.058-1.494,0.006-2.196-0.191c-0.837-0.235-1.485-1.087-1.79-1.882
							C289.081,230.486,288.979,230.513,289.003,230.578L289.003,230.578z"/>
					</g>
				</g>
				<g>
					<g>
						<path fill="#D1816B" d="M289.885,233.752c0.554,0.176,1.314,0.33,1.86,0.082c0.044-0.02,0.021-0.087-0.023-0.087
							c-0.625,0.004-1.193,0.075-1.809-0.097C289.847,233.631,289.819,233.731,289.885,233.752L289.885,233.752z"/>
					</g>
				</g>
			</g>
		</g>
	</g>
	<g>
		<g>
			<g>
				<circle fill="#9999EF" cx="198.146" cy="98.74" r="4.972"/>
				
					<polyline fill="none" stroke="#FFFFFF" stroke-width="1.0564" stroke-linecap="round" stroke-linejoin="round" stroke-miterlimit="10" points="
					196.027,98.146 197.144,100.635 200.879,98.325 				"/>
			</g>
			<g>
				<circle fill="#9999EF" cx="120.981" cy="218.323" r="4.972"/>
				
					<polyline fill="none" stroke="#FFFFFF" stroke-width="1.0564" stroke-linecap="round" stroke-linejoin="round" stroke-miterlimit="10" points="
					118.974,219.226 121.426,220.42 122.812,216.251 				"/>
			</g>
			<g>
				<circle fill="#9999EF" cx="164.319" cy="269.396" r="4.972"/>
				
					<polyline fill="none" stroke="#FFFFFF" stroke-width="1.0564" stroke-linecap="round" stroke-linejoin="round" stroke-miterlimit="10" points="
					162.174,268.904 163.409,271.336 167.028,268.848 				"/>
			</g>
			<g>
				<circle fill="#9999EF" cx="348.468" cy="140.929" r="7.604"/>
				
					<polyline fill="none" stroke="#FFFFFF" stroke-width="1.6155" stroke-linecap="round" stroke-linejoin="round" stroke-miterlimit="10" points="
					345.533,142.575 349.429,144.063 350.979,137.526 				"/>
			</g>
			<circle fill="#9999EF" cx="128.051" cy="185.667" r="1.828"/>
			<circle fill="#9999EF" cx="384.852" cy="153.604" r="1.828"/>
			<circle fill="#9999EF" cx="250.308" cy="107.632" r="1.828"/>
			<circle fill="#9999EF" cx="150.667" cy="169.418" r="2.918"/>
			<circle fill="#9999EF" cx="405.484" cy="223.987" r="2.918"/>
			<circle fill="#9999EF" cx="113.32" cy="169.418" r="2.918"/>
			<circle fill="#9999EF" cx="98" cy="299.771" r="2.918"/>
			<circle opacity="0.3" fill="#9999EF" cx="134.973" cy="257.78" r="2.918"/>
			<circle opacity="0.3" fill="#9999EF" cx="378.836" cy="193.576" r="4.488"/>
			<circle opacity="0.3" fill="#9999EF" cx="378.836" cy="112.12" r="4.488"/>
			<circle opacity="0.3" fill="#9999EF" cx="90.506" cy="344.15" r="4.488"/>
			<circle opacity="0.3" fill="#9999EF" cx="299.271" cy="93.767" r="2.918"/>
			<circle opacity="0.2" fill="#9999EF" cx="417.313" cy="290.477" r="2.918"/>
			<g>
				<g>
					<g>
						<path fill="#9999EF" d="M87.587,214.911c-0.322,0-0.583-0.261-0.583-0.583v-4.113c0-0.322,0.261-0.583,0.583-0.583
							s0.583,0.261,0.583,0.583v4.113C88.17,214.65,87.909,214.911,87.587,214.911z"/>
					</g>
					<g>
						<path fill="#9999EF" d="M89.645,212.854H85.53c-0.321,0-0.583-0.262-0.583-0.583c0-0.321,0.262-0.583,0.583-0.583h4.114
							c0.322,0,0.583,0.262,0.583,0.583C90.228,212.593,89.966,212.854,89.645,212.854z"/>
					</g>
				</g>
			</g>
			<g>
				<g>
					<g>
						<path fill="#6786F4" d="M115.959,255.205c-0.321,0-0.583-0.262-0.583-0.583v-4.114c0-0.322,0.262-0.583,0.583-0.583
							c0.322,0,0.583,0.261,0.583,0.583v4.114C116.543,254.943,116.281,255.205,115.959,255.205z"/>
					</g>
					<g>
						<path fill="#6786F4" d="M118.017,253.148h-4.114c-0.322,0-0.583-0.262-0.583-0.584c0-0.321,0.261-0.583,0.583-0.583h4.114
							c0.322,0,0.583,0.262,0.583,0.583C118.6,252.887,118.339,253.148,118.017,253.148z"/>
					</g>
				</g>
			</g>
			<g>
				<g>
					<g>
						<path fill="#9999EF" d="M399.513,274.188c-0.322,0-0.583-0.262-0.583-0.584v-4.113c0-0.321,0.261-0.583,0.583-0.583
							c0.321,0,0.583,0.262,0.583,0.583v4.113C400.096,273.926,399.834,274.188,399.513,274.188z"/>
					</g>
					<g>
						<path fill="#9999EF" d="M401.569,272.13h-4.113c-0.321,0-0.583-0.261-0.583-0.583c0-0.321,0.262-0.583,0.583-0.583h4.113
							c0.322,0,0.584,0.262,0.584,0.583C402.153,271.869,401.892,272.13,401.569,272.13z"/>
					</g>
				</g>
			</g>
			<g>
				<g>
					<g>
						<path fill="#9999EF" d="M345.803,191.67c-0.322,0-0.583-0.261-0.583-0.583v-4.113c0-0.322,0.261-0.583,0.583-0.583
							c0.321,0,0.583,0.261,0.583,0.583v4.113C346.386,191.409,346.124,191.67,345.803,191.67z"/>
					</g>
					<g>
						<path fill="#9999EF" d="M347.859,189.614h-4.113c-0.322,0-0.583-0.261-0.583-0.583c0-0.321,0.261-0.583,0.583-0.583h4.113
							c0.322,0,0.584,0.262,0.584,0.583C348.443,189.353,348.182,189.614,347.859,189.614z"/>
					</g>
				</g>
			</g>
		</g>
		<g>
			<g opacity="0.7">
				<g>
					<path fill="#DDD6FF" d="M145.176,107.309l-1.698,1.056c-0.349,0.217-0.807,0.11-1.024-0.239
						c-0.216-0.347-0.109-0.804,0.236-1.022l1.691-1.067c0.351-0.221,0.813-0.116,1.035,0.234c0.221,0.351,0.116,0.813-0.234,1.035
						L145.176,107.309z"/>
					<path fill="#DDD6FF" d="M141.132,110.074c0,0-0.769,0.605-1.507,1.253c-0.74,0.643-1.447,1.323-1.447,1.323
						c-0.287,0.275-0.743,0.267-1.018-0.021c-0.274-0.285-0.264-0.741,0.02-1.017c0,0,0.725-0.707,1.486-1.376
						c0.755-0.672,1.549-1.306,1.549-1.306l0.006-0.005c0.316-0.252,0.778-0.201,1.031,0.116c0.252,0.316,0.201,0.778-0.116,1.031
						L141.132,110.074z"/>
					<path fill="#DDD6FF" d="M136.12,114.749c0,0-0.666,0.721-1.3,1.473c-0.636,0.748-1.237,1.524-1.237,1.524
						c-0.236,0.304-0.673,0.36-0.978,0.125c-0.303-0.234-0.357-0.672-0.125-0.976c0,0,0.614-0.804,1.263-1.578
						c0.645-0.776,1.327-1.523,1.327-1.523l0.004-0.005c0.264-0.29,0.713-0.31,1.003-0.046c0.29,0.264,0.311,0.713,0.046,1.003
						L136.12,114.749z"/>
					<path fill="#DDD6FF" d="M131.849,120.125c0,0-0.555,0.811-1.071,1.647c-0.519,0.833-0.995,1.69-0.995,1.69
						c-0.18,0.325-0.59,0.442-0.915,0.262c-0.324-0.18-0.44-0.59-0.263-0.914c0,0,0.486-0.889,1.015-1.751
						c0.524-0.863,1.09-1.701,1.09-1.701l0.004-0.006c0.212-0.314,0.639-0.397,0.953-0.185c0.314,0.212,0.397,0.639,0.185,0.954
						L131.849,120.125z"/>
					<path fill="#DDD6FF" d="M128.445,126.079c0,0-0.416,0.887-0.778,1.798c-0.367,0.907-0.674,1.834-0.674,1.834
						c-0.113,0.341-0.48,0.526-0.821,0.413c-0.339-0.112-0.523-0.481-0.414-0.82c0,0,0.313-0.968,0.688-1.911
						c0.368-0.944,0.792-1.865,0.792-1.865l0.004-0.008c0.153-0.333,0.547-0.478,0.88-0.325c0.333,0.153,0.478,0.547,0.325,0.88
						L128.445,126.079z"/>
					<path fill="#DDD6FF" d="M126.205,132.523c0,0-0.051,0.239-0.128,0.598c-0.073,0.357-0.16,0.836-0.23,1.316
						c-0.146,0.961-0.203,1.929-0.203,1.929c-0.02,0.345-0.316,0.609-0.662,0.589c-0.344-0.02-0.607-0.318-0.589-0.662
						c0,0,0.052-1.024,0.2-2.036c0.071-0.506,0.159-1.009,0.232-1.384c0.077-0.373,0.128-0.622,0.128-0.622
						c0.071-0.346,0.41-0.569,0.756-0.498c0.346,0.071,0.569,0.41,0.498,0.756l-0.001,0.004L126.205,132.523z"/>
					<path fill="#DDD6FF" d="M125.67,139.258c0,0,0.024,0.242,0.061,0.604c0.041,0.359,0.111,0.836,0.203,1.308
						c0.177,0.947,0.474,1.862,0.474,1.862c0.103,0.317-0.071,0.657-0.388,0.76c-0.316,0.103-0.654-0.069-0.759-0.384l-0.002-0.006
						c0,0-0.326-0.982-0.522-1.995c-0.102-0.505-0.18-1.015-0.226-1.398c-0.041-0.381-0.068-0.635-0.068-0.635
						c-0.037-0.338,0.208-0.643,0.547-0.679c0.339-0.036,0.643,0.208,0.679,0.547l0,0.004L125.67,139.258z"/>
					<path fill="#DDD6FF" d="M127.522,145.679c0,0,0.118,0.211,0.294,0.528c0.181,0.312,0.436,0.719,0.711,1.113
						c0.546,0.793,1.191,1.513,1.191,1.513c0.214,0.238,0.194,0.605-0.045,0.819c-0.237,0.213-0.602,0.194-0.816-0.042l-0.006-0.006
						c0,0-0.693-0.762-1.284-1.608c-0.298-0.42-0.576-0.856-0.771-1.19c-0.19-0.334-0.316-0.557-0.316-0.557
						c-0.162-0.285-0.062-0.647,0.224-0.809c0.285-0.162,0.647-0.062,0.809,0.223l0.002,0.004L127.522,145.679z"/>
					<path fill="#DDD6FF" d="M131.801,150.844c0,0,0.189,0.153,0.474,0.382c0.286,0.225,0.676,0.515,1.077,0.791
						c0.799,0.556,1.647,1.04,1.647,1.04c0.267,0.152,0.36,0.493,0.208,0.759c-0.152,0.266-0.49,0.359-0.756,0.209l-0.006-0.003
						c0,0-0.887-0.499-1.729-1.076c-0.422-0.286-0.834-0.588-1.137-0.823c-0.299-0.237-0.498-0.396-0.498-0.396
						c-0.247-0.196-0.288-0.555-0.092-0.801c0.196-0.246,0.554-0.288,0.801-0.092l0.003,0.002L131.801,150.844z"/>
					<path fill="#DDD6FF" d="M137.606,154.383c0,0,0.893,0.398,1.817,0.725c0.919,0.333,1.862,0.591,1.862,0.591
						c0.283,0.078,0.45,0.37,0.373,0.653c-0.077,0.282-0.372,0.447-0.654,0.373c0,0-0.982-0.262-1.94-0.601
						c-0.959-0.331-1.89-0.738-1.89-0.738l-0.009-0.004c-0.276-0.121-0.402-0.443-0.281-0.719s0.443-0.402,0.719-0.281
						L137.606,154.383z"/>
					<path fill="#DDD6FF" d="M144.146,156.329c0,0,0.965,0.162,1.942,0.246c0.974,0.091,1.952,0.103,1.952,0.103
						c0.28,0.003,0.504,0.233,0.5,0.513c-0.003,0.278-0.235,0.501-0.513,0.5c0,0-1.016-0.005-2.028-0.092
						c-1.011-0.079-2.014-0.24-2.014-0.24l-0.009-0.001c-0.284-0.045-0.477-0.313-0.432-0.597c0.045-0.284,0.313-0.478,0.597-0.432
						L144.146,156.329z"/>
					<path fill="#DDD6FF" d="M150.967,156.561c0,0,0.975-0.089,1.94-0.26c0.965-0.162,1.914-0.405,1.914-0.405
						c0.257-0.066,0.52,0.089,0.585,0.347c0.066,0.256-0.092,0.519-0.347,0.586c0,0-0.982,0.259-1.982,0.434
						c-0.996,0.184-2.007,0.284-2.007,0.284l-0.009,0.001c-0.273,0.027-0.516-0.172-0.542-0.444s0.172-0.515,0.444-0.542
						L150.967,156.561z"/>
					<path fill="#DDD6FF" d="M157.617,155.02c0,0,0.917-0.342,1.799-0.766c0.885-0.415,1.718-0.919,1.718-0.919
						c0.216-0.131,0.497-0.062,0.628,0.155c0.13,0.215,0.06,0.496-0.154,0.628c0,0-0.871,0.535-1.789,0.973
						c-0.912,0.447-1.861,0.808-1.861,0.808l-0.009,0.003c-0.243,0.092-0.515-0.03-0.607-0.273c-0.093-0.243,0.03-0.515,0.272-0.607
						L157.617,155.02z"/>
					<path fill="#DDD6FF" d="M163.478,151.632c0,0,0.177-0.166,0.442-0.414c0.258-0.251,0.587-0.602,0.887-0.974
						c0.611-0.74,1.037-1.591,1.037-1.591c0.107-0.214,0.368-0.301,0.582-0.194c0.213,0.107,0.3,0.366,0.195,0.58l-0.002,0.005
						c0,0-0.465,0.944-1.123,1.751c-0.323,0.407-0.674,0.787-0.95,1.058c-0.278,0.264-0.464,0.44-0.464,0.44
						c-0.179,0.17-0.462,0.163-0.632-0.017s-0.162-0.462,0.017-0.632l0.002-0.002L163.478,151.632z"/>
					<path fill="#DDD6FF" d="M166.66,145.958c0,0,0.032-0.249,0.046-0.596c0.017-0.355,0.007-0.831-0.045-1.305
						c-0.095-0.952-0.385-1.875-0.385-1.875c-0.067-0.216,0.053-0.447,0.269-0.514c0.215-0.067,0.444,0.051,0.513,0.265l0.004,0.011
						c0,0,0.317,0.984,0.428,2.021c0.061,0.516,0.075,1.039,0.06,1.43c-0.015,0.401-0.045,0.646-0.045,0.646l-0.003,0.022
						c-0.029,0.232-0.24,0.397-0.472,0.369c-0.232-0.029-0.397-0.24-0.369-0.472V145.958z"/>
					<path fill="#DDD6FF" d="M165.106,139.579c0,0-0.139-0.213-0.352-0.483c-0.217-0.281-0.535-0.632-0.889-0.948
						c-0.701-0.643-1.556-1.081-1.556-1.081c-0.19-0.097-0.265-0.33-0.167-0.52c0.097-0.188,0.328-0.264,0.517-0.168l0.011,0.005
						c0,0,0.937,0.471,1.717,1.176c0.393,0.346,0.748,0.733,0.99,1.041c0.251,0.317,0.385,0.521,0.385,0.521l0.013,0.02
						c0.121,0.185,0.069,0.433-0.116,0.554C165.475,139.816,165.228,139.765,165.106,139.579L165.106,139.579z"/>
					<path fill="#DDD6FF" d="M159.606,136.125c0,0-0.24-0.042-0.599-0.104c-0.358-0.054-0.841-0.105-1.327-0.128
						c-0.971-0.053-1.947,0.027-1.947,0.027c-0.199,0.017-0.374-0.132-0.391-0.331c-0.016-0.199,0.131-0.373,0.329-0.391l0.007,0
						c0,0,1.014-0.091,2.036-0.043c0.51,0.021,1.02,0.071,1.4,0.126c0.377,0.063,0.629,0.104,0.629,0.104
						c0.205,0.034,0.343,0.228,0.31,0.432c-0.034,0.205-0.228,0.344-0.432,0.31l-0.003,0L159.606,136.125z"/>
					<path fill="#DDD6FF" d="M152.833,136.357c0,0-0.959,0.211-1.898,0.508c-0.94,0.289-1.854,0.655-1.854,0.655
						c-0.173,0.069-0.37-0.015-0.439-0.188c-0.069-0.172,0.017-0.37,0.189-0.44c0,0,0.934-0.382,1.897-0.685
						c0.959-0.312,1.947-0.536,1.947-0.536l0.006-0.001c0.189-0.043,0.378,0.076,0.421,0.266c0.043,0.189-0.076,0.378-0.265,0.421
						L152.833,136.357z"/>
					<path fill="#DDD6FF" d="M146.393,138.745c0,0-0.877,0.451-1.722,0.963c-0.848,0.505-1.659,1.068-1.659,1.068
						c-0.143,0.099-0.338,0.063-0.437-0.079c-0.099-0.142-0.062-0.338,0.079-0.438c0,0,0.823-0.58,1.684-1.101
						c0.856-0.527,1.75-0.994,1.75-0.994c0.159-0.086,0.358-0.027,0.445,0.132c0.086,0.16,0.026,0.358-0.133,0.445L146.393,138.745z
						"/>
					<path fill="#DDD6FF" d="M140.654,142.563c0,0-0.762,0.629-1.479,1.309c-0.722,0.674-1.396,1.396-1.396,1.396
						c-0.109,0.117-0.293,0.124-0.41,0.014c-0.117-0.109-0.122-0.293-0.014-0.41c0,0,0.681-0.74,1.411-1.432
						c0.725-0.696,1.496-1.342,1.496-1.342c0.127-0.109,0.319-0.095,0.429,0.032c0.11,0.127,0.096,0.319-0.031,0.429
						L140.654,142.563z"/>
					<path fill="#DDD6FF" d="M135.856,147.518c0,0-0.608,0.779-1.16,1.6c-0.556,0.816-1.051,1.671-1.051,1.671
						c-0.073,0.127-0.236,0.171-0.363,0.097c-0.127-0.073-0.169-0.237-0.097-0.364c0,0,0.498-0.874,1.058-1.709
						c0.554-0.838,1.168-1.635,1.168-1.635c0.092-0.124,0.268-0.149,0.392-0.057c0.124,0.092,0.149,0.268,0.057,0.392
						L135.856,147.518z"/>
					<path fill="#DDD6FF" d="M132.288,153.419c0,0-0.411,0.898-0.75,1.828c-0.347,0.925-0.619,1.875-0.619,1.875
						c-0.037,0.128-0.171,0.203-0.299,0.166c-0.128-0.037-0.202-0.171-0.166-0.3c0,0,0.27-0.969,0.617-1.913
						c0.338-0.946,0.75-1.864,0.75-1.864c0.056-0.13,0.206-0.19,0.336-0.134c0.13,0.056,0.19,0.207,0.134,0.336L132.288,153.419z"/>
					<path fill="#DDD6FF" d="M130.246,160.006c0,0-0.176,0.973-0.274,1.958c-0.106,0.983-0.135,1.973-0.135,1.973
						c-0.004,0.121-0.104,0.215-0.225,0.211c-0.12-0.003-0.214-0.105-0.211-0.225c0,0,0.022-1.004,0.124-2.004
						c0.093-1,0.265-1.99,0.265-1.99c0.02-0.126,0.139-0.213,0.265-0.193c0.126,0.02,0.213,0.139,0.193,0.265L130.246,160.006z"/>
					<path fill="#DDD6FF" d="M129.889,166.901c0,0,0.064,0.988,0.2,1.97c0.128,0.982,0.325,1.954,0.325,1.954
						c0.021,0.105-0.047,0.208-0.152,0.229c-0.104,0.021-0.207-0.048-0.229-0.152c0,0-0.205-0.981-0.342-1.975
						c-0.144-0.992-0.216-1.994-0.216-1.994c-0.01-0.114,0.075-0.215,0.189-0.225c0.115-0.01,0.215,0.075,0.225,0.189
						L129.889,166.901z"/>
					<path fill="#DDD6FF" d="M131.118,173.707c0,0,0.303,0.946,0.605,1.893c0.324,0.935,0.737,1.834,0.737,1.834
						c0.039,0.085,0.002,0.186-0.083,0.225s-0.186,0.001-0.225-0.083c0,0-0.427-0.91-0.763-1.857
						c-0.311-0.95-0.622-1.899-0.622-1.899c-0.032-0.097,0.021-0.2,0.117-0.232c0.097-0.032,0.2,0.021,0.232,0.117L131.118,173.707z
						"/>
					<path fill="#DDD6FF" d="M133.877,180.036c0,0,0.531,0.836,1.153,1.606c0.613,0.777,1.312,1.479,1.312,1.479
						c0.057,0.057,0.056,0.148,0,0.205c-0.056,0.056-0.148,0.055-0.205-0.001c0,0-0.714-0.708-1.343-1.492
						c-0.637-0.776-1.183-1.622-1.183-1.622c-0.049-0.073-0.031-0.171,0.042-0.221c0.072-0.049,0.171-0.031,0.221,0.042
						L133.877,180.036z"/>
					<path fill="#DDD6FF" d="M138.574,185.075c0,0,0.79,0.6,1.637,1.116c0.842,0.524,1.73,0.966,1.73,0.966
						c0.059,0.029,0.083,0.101,0.054,0.16s-0.102,0.082-0.16,0.054c0,0-0.901-0.44-1.756-0.963c-0.86-0.515-1.664-1.117-1.664-1.117
						c-0.06-0.043-0.074-0.126-0.031-0.187s0.126-0.074,0.187-0.031L138.574,185.075z"/>
					<path fill="#DDD6FF" d="M144.67,188.338c0,0,0.931,0.346,1.886,0.623c0.952,0.284,1.922,0.504,1.922,0.504
						c0.05,0.011,0.082,0.062,0.071,0.112c-0.012,0.051-0.062,0.082-0.112,0.071c0,0-0.977-0.214-1.938-0.492
						c-0.962-0.271-1.902-0.614-1.902-0.614c-0.057-0.02-0.086-0.082-0.067-0.138c0.02-0.057,0.081-0.086,0.138-0.067
						L144.67,188.338z"/>
					<path fill="#DDD6FF" d="M151.408,190.018c0,0,0.984,0.149,1.974,0.249c0.989,0.104,1.983,0.162,1.983,0.162
						c0.038,0.002,0.066,0.035,0.064,0.072c-0.002,0.038-0.035,0.067-0.073,0.064c0,0-0.997-0.051-1.99-0.147
						c-0.994-0.092-1.982-0.235-1.982-0.235c-0.045-0.006-0.077-0.048-0.071-0.093c0.006-0.045,0.048-0.078,0.093-0.071H151.408z"/>
					<path fill="#DDD6FF" d="M158.349,190.524c0,0,0.996,0.006,1.991-0.024c0.995-0.027,1.989-0.089,1.989-0.089
						c0.024-0.001,0.044,0.017,0.046,0.041c0.001,0.024-0.017,0.044-0.041,0.046c0,0-0.995,0.069-1.991,0.103
						c-0.997,0.038-1.994,0.038-1.994,0.038c-0.032,0-0.058-0.025-0.058-0.057C158.291,190.551,158.316,190.524,158.349,190.524
						L158.349,190.524z"/>
					<path fill="#DDD6FF" d="M165.307,190.167c0,0,0.989-0.117,1.979-0.234c0.986-0.145,1.971-0.289,1.971-0.289
						c0.01-0.001,0.02,0.005,0.021,0.015c0.002,0.01-0.005,0.02-0.015,0.021c0,0-0.985,0.152-1.97,0.303
						c-0.989,0.125-1.979,0.249-1.979,0.249c-0.018,0.002-0.034-0.011-0.036-0.028S165.288,190.169,165.307,190.167L165.307,190.167
						z"/>
					<polygon fill="#DDD6FF" points="172.204,189.104 174.153,188.661 172.208,189.118 172.199,189.113 172.204,189.104 					"/>
				</g>
			</g>
			<g>
				<path fill="#DDD6FF" d="M154.46,80.712c0.089-0.208-10.847,6.568-10.847,6.568l2.841,18.42l5.365-13.779l14.128-2.694
					l20.135-18.936L154.46,80.712z"/>
				<polygon fill="#C9C2FF" points="186.081,70.292 146.454,105.701 151.818,91.922 				"/>
				<polygon fill="#F2F0FF" points="186.081,70.292 133.656,81.424 143.613,87.281 186.081,70.292 151.818,91.922 168.751,102.378 
									"/>
			</g>
		</g>
	</g>
</g>
<g id="DESIGNED_BY_FREEPIK">
</g>
</svg>
